<?xml version="1.0" encoding="utf-8" standalone="no"?>
<!DOCTYPE svg PUBLIC "-//W3C//DTD SVG 1.1//EN"
  "http://www.w3.org/Graphics/SVG/1.1/DTD/svg11.dtd">
<svg xmlns:xlink="http://www.w3.org/1999/xlink" width="460.8pt" height="345.6pt" viewBox="0 0 460.8 345.6" xmlns="http://www.w3.org/2000/svg" version="1.1">
 <metadata>
  <rdf:RDF xmlns:dc="http://purl.org/dc/elements/1.1/" xmlns:cc="http://creativecommons.org/ns#" xmlns:rdf="http://www.w3.org/1999/02/22-rdf-syntax-ns#">
   <cc:Work>
    <dc:type rdf:resource="http://purl.org/dc/dcmitype/StillImage"/>
    <dc:date>2023-09-08T04:00:16.212248</dc:date>
    <dc:format>image/svg+xml</dc:format>
    <dc:creator>
     <cc:Agent>
      <dc:title>Matplotlib v3.6.0, https://matplotlib.org/</dc:title>
     </cc:Agent>
    </dc:creator>
   </cc:Work>
  </rdf:RDF>
 </metadata>
 <defs>
  <style type="text/css">*{stroke-linejoin: round; stroke-linecap: butt}</style>
 </defs>
 <g id="figure_1">
  <g id="patch_1">
   <path d="M 0 345.6 
L 460.8 345.6 
L 460.8 0 
L 0 0 
z
" style="fill: #ffffff"/>
  </g>
  <g id="axes_1">
   <g id="patch_2">
    <path d="M 57.6 307.584 
L 414.72 307.584 
L 414.72 41.472 
L 57.6 41.472 
z
" style="fill: #ffffff"/>
   </g>
   <g id="PolyCollection_1">
    <path d="M 73.832727 53.568 
L 73.832727 58.528767 
L 77.890909 68.362618 
L 81.949091 77.949389 
L 86.007273 85.394894 
L 90.065455 92.389373 
L 94.123636 99.073485 
L 98.181818 107.333697 
L 102.24 114.043539 
L 106.298182 121.754603 
L 110.356364 128.057713 
L 114.414545 134.043065 
L 118.472727 139.209563 
L 122.530909 145.246699 
L 126.589091 150.525239 
L 130.647273 154.371056 
L 134.705455 159.212287 
L 138.763636 162.953368 
L 142.821818 166.770376 
L 146.88 170.566477 
L 150.938182 173.668578 
L 154.996364 177.454491 
L 159.054545 180.12326 
L 163.112727 183.023376 
L 167.170909 185.447411 
L 171.229091 188.551743 
L 175.287273 190.762725 
L 179.345455 194.103968 
L 183.403636 194.972473 
L 187.461818 196.762727 
L 191.52 198.435937 
L 195.578182 200.089464 
L 199.636364 202.030309 
L 203.694545 203.168064 
L 207.752727 204.914589 
L 211.810909 206.503514 
L 215.869091 207.828715 
L 219.927273 209.254862 
L 223.985455 210.550489 
L 228.043636 211.927959 
L 232.101818 213.525185 
L 236.16 214.806193 
L 240.218182 216.245491 
L 244.276364 217.767522 
L 248.334545 219.185976 
L 252.392727 220.520478 
L 256.450909 222.578932 
L 260.509091 223.985449 
L 264.567273 225.561862 
L 268.625455 227.001717 
L 272.683636 229.09769 
L 276.741818 231.036241 
L 280.8 233.101964 
L 284.858182 234.403832 
L 288.916364 236.331734 
L 292.974545 238.307662 
L 297.032727 240.14956 
L 301.090909 242.234897 
L 305.149091 244.344729 
L 309.207273 246.728326 
L 313.265455 248.811393 
L 317.323636 251.054366 
L 321.381818 252.739578 
L 325.44 255.284673 
L 329.498182 257.807014 
L 333.556364 259.356706 
L 337.614545 261.7633 
L 341.672727 263.733662 
L 345.730909 266.761353 
L 349.789091 267.716337 
L 353.847273 269.981151 
L 357.905455 272.170469 
L 361.963636 274.557322 
L 366.021818 277.116366 
L 370.08 279.934097 
L 374.138182 281.66356 
L 378.196364 284.73688 
L 382.254545 286.926586 
L 386.312727 290.198138 
L 390.370909 292.55304 
L 394.429091 295.488 
L 398.487273 294.870886 
L 398.487273 294.870886 
L 398.487273 294.870886 
L 394.429091 292.031877 
L 390.370909 286.008937 
L 386.312727 280.891156 
L 382.254545 277.541415 
L 378.196364 273.265362 
L 374.138182 270.146911 
L 370.08 267.754161 
L 366.021818 264.505331 
L 361.963636 263.293742 
L 357.905455 259.565881 
L 353.847273 257.578909 
L 349.789091 255.573265 
L 345.730909 255.283897 
L 341.672727 251.656104 
L 337.614545 249.362115 
L 333.556364 247.857459 
L 329.498182 246.091446 
L 325.44 244.622035 
L 321.381818 241.897762 
L 317.323636 240.848566 
L 313.265455 237.722818 
L 309.207273 236.903398 
L 305.149091 235.002174 
L 301.090909 233.249513 
L 297.032727 231.14192 
L 292.974545 230.23595 
L 288.916364 228.712497 
L 284.858182 226.771641 
L 280.8 225.525227 
L 276.741818 224.073261 
L 272.683636 222.514171 
L 268.625455 221.429613 
L 264.567273 219.977734 
L 260.509091 218.412051 
L 256.450909 217.452526 
L 252.392727 215.871811 
L 248.334545 214.433183 
L 244.276364 212.710192 
L 240.218182 212.043667 
L 236.16 210.507567 
L 232.101818 209.276673 
L 228.043636 207.965392 
L 223.985455 205.992273 
L 219.927273 205.08723 
L 215.869091 204.209762 
L 211.810909 202.007916 
L 207.752727 200.956963 
L 203.694545 198.876493 
L 199.636364 196.591287 
L 195.578182 195.439081 
L 191.52 192.87791 
L 187.461818 190.96301 
L 183.403636 188.392203 
L 179.345455 183.34142 
L 175.287273 183.098563 
L 171.229091 180.301875 
L 167.170909 178.125763 
L 163.112727 173.989143 
L 159.054545 170.095539 
L 154.996364 166.253793 
L 150.938182 161.4944 
L 146.88 157.467574 
L 142.821818 152.728287 
L 138.763636 148.073991 
L 134.705455 142.23168 
L 130.647273 138.157502 
L 126.589091 132.727377 
L 122.530909 126.336083 
L 118.472727 118.531834 
L 114.414545 113.58971 
L 110.356364 108.411588 
L 106.298182 100.800305 
L 102.24 95.17743 
L 98.181818 88.267333 
L 94.123636 83.041747 
L 90.065455 77.355503 
L 86.007273 72.56864 
L 81.949091 67.012003 
L 77.890909 62.279059 
L 73.832727 53.568 
z
" clip-path="url(#pe4122f04f3)" style="fill: #1f77b4; fill-opacity: 0.2"/>
   </g>
   <g id="matplotlib.axis_1">
    <g id="xtick_1">
     <g id="line2d_1">
      <defs>
       <path id="m6d570b70c1" d="M 0 0 
L 0 3.5 
" style="stroke: #000000; stroke-width: 0.8"/>
      </defs>
      <g>
       <use xlink:href="#m6d570b70c1" x="73.832727" y="307.584" style="stroke: #000000; stroke-width: 0.8"/>
      </g>
     </g>
     <g id="text_1">
      <!-- 0.2 -->
      <g transform="translate(65.881165 322.182437) scale(0.1 -0.1)">
       <defs>
        <path id="DejaVuSans-30" d="M 2034 4250 
Q 1547 4250 1301 3770 
Q 1056 3291 1056 2328 
Q 1056 1369 1301 889 
Q 1547 409 2034 409 
Q 2525 409 2770 889 
Q 3016 1369 3016 2328 
Q 3016 3291 2770 3770 
Q 2525 4250 2034 4250 
z
M 2034 4750 
Q 2819 4750 3233 4129 
Q 3647 3509 3647 2328 
Q 3647 1150 3233 529 
Q 2819 -91 2034 -91 
Q 1250 -91 836 529 
Q 422 1150 422 2328 
Q 422 3509 836 4129 
Q 1250 4750 2034 4750 
z
" transform="scale(0.015625)"/>
        <path id="DejaVuSans-2e" d="M 684 794 
L 1344 794 
L 1344 0 
L 684 0 
L 684 794 
z
" transform="scale(0.015625)"/>
        <path id="DejaVuSans-32" d="M 1228 531 
L 3431 531 
L 3431 0 
L 469 0 
L 469 531 
Q 828 903 1448 1529 
Q 2069 2156 2228 2338 
Q 2531 2678 2651 2914 
Q 2772 3150 2772 3378 
Q 2772 3750 2511 3984 
Q 2250 4219 1831 4219 
Q 1534 4219 1204 4116 
Q 875 4013 500 3803 
L 500 4441 
Q 881 4594 1212 4672 
Q 1544 4750 1819 4750 
Q 2544 4750 2975 4387 
Q 3406 4025 3406 3419 
Q 3406 3131 3298 2873 
Q 3191 2616 2906 2266 
Q 2828 2175 2409 1742 
Q 1991 1309 1228 531 
z
" transform="scale(0.015625)"/>
       </defs>
       <use xlink:href="#DejaVuSans-30"/>
       <use xlink:href="#DejaVuSans-2e" x="63.623047"/>
       <use xlink:href="#DejaVuSans-32" x="95.410156"/>
      </g>
     </g>
    </g>
    <g id="xtick_2">
     <g id="line2d_2">
      <g>
       <use xlink:href="#m6d570b70c1" x="114.414545" y="307.584" style="stroke: #000000; stroke-width: 0.8"/>
      </g>
     </g>
     <g id="text_2">
      <!-- 0.3 -->
      <g transform="translate(106.462983 322.182437) scale(0.1 -0.1)">
       <defs>
        <path id="DejaVuSans-33" d="M 2597 2516 
Q 3050 2419 3304 2112 
Q 3559 1806 3559 1356 
Q 3559 666 3084 287 
Q 2609 -91 1734 -91 
Q 1441 -91 1130 -33 
Q 819 25 488 141 
L 488 750 
Q 750 597 1062 519 
Q 1375 441 1716 441 
Q 2309 441 2620 675 
Q 2931 909 2931 1356 
Q 2931 1769 2642 2001 
Q 2353 2234 1838 2234 
L 1294 2234 
L 1294 2753 
L 1863 2753 
Q 2328 2753 2575 2939 
Q 2822 3125 2822 3475 
Q 2822 3834 2567 4026 
Q 2313 4219 1838 4219 
Q 1578 4219 1281 4162 
Q 984 4106 628 3988 
L 628 4550 
Q 988 4650 1302 4700 
Q 1616 4750 1894 4750 
Q 2613 4750 3031 4423 
Q 3450 4097 3450 3541 
Q 3450 3153 3228 2886 
Q 3006 2619 2597 2516 
z
" transform="scale(0.015625)"/>
       </defs>
       <use xlink:href="#DejaVuSans-30"/>
       <use xlink:href="#DejaVuSans-2e" x="63.623047"/>
       <use xlink:href="#DejaVuSans-33" x="95.410156"/>
      </g>
     </g>
    </g>
    <g id="xtick_3">
     <g id="line2d_3">
      <g>
       <use xlink:href="#m6d570b70c1" x="154.996364" y="307.584" style="stroke: #000000; stroke-width: 0.8"/>
      </g>
     </g>
     <g id="text_3">
      <!-- 0.4 -->
      <g transform="translate(147.044801 322.182437) scale(0.1 -0.1)">
       <defs>
        <path id="DejaVuSans-34" d="M 2419 4116 
L 825 1625 
L 2419 1625 
L 2419 4116 
z
M 2253 4666 
L 3047 4666 
L 3047 1625 
L 3713 1625 
L 3713 1100 
L 3047 1100 
L 3047 0 
L 2419 0 
L 2419 1100 
L 313 1100 
L 313 1709 
L 2253 4666 
z
" transform="scale(0.015625)"/>
       </defs>
       <use xlink:href="#DejaVuSans-30"/>
       <use xlink:href="#DejaVuSans-2e" x="63.623047"/>
       <use xlink:href="#DejaVuSans-34" x="95.410156"/>
      </g>
     </g>
    </g>
    <g id="xtick_4">
     <g id="line2d_4">
      <g>
       <use xlink:href="#m6d570b70c1" x="195.578182" y="307.584" style="stroke: #000000; stroke-width: 0.8"/>
      </g>
     </g>
     <g id="text_4">
      <!-- 0.5 -->
      <g transform="translate(187.626619 322.182437) scale(0.1 -0.1)">
       <defs>
        <path id="DejaVuSans-35" d="M 691 4666 
L 3169 4666 
L 3169 4134 
L 1269 4134 
L 1269 2991 
Q 1406 3038 1543 3061 
Q 1681 3084 1819 3084 
Q 2600 3084 3056 2656 
Q 3513 2228 3513 1497 
Q 3513 744 3044 326 
Q 2575 -91 1722 -91 
Q 1428 -91 1123 -41 
Q 819 9 494 109 
L 494 744 
Q 775 591 1075 516 
Q 1375 441 1709 441 
Q 2250 441 2565 725 
Q 2881 1009 2881 1497 
Q 2881 1984 2565 2268 
Q 2250 2553 1709 2553 
Q 1456 2553 1204 2497 
Q 953 2441 691 2322 
L 691 4666 
z
" transform="scale(0.015625)"/>
       </defs>
       <use xlink:href="#DejaVuSans-30"/>
       <use xlink:href="#DejaVuSans-2e" x="63.623047"/>
       <use xlink:href="#DejaVuSans-35" x="95.410156"/>
      </g>
     </g>
    </g>
    <g id="xtick_5">
     <g id="line2d_5">
      <g>
       <use xlink:href="#m6d570b70c1" x="236.16" y="307.584" style="stroke: #000000; stroke-width: 0.8"/>
      </g>
     </g>
     <g id="text_5">
      <!-- 0.6 -->
      <g transform="translate(228.208438 322.182437) scale(0.1 -0.1)">
       <defs>
        <path id="DejaVuSans-36" d="M 2113 2584 
Q 1688 2584 1439 2293 
Q 1191 2003 1191 1497 
Q 1191 994 1439 701 
Q 1688 409 2113 409 
Q 2538 409 2786 701 
Q 3034 994 3034 1497 
Q 3034 2003 2786 2293 
Q 2538 2584 2113 2584 
z
M 3366 4563 
L 3366 3988 
Q 3128 4100 2886 4159 
Q 2644 4219 2406 4219 
Q 1781 4219 1451 3797 
Q 1122 3375 1075 2522 
Q 1259 2794 1537 2939 
Q 1816 3084 2150 3084 
Q 2853 3084 3261 2657 
Q 3669 2231 3669 1497 
Q 3669 778 3244 343 
Q 2819 -91 2113 -91 
Q 1303 -91 875 529 
Q 447 1150 447 2328 
Q 447 3434 972 4092 
Q 1497 4750 2381 4750 
Q 2619 4750 2861 4703 
Q 3103 4656 3366 4563 
z
" transform="scale(0.015625)"/>
       </defs>
       <use xlink:href="#DejaVuSans-30"/>
       <use xlink:href="#DejaVuSans-2e" x="63.623047"/>
       <use xlink:href="#DejaVuSans-36" x="95.410156"/>
      </g>
     </g>
    </g>
    <g id="xtick_6">
     <g id="line2d_6">
      <g>
       <use xlink:href="#m6d570b70c1" x="276.741818" y="307.584" style="stroke: #000000; stroke-width: 0.8"/>
      </g>
     </g>
     <g id="text_6">
      <!-- 0.7 -->
      <g transform="translate(268.790256 322.182437) scale(0.1 -0.1)">
       <defs>
        <path id="DejaVuSans-37" d="M 525 4666 
L 3525 4666 
L 3525 4397 
L 1831 0 
L 1172 0 
L 2766 4134 
L 525 4134 
L 525 4666 
z
" transform="scale(0.015625)"/>
       </defs>
       <use xlink:href="#DejaVuSans-30"/>
       <use xlink:href="#DejaVuSans-2e" x="63.623047"/>
       <use xlink:href="#DejaVuSans-37" x="95.410156"/>
      </g>
     </g>
    </g>
    <g id="xtick_7">
     <g id="line2d_7">
      <g>
       <use xlink:href="#m6d570b70c1" x="317.323636" y="307.584" style="stroke: #000000; stroke-width: 0.8"/>
      </g>
     </g>
     <g id="text_7">
      <!-- 0.8 -->
      <g transform="translate(309.372074 322.182437) scale(0.1 -0.1)">
       <defs>
        <path id="DejaVuSans-38" d="M 2034 2216 
Q 1584 2216 1326 1975 
Q 1069 1734 1069 1313 
Q 1069 891 1326 650 
Q 1584 409 2034 409 
Q 2484 409 2743 651 
Q 3003 894 3003 1313 
Q 3003 1734 2745 1975 
Q 2488 2216 2034 2216 
z
M 1403 2484 
Q 997 2584 770 2862 
Q 544 3141 544 3541 
Q 544 4100 942 4425 
Q 1341 4750 2034 4750 
Q 2731 4750 3128 4425 
Q 3525 4100 3525 3541 
Q 3525 3141 3298 2862 
Q 3072 2584 2669 2484 
Q 3125 2378 3379 2068 
Q 3634 1759 3634 1313 
Q 3634 634 3220 271 
Q 2806 -91 2034 -91 
Q 1263 -91 848 271 
Q 434 634 434 1313 
Q 434 1759 690 2068 
Q 947 2378 1403 2484 
z
M 1172 3481 
Q 1172 3119 1398 2916 
Q 1625 2713 2034 2713 
Q 2441 2713 2670 2916 
Q 2900 3119 2900 3481 
Q 2900 3844 2670 4047 
Q 2441 4250 2034 4250 
Q 1625 4250 1398 4047 
Q 1172 3844 1172 3481 
z
" transform="scale(0.015625)"/>
       </defs>
       <use xlink:href="#DejaVuSans-30"/>
       <use xlink:href="#DejaVuSans-2e" x="63.623047"/>
       <use xlink:href="#DejaVuSans-38" x="95.410156"/>
      </g>
     </g>
    </g>
    <g id="xtick_8">
     <g id="line2d_8">
      <g>
       <use xlink:href="#m6d570b70c1" x="357.905455" y="307.584" style="stroke: #000000; stroke-width: 0.8"/>
      </g>
     </g>
     <g id="text_8">
      <!-- 0.9 -->
      <g transform="translate(349.953892 322.182437) scale(0.1 -0.1)">
       <defs>
        <path id="DejaVuSans-39" d="M 703 97 
L 703 672 
Q 941 559 1184 500 
Q 1428 441 1663 441 
Q 2288 441 2617 861 
Q 2947 1281 2994 2138 
Q 2813 1869 2534 1725 
Q 2256 1581 1919 1581 
Q 1219 1581 811 2004 
Q 403 2428 403 3163 
Q 403 3881 828 4315 
Q 1253 4750 1959 4750 
Q 2769 4750 3195 4129 
Q 3622 3509 3622 2328 
Q 3622 1225 3098 567 
Q 2575 -91 1691 -91 
Q 1453 -91 1209 -44 
Q 966 3 703 97 
z
M 1959 2075 
Q 2384 2075 2632 2365 
Q 2881 2656 2881 3163 
Q 2881 3666 2632 3958 
Q 2384 4250 1959 4250 
Q 1534 4250 1286 3958 
Q 1038 3666 1038 3163 
Q 1038 2656 1286 2365 
Q 1534 2075 1959 2075 
z
" transform="scale(0.015625)"/>
       </defs>
       <use xlink:href="#DejaVuSans-30"/>
       <use xlink:href="#DejaVuSans-2e" x="63.623047"/>
       <use xlink:href="#DejaVuSans-39" x="95.410156"/>
      </g>
     </g>
    </g>
    <g id="xtick_9">
     <g id="line2d_9">
      <g>
       <use xlink:href="#m6d570b70c1" x="398.487273" y="307.584" style="stroke: #000000; stroke-width: 0.8"/>
      </g>
     </g>
     <g id="text_9">
      <!-- 1.0 -->
      <g transform="translate(390.53571 322.182437) scale(0.1 -0.1)">
       <defs>
        <path id="DejaVuSans-31" d="M 794 531 
L 1825 531 
L 1825 4091 
L 703 3866 
L 703 4441 
L 1819 4666 
L 2450 4666 
L 2450 531 
L 3481 531 
L 3481 0 
L 794 0 
L 794 531 
z
" transform="scale(0.015625)"/>
       </defs>
       <use xlink:href="#DejaVuSans-31"/>
       <use xlink:href="#DejaVuSans-2e" x="63.623047"/>
       <use xlink:href="#DejaVuSans-30" x="95.410156"/>
      </g>
     </g>
    </g>
    <g id="text_10">
     <!-- Avg Price -->
     <g transform="translate(213.113125 335.860562) scale(0.1 -0.1)">
      <defs>
       <path id="DejaVuSans-41" d="M 2188 4044 
L 1331 1722 
L 3047 1722 
L 2188 4044 
z
M 1831 4666 
L 2547 4666 
L 4325 0 
L 3669 0 
L 3244 1197 
L 1141 1197 
L 716 0 
L 50 0 
L 1831 4666 
z
" transform="scale(0.015625)"/>
       <path id="DejaVuSans-76" d="M 191 3500 
L 800 3500 
L 1894 563 
L 2988 3500 
L 3597 3500 
L 2284 0 
L 1503 0 
L 191 3500 
z
" transform="scale(0.015625)"/>
       <path id="DejaVuSans-67" d="M 2906 1791 
Q 2906 2416 2648 2759 
Q 2391 3103 1925 3103 
Q 1463 3103 1205 2759 
Q 947 2416 947 1791 
Q 947 1169 1205 825 
Q 1463 481 1925 481 
Q 2391 481 2648 825 
Q 2906 1169 2906 1791 
z
M 3481 434 
Q 3481 -459 3084 -895 
Q 2688 -1331 1869 -1331 
Q 1566 -1331 1297 -1286 
Q 1028 -1241 775 -1147 
L 775 -588 
Q 1028 -725 1275 -790 
Q 1522 -856 1778 -856 
Q 2344 -856 2625 -561 
Q 2906 -266 2906 331 
L 2906 616 
Q 2728 306 2450 153 
Q 2172 0 1784 0 
Q 1141 0 747 490 
Q 353 981 353 1791 
Q 353 2603 747 3093 
Q 1141 3584 1784 3584 
Q 2172 3584 2450 3431 
Q 2728 3278 2906 2969 
L 2906 3500 
L 3481 3500 
L 3481 434 
z
" transform="scale(0.015625)"/>
       <path id="DejaVuSans-20" transform="scale(0.015625)"/>
       <path id="DejaVuSans-50" d="M 1259 4147 
L 1259 2394 
L 2053 2394 
Q 2494 2394 2734 2622 
Q 2975 2850 2975 3272 
Q 2975 3691 2734 3919 
Q 2494 4147 2053 4147 
L 1259 4147 
z
M 628 4666 
L 2053 4666 
Q 2838 4666 3239 4311 
Q 3641 3956 3641 3272 
Q 3641 2581 3239 2228 
Q 2838 1875 2053 1875 
L 1259 1875 
L 1259 0 
L 628 0 
L 628 4666 
z
" transform="scale(0.015625)"/>
       <path id="DejaVuSans-72" d="M 2631 2963 
Q 2534 3019 2420 3045 
Q 2306 3072 2169 3072 
Q 1681 3072 1420 2755 
Q 1159 2438 1159 1844 
L 1159 0 
L 581 0 
L 581 3500 
L 1159 3500 
L 1159 2956 
Q 1341 3275 1631 3429 
Q 1922 3584 2338 3584 
Q 2397 3584 2469 3576 
Q 2541 3569 2628 3553 
L 2631 2963 
z
" transform="scale(0.015625)"/>
       <path id="DejaVuSans-69" d="M 603 3500 
L 1178 3500 
L 1178 0 
L 603 0 
L 603 3500 
z
M 603 4863 
L 1178 4863 
L 1178 4134 
L 603 4134 
L 603 4863 
z
" transform="scale(0.015625)"/>
       <path id="DejaVuSans-63" d="M 3122 3366 
L 3122 2828 
Q 2878 2963 2633 3030 
Q 2388 3097 2138 3097 
Q 1578 3097 1268 2742 
Q 959 2388 959 1747 
Q 959 1106 1268 751 
Q 1578 397 2138 397 
Q 2388 397 2633 464 
Q 2878 531 3122 666 
L 3122 134 
Q 2881 22 2623 -34 
Q 2366 -91 2075 -91 
Q 1284 -91 818 406 
Q 353 903 353 1747 
Q 353 2603 823 3093 
Q 1294 3584 2113 3584 
Q 2378 3584 2631 3529 
Q 2884 3475 3122 3366 
z
" transform="scale(0.015625)"/>
       <path id="DejaVuSans-65" d="M 3597 1894 
L 3597 1613 
L 953 1613 
Q 991 1019 1311 708 
Q 1631 397 2203 397 
Q 2534 397 2845 478 
Q 3156 559 3463 722 
L 3463 178 
Q 3153 47 2828 -22 
Q 2503 -91 2169 -91 
Q 1331 -91 842 396 
Q 353 884 353 1716 
Q 353 2575 817 3079 
Q 1281 3584 2069 3584 
Q 2775 3584 3186 3129 
Q 3597 2675 3597 1894 
z
M 3022 2063 
Q 3016 2534 2758 2815 
Q 2500 3097 2075 3097 
Q 1594 3097 1305 2825 
Q 1016 2553 972 2059 
L 3022 2063 
z
" transform="scale(0.015625)"/>
      </defs>
      <use xlink:href="#DejaVuSans-41"/>
      <use xlink:href="#DejaVuSans-76" x="62.533203"/>
      <use xlink:href="#DejaVuSans-67" x="121.712891"/>
      <use xlink:href="#DejaVuSans-20" x="185.189453"/>
      <use xlink:href="#DejaVuSans-50" x="216.976562"/>
      <use xlink:href="#DejaVuSans-72" x="275.529297"/>
      <use xlink:href="#DejaVuSans-69" x="316.642578"/>
      <use xlink:href="#DejaVuSans-63" x="344.425781"/>
      <use xlink:href="#DejaVuSans-65" x="399.40625"/>
     </g>
    </g>
   </g>
   <g id="matplotlib.axis_2">
    <g id="ytick_1">
     <g id="line2d_10">
      <defs>
       <path id="maeacb87ec6" d="M 0 0 
L -3.5 0 
" style="stroke: #000000; stroke-width: 0.8"/>
      </defs>
      <g>
       <use xlink:href="#maeacb87ec6" x="57.6" y="299.610927" style="stroke: #000000; stroke-width: 0.8"/>
      </g>
     </g>
     <g id="text_11">
      <!-- 0 -->
      <g transform="translate(44.2375 303.410145) scale(0.1 -0.1)">
       <use xlink:href="#DejaVuSans-30"/>
      </g>
     </g>
    </g>
    <g id="ytick_2">
     <g id="line2d_11">
      <g>
       <use xlink:href="#maeacb87ec6" x="57.6" y="260.110585" style="stroke: #000000; stroke-width: 0.8"/>
      </g>
     </g>
     <g id="text_12">
      <!-- 50 -->
      <g transform="translate(37.875 263.909803) scale(0.1 -0.1)">
       <use xlink:href="#DejaVuSans-35"/>
       <use xlink:href="#DejaVuSans-30" x="63.623047"/>
      </g>
     </g>
    </g>
    <g id="ytick_3">
     <g id="line2d_12">
      <g>
       <use xlink:href="#maeacb87ec6" x="57.6" y="220.610243" style="stroke: #000000; stroke-width: 0.8"/>
      </g>
     </g>
     <g id="text_13">
      <!-- 100 -->
      <g transform="translate(31.5125 224.409461) scale(0.1 -0.1)">
       <use xlink:href="#DejaVuSans-31"/>
       <use xlink:href="#DejaVuSans-30" x="63.623047"/>
       <use xlink:href="#DejaVuSans-30" x="127.246094"/>
      </g>
     </g>
    </g>
    <g id="ytick_4">
     <g id="line2d_13">
      <g>
       <use xlink:href="#maeacb87ec6" x="57.6" y="181.109901" style="stroke: #000000; stroke-width: 0.8"/>
      </g>
     </g>
     <g id="text_14">
      <!-- 150 -->
      <g transform="translate(31.5125 184.90912) scale(0.1 -0.1)">
       <use xlink:href="#DejaVuSans-31"/>
       <use xlink:href="#DejaVuSans-35" x="63.623047"/>
       <use xlink:href="#DejaVuSans-30" x="127.246094"/>
      </g>
     </g>
    </g>
    <g id="ytick_5">
     <g id="line2d_14">
      <g>
       <use xlink:href="#maeacb87ec6" x="57.6" y="141.609559" style="stroke: #000000; stroke-width: 0.8"/>
      </g>
     </g>
     <g id="text_15">
      <!-- 200 -->
      <g transform="translate(31.5125 145.408778) scale(0.1 -0.1)">
       <use xlink:href="#DejaVuSans-32"/>
       <use xlink:href="#DejaVuSans-30" x="63.623047"/>
       <use xlink:href="#DejaVuSans-30" x="127.246094"/>
      </g>
     </g>
    </g>
    <g id="ytick_6">
     <g id="line2d_15">
      <g>
       <use xlink:href="#maeacb87ec6" x="57.6" y="102.109217" style="stroke: #000000; stroke-width: 0.8"/>
      </g>
     </g>
     <g id="text_16">
      <!-- 250 -->
      <g transform="translate(31.5125 105.908436) scale(0.1 -0.1)">
       <use xlink:href="#DejaVuSans-32"/>
       <use xlink:href="#DejaVuSans-35" x="63.623047"/>
       <use xlink:href="#DejaVuSans-30" x="127.246094"/>
      </g>
     </g>
    </g>
    <g id="ytick_7">
     <g id="line2d_16">
      <g>
       <use xlink:href="#maeacb87ec6" x="57.6" y="62.608875" style="stroke: #000000; stroke-width: 0.8"/>
      </g>
     </g>
     <g id="text_17">
      <!-- 300 -->
      <g transform="translate(31.5125 66.408094) scale(0.1 -0.1)">
       <use xlink:href="#DejaVuSans-33"/>
       <use xlink:href="#DejaVuSans-30" x="63.623047"/>
       <use xlink:href="#DejaVuSans-30" x="127.246094"/>
      </g>
     </g>
    </g>
    <g id="text_18">
     <!-- Q -->
     <g transform="translate(25.432812 178.463937) rotate(-90) scale(0.1 -0.1)">
      <defs>
       <path id="DejaVuSans-51" d="M 2522 4238 
Q 1834 4238 1429 3725 
Q 1025 3213 1025 2328 
Q 1025 1447 1429 934 
Q 1834 422 2522 422 
Q 3209 422 3611 934 
Q 4013 1447 4013 2328 
Q 4013 3213 3611 3725 
Q 3209 4238 2522 4238 
z
M 3406 84 
L 4238 -825 
L 3475 -825 
L 2784 -78 
Q 2681 -84 2626 -87 
Q 2572 -91 2522 -91 
Q 1538 -91 948 567 
Q 359 1225 359 2328 
Q 359 3434 948 4092 
Q 1538 4750 2522 4750 
Q 3503 4750 4090 4092 
Q 4678 3434 4678 2328 
Q 4678 1516 4351 937 
Q 4025 359 3406 84 
z
" transform="scale(0.015625)"/>
      </defs>
      <use xlink:href="#DejaVuSans-51"/>
     </g>
    </g>
   </g>
   <g id="line2d_17">
    <path d="M 73.832727 56.048383 
L 77.890909 65.320839 
L 81.949091 72.480696 
L 86.007273 78.981767 
L 90.065455 84.872438 
L 94.123636 91.057616 
L 98.181818 97.800515 
L 102.24 104.610485 
L 106.298182 111.277454 
L 110.356364 118.234651 
L 114.414545 123.816387 
L 118.472727 128.870699 
L 122.530909 135.791391 
L 126.589091 141.626308 
L 130.647273 146.264279 
L 134.705455 150.721984 
L 138.763636 155.513679 
L 142.821818 159.749331 
L 146.88 164.017026 
L 150.938182 167.581489 
L 154.996364 171.854142 
L 159.054545 175.109399 
L 163.112727 178.50626 
L 167.170909 181.786587 
L 171.229091 184.426809 
L 175.287273 186.930644 
L 179.345455 188.722694 
L 183.403636 191.682338 
L 187.461818 193.862868 
L 191.52 195.656923 
L 195.578182 197.764273 
L 199.636364 199.310798 
L 203.694545 201.022278 
L 207.752727 202.935776 
L 211.810909 204.255715 
L 215.869091 206.019239 
L 219.927273 207.171046 
L 223.985455 208.271381 
L 228.043636 209.946675 
L 232.101818 211.400929 
L 236.16 212.65688 
L 240.218182 214.144579 
L 244.276364 215.238857 
L 248.334545 216.80958 
L 252.392727 218.196145 
L 256.450909 220.015729 
L 260.509091 221.19875 
L 264.567273 222.769798 
L 268.625455 224.215665 
L 272.683636 225.805931 
L 276.741818 227.554751 
L 280.8 229.313595 
L 284.858182 230.587736 
L 288.916364 232.522115 
L 292.974545 234.271806 
L 297.032727 235.64574 
L 301.090909 237.742205 
L 305.149091 239.673451 
L 309.207273 241.815862 
L 313.265455 243.267105 
L 317.323636 245.951466 
L 321.381818 247.31867 
L 325.44 249.953354 
L 329.498182 251.94923 
L 333.556364 253.607083 
L 337.614545 255.562707 
L 341.672727 257.694883 
L 345.730909 261.022625 
L 349.789091 261.644801 
L 353.847273 263.78003 
L 357.905455 265.868175 
L 361.963636 268.925532 
L 366.021818 270.810848 
L 370.08 273.844129 
L 374.138182 275.905235 
L 378.196364 279.001121 
L 382.254545 282.234001 
L 386.312727 285.544647 
L 390.370909 289.280989 
L 394.429091 293.759938 
L 398.487273 294.870886 
" clip-path="url(#pe4122f04f3)" style="fill: none; stroke: #1f77b4; stroke-width: 1.5; stroke-linecap: square"/>
    <defs>
     <path id="m85d9b61de8" d="M -3 3 
L 3 -3 
M -3 -3 
L 3 3 
" style="stroke: #1f77b4"/>
    </defs>
    <g clip-path="url(#pe4122f04f3)">
     <use xlink:href="#m85d9b61de8" x="73.832727" y="56.048383" style="fill: #1f77b4; stroke: #1f77b4"/>
     <use xlink:href="#m85d9b61de8" x="106.298182" y="111.277454" style="fill: #1f77b4; stroke: #1f77b4"/>
     <use xlink:href="#m85d9b61de8" x="138.763636" y="155.513679" style="fill: #1f77b4; stroke: #1f77b4"/>
     <use xlink:href="#m85d9b61de8" x="171.229091" y="184.426809" style="fill: #1f77b4; stroke: #1f77b4"/>
     <use xlink:href="#m85d9b61de8" x="203.694545" y="201.022278" style="fill: #1f77b4; stroke: #1f77b4"/>
     <use xlink:href="#m85d9b61de8" x="236.16" y="212.65688" style="fill: #1f77b4; stroke: #1f77b4"/>
     <use xlink:href="#m85d9b61de8" x="268.625455" y="224.215665" style="fill: #1f77b4; stroke: #1f77b4"/>
     <use xlink:href="#m85d9b61de8" x="301.090909" y="237.742205" style="fill: #1f77b4; stroke: #1f77b4"/>
     <use xlink:href="#m85d9b61de8" x="333.556364" y="253.607083" style="fill: #1f77b4; stroke: #1f77b4"/>
     <use xlink:href="#m85d9b61de8" x="366.021818" y="270.810848" style="fill: #1f77b4; stroke: #1f77b4"/>
     <use xlink:href="#m85d9b61de8" x="398.487273" y="294.870886" style="fill: #1f77b4; stroke: #1f77b4"/>
    </g>
   </g>
   <g id="line2d_18">
    <path d="M 73.83329 53.9188 
L 73.937606 53.9188 
L 73.981942 54.708807 
L 74.179107 54.708807 
L 74.305439 55.498813 
L 74.380205 55.498813 
L 74.515708 56.28882 
L 74.576216 56.28882 
L 74.723671 57.078827 
L 74.803552 57.078827 
L 74.926137 57.868834 
L 75.343194 57.868834 
L 75.449573 58.658841 
L 75.529706 58.658841 
L 75.684407 59.448848 
L 75.793468 59.448848 
L 75.903394 60.238854 
L 75.957234 60.238854 
L 76.126641 61.028861 
L 76.179525 61.028861 
L 76.323914 61.818868 
L 76.44958 61.818868 
L 76.563835 62.608875 
L 77.002496 62.608875 
L 77.125959 63.398882 
L 77.21074 63.398882 
L 77.3567 64.188889 
L 77.462015 64.188889 
L 77.56833 64.978895 
L 77.699407 64.978895 
L 77.854092 65.768902 
L 77.915077 65.768902 
L 78.03692 66.558909 
L 78.15359 66.558909 
L 78.268073 67.348916 
L 78.705626 67.348916 
L 78.834693 68.138923 
L 78.958684 68.138923 
L 79.096804 68.92893 
L 79.210614 68.92893 
L 79.310338 69.718937 
L 79.45567 69.718937 
L 79.547022 70.508943 
L 79.65006 70.508943 
L 79.79758 71.29895 
L 79.895364 71.29895 
L 80.053703 72.088957 
L 80.536103 72.088957 
L 80.670364 72.878964 
L 80.76173 72.878964 
L 80.886476 73.668971 
L 81.025931 73.668971 
L 81.137338 74.458978 
L 81.283886 74.458978 
L 81.371041 75.248984 
L 81.530048 75.248984 
L 81.680037 76.038991 
L 81.767995 76.038991 
L 81.89629 76.828998 
L 82.41522 76.828998 
L 82.564565 77.619005 
L 82.65909 77.619005 
L 82.773286 78.409012 
L 82.923238 78.409012 
L 83.049064 79.199019 
L 83.190255 79.199019 
L 83.292414 79.989025 
L 83.445525 79.989025 
L 83.537503 80.779032 
L 83.694726 80.779032 
L 83.774609 81.569039 
L 84.3639 81.569039 
L 84.449727 82.359046 
L 84.63909 82.359046 
L 84.76949 83.149053 
L 84.913972 83.149053 
L 85.051555 83.93906 
L 85.138175 83.93906 
L 85.288756 84.729066 
L 85.445751 84.729066 
L 85.59709 85.519073 
L 85.73183 85.519073 
L 85.847937 86.30908 
L 86.34831 86.30908 
L 86.521295 87.099087 
L 86.700507 87.099087 
L 86.812873 87.889094 
L 86.976678 87.889094 
L 87.071816 88.679101 
L 87.267301 88.679101 
L 87.369867 89.469107 
L 87.544137 89.469107 
L 87.663552 90.259114 
L 87.83579 90.259114 
L 87.89388 91.049121 
L 88.530658 91.049121 
L 88.667411 91.839128 
L 88.812909 91.839128 
L 88.966003 92.629135 
L 89.131212 92.629135 
L 89.21338 93.419142 
L 89.443919 93.419142 
L 89.538716 94.209149 
L 89.73577 94.209149 
L 89.853993 94.999155 
L 90.028874 94.999155 
L 90.165808 95.789162 
L 90.794097 95.789162 
L 90.918327 96.579169 
L 91.104631 96.579169 
L 91.229181 97.369176 
L 91.404605 97.369176 
L 91.538684 98.159183 
L 91.704575 98.159183 
L 91.787827 98.94919 
L 91.996417 98.94919 
L 92.177182 99.739196 
L 92.318481 99.739196 
L 92.497966 100.529203 
L 93.115703 100.529203 
L 93.228504 101.31921 
L 93.423684 101.31921 
L 93.622783 102.109217 
L 93.773913 102.109217 
L 93.890511 102.899224 
L 94.073189 102.899224 
L 94.228712 103.689231 
L 94.443854 103.689231 
L 94.555658 104.479237 
L 94.766137 104.479237 
L 94.893275 105.269244 
L 95.57482 105.269244 
L 95.734757 106.059251 
L 95.895256 106.059251 
L 96.056246 106.849258 
L 96.280221 106.849258 
L 96.353581 107.639265 
L 96.611275 107.639265 
L 96.786465 108.429272 
L 96.968537 108.429272 
L 97.096059 109.219278 
L 97.314534 109.219278 
L 97.439135 110.009285 
L 98.161121 110.009285 
L 98.314388 110.799292 
L 98.495206 110.799292 
L 98.648122 111.589299 
L 98.894249 111.589299 
L 99.017236 112.379306 
L 99.258041 112.379306 
L 99.375598 113.169313 
L 99.621349 113.169313 
L 99.712116 113.959319 
L 99.979563 113.959319 
L 100.113107 114.749326 
L 100.885443 114.749326 
L 101.010691 115.539333 
L 101.274733 115.539333 
L 101.441661 116.32934 
L 101.620071 116.32934 
L 101.752553 117.119347 
L 102.025906 117.119347 
L 102.139392 117.909354 
L 102.415833 117.909354 
L 102.521615 118.699361 
L 102.774549 118.699361 
L 102.902502 119.489367 
L 103.762037 119.489367 
L 103.875709 120.279374 
L 104.155394 120.279374 
L 104.277851 121.069381 
L 104.559996 121.069381 
L 104.675757 121.859388 
L 104.943174 121.859388 
L 105.080532 122.649395 
L 105.351226 122.649395 
L 105.465239 123.439402 
L 105.762645 123.439402 
L 105.892032 124.229408 
L 106.773477 124.229408 
L 106.9074 125.019415 
L 107.184637 125.019415 
L 107.326895 125.809422 
L 107.604434 125.809422 
L 107.739575 126.599429 
L 108.020938 126.599429 
L 108.141147 127.389436 
L 108.463613 127.389436 
L 108.571344 128.179443 
L 108.878577 128.179443 
L 109.015758 128.969449 
L 109.948585 128.969449 
L 110.081263 129.759456 
L 110.36726 129.759456 
L 110.522904 130.549463 
L 110.842749 130.549463 
L 110.966124 131.33947 
L 111.291988 131.33947 
L 111.403017 132.129477 
L 111.734563 132.129477 
L 111.882666 132.919484 
L 112.192889 132.919484 
L 112.314151 133.70949 
L 113.332959 133.70949 
L 113.434543 134.499497 
L 113.795803 134.499497 
L 113.90483 135.289504 
L 114.259522 135.289504 
L 114.399814 136.079511 
L 114.738806 136.079511 
L 114.870571 136.869518 
L 115.165692 136.869518 
L 115.296631 137.659525 
L 115.690404 137.659525 
L 115.819549 138.449531 
L 116.891042 138.449531 
L 117.0274 139.239538 
L 117.350303 139.239538 
L 117.505125 140.029545 
L 117.87348 140.029545 
L 118.005924 140.819552 
L 118.37941 140.819552 
L 118.517163 141.609559 
L 118.89363 141.609559 
L 119.041012 142.399566 
L 119.403243 142.399566 
L 119.504901 143.189573 
L 120.670978 143.189573 
L 120.8098 143.979579 
L 121.188458 143.979579 
L 121.297633 144.769586 
L 121.728873 144.769586 
L 121.854044 145.559593 
L 122.269382 145.559593 
L 122.381226 146.3496 
L 122.792752 146.3496 
L 122.932198 147.139607 
L 123.328668 147.139607 
L 123.458995 147.929614 
L 124.691658 147.929614 
L 124.789891 148.71962 
L 125.229705 148.71962 
L 125.35304 149.509627 
L 125.820615 149.509627 
L 125.963755 150.299634 
L 126.380001 150.299634 
L 126.503669 151.089641 
L 126.960416 151.089641 
L 127.03265 151.879648 
L 127.52852 151.879648 
L 127.626352 152.669655 
L 128.971889 152.669655 
L 129.095049 153.459661 
L 129.560019 153.459661 
L 129.696987 154.249668 
L 130.1645 154.249668 
L 130.326034 155.039675 
L 130.765397 155.039675 
L 130.88767 155.829682 
L 131.385847 155.829682 
L 131.513499 156.619689 
L 131.983949 156.619689 
L 132.076836 157.409696 
L 133.561577 157.409696 
L 133.686175 158.199702 
L 134.153265 158.199702 
L 134.311086 158.989709 
L 134.802783 158.989709 
L 134.956245 159.779716 
L 135.420186 159.779716 
L 135.589144 160.569723 
L 136.119552 160.569723 
L 136.273967 161.35973 
L 136.774112 161.35973 
L 136.861025 162.149737 
L 138.443348 162.149737 
L 138.571626 162.939743 
L 139.117952 162.939743 
L 139.266748 163.72975 
L 139.80275 163.72975 
L 139.988834 164.519757 
L 140.50027 164.519757 
L 140.640019 165.309764 
L 141.190184 165.309764 
L 141.3083 166.099771 
L 141.877913 166.099771 
L 142.007315 166.889778 
L 143.679127 166.889778 
L 143.814481 167.679785 
L 144.410771 167.679785 
L 144.585501 168.469791 
L 145.147453 168.469791 
L 145.271741 169.259798 
L 145.880474 169.259798 
L 146.009313 170.049805 
L 146.636352 170.049805 
L 146.755782 170.839812 
L 147.394959 170.839812 
L 147.54341 171.629819 
L 149.320935 171.629819 
L 149.424924 172.419826 
L 150.086861 172.419826 
L 150.209401 173.209832 
L 150.896328 173.209832 
L 150.995765 173.999839 
L 151.688068 173.999839 
L 151.791824 174.789846 
L 152.491883 174.789846 
L 152.603275 175.579853 
L 153.324749 175.579853 
L 153.428601 176.36986 
L 155.399228 176.36986 
L 155.533634 177.159867 
L 156.253727 177.159867 
L 156.338324 177.949873 
L 157.094969 177.949873 
L 157.18259 178.73988 
L 157.959292 178.73988 
L 158.092353 179.529887 
L 158.846865 179.529887 
L 158.974002 180.319894 
L 159.758498 180.319894 
L 159.876167 181.109901 
L 162.014051 181.109901 
L 162.109975 181.899908 
L 162.940141 181.899908 
L 163.063506 182.689914 
L 163.880806 182.689914 
L 163.991659 183.479921 
L 164.826936 183.479921 
L 164.966979 184.269928 
L 165.82613 184.269928 
L 165.949267 185.059935 
L 166.813532 185.059935 
L 166.942579 185.849942 
L 169.295848 185.849942 
L 169.394633 186.639949 
L 170.336953 186.639949 
L 170.457076 187.429955 
L 171.386189 187.429955 
L 171.51013 188.219962 
L 172.496491 188.219962 
L 172.611779 189.009969 
L 173.577489 189.009969 
L 173.729075 189.799976 
L 174.744997 189.799976 
L 174.863685 190.589983 
L 177.467662 190.589983 
L 177.589646 191.37999 
L 178.667691 191.37999 
L 178.785088 192.169997 
L 179.908535 192.169997 
L 180.010198 192.960003 
L 181.17281 192.960003 
L 181.278586 193.75001 
L 182.441926 193.75001 
L 182.551385 194.540017 
L 183.800665 194.540017 
L 183.861735 195.330024 
L 186.799833 195.330024 
L 186.909021 196.120031 
L 188.220557 196.120031 
L 188.373366 196.910038 
L 189.678634 196.910038 
L 189.79792 197.700044 
L 191.15909 197.700044 
L 191.303967 198.490051 
L 192.67681 198.490051 
L 192.846816 199.280058 
L 194.224648 199.280058 
L 194.36748 200.070065 
L 197.509845 200.070065 
L 197.630491 200.860072 
L 199.166149 200.860072 
L 199.290524 201.650079 
L 200.834094 201.650079 
L 200.984961 202.440085 
L 202.538974 202.440085 
L 202.685819 203.230092 
L 204.303623 203.230092 
L 204.375467 204.020099 
L 206.061573 204.020099 
L 206.216399 204.810106 
L 209.54361 204.810106 
L 209.674946 205.600113 
L 211.357337 205.600113 
L 211.47581 206.39012 
L 213.174339 206.39012 
L 213.319084 207.180126 
L 215.039925 207.180126 
L 215.167459 207.970133 
L 216.901186 207.970133 
L 217.010612 208.76014 
L 218.767771 208.76014 
L 218.891418 209.550147 
L 222.227746 209.550147 
L 222.394316 210.340154 
L 224.149612 210.340154 
L 224.262443 211.130161 
L 226.013083 211.130161 
L 226.158676 211.920167 
L 227.868956 211.920167 
L 227.976571 212.710174 
L 229.732359 212.710174 
L 229.762132 213.500181 
L 231.60001 213.500181 
L 231.71935 214.290188 
L 234.937204 214.290188 
L 235.10326 215.080195 
L 236.794534 215.080195 
L 236.849641 215.870202 
L 238.581237 215.870202 
L 238.706679 216.660209 
L 240.34448 216.660209 
L 240.536556 217.450215 
L 242.145222 217.450215 
L 242.228492 218.240222 
L 243.886954 218.240222 
L 244.03554 219.030229 
L 246.994618 219.030229 
L 247.172361 219.820236 
L 248.733969 219.820236 
L 248.846073 220.610243 
L 250.387165 220.610243 
L 250.511228 221.40025 
L 252.03932 221.40025 
L 252.130313 222.190256 
L 253.660275 222.190256 
L 253.681427 222.980263 
L 255.253767 222.980263 
L 255.37943 223.77027 
L 258.178899 223.77027 
L 258.28236 224.560277 
L 259.731521 224.560277 
L 259.900031 225.350284 
L 261.221332 225.350284 
L 261.329584 226.140291 
L 262.749125 226.140291 
L 262.84959 226.930297 
L 264.194266 226.930297 
L 264.348172 227.720304 
L 265.684583 227.720304 
L 265.816543 228.510311 
L 268.401474 228.510311 
L 268.519396 229.300318 
L 269.808558 229.300318 
L 269.915107 230.090325 
L 271.205062 230.090325 
L 271.324691 230.880332 
L 272.566979 230.880332 
L 272.688031 231.670338 
L 273.919333 231.670338 
L 274.055291 232.460345 
L 275.283727 232.460345 
L 275.499397 233.250352 
L 277.826182 233.250352 
L 277.943049 234.040359 
L 279.114289 234.040359 
L 279.224193 234.830366 
L 280.422239 234.830366 
L 280.483108 235.620373 
L 281.703643 235.620373 
L 281.820339 236.410379 
L 282.965196 236.410379 
L 283.075011 237.200386 
L 284.226613 237.200386 
L 284.318856 237.990393 
L 286.622687 237.990393 
L 286.766268 238.7804 
L 287.846609 238.7804 
L 287.978142 239.570407 
L 289.013107 239.570407 
L 289.205734 240.360414 
L 290.296653 240.360414 
L 290.417787 241.150421 
L 291.476527 241.150421 
L 291.599457 241.940427 
L 292.697815 241.940427 
L 292.811454 242.730434 
L 295.019836 242.730434 
L 295.149965 243.520441 
L 296.181515 243.520441 
L 296.338589 244.310448 
L 297.369332 244.310448 
L 297.489193 245.100455 
L 298.532593 245.100455 
L 298.649524 245.890462 
L 299.679631 245.890462 
L 299.809647 246.680468 
L 300.829283 246.680468 
L 300.949981 247.470475 
L 303.04358 247.470475 
L 303.222344 248.260482 
L 304.200486 248.260482 
L 304.34649 249.050489 
L 305.371428 249.050489 
L 305.499416 249.840496 
L 306.489566 249.840496 
L 306.699981 250.630503 
L 307.596019 250.630503 
L 307.763883 251.420509 
L 308.766158 251.420509 
L 308.87704 252.210516 
L 310.979488 252.210516 
L 311.109496 253.000523 
L 312.045083 253.000523 
L 312.212004 253.79053 
L 313.213878 253.79053 
L 313.323519 254.580537 
L 314.331746 254.580537 
L 314.495634 255.370544 
L 315.439901 255.370544 
L 315.559812 256.16055 
L 316.551527 256.16055 
L 316.738488 256.950557 
L 318.753338 256.950557 
L 318.917565 257.740564 
L 319.858765 257.740564 
L 319.951076 258.530571 
L 320.969377 258.530571 
L 321.078601 259.320578 
L 322.047731 259.320578 
L 322.179629 260.110585 
L 323.105649 260.110585 
L 323.283418 260.900591 
L 324.247514 260.900591 
L 324.402933 261.690598 
L 326.452144 261.690598 
L 326.563053 262.480605 
L 327.518646 262.480605 
L 327.660788 263.270612 
L 328.655023 263.270612 
L 328.780985 264.060619 
L 329.743709 264.060619 
L 329.883746 264.850626 
L 330.868045 264.850626 
L 331.066006 265.640633 
L 331.966663 265.640633 
L 332.069248 266.430639 
L 334.137423 266.430639 
L 334.275955 267.220646 
L 335.205932 267.220646 
L 335.369859 268.010653 
L 336.372361 268.010653 
L 336.435557 268.80066 
L 337.409405 268.80066 
L 337.583066 269.590667 
L 338.527756 269.590667 
L 338.694163 270.380674 
L 339.639693 270.380674 
L 339.804141 271.17068 
L 341.892004 271.17068 
L 342.069827 271.960687 
L 342.984935 271.960687 
L 343.11661 272.750694 
L 344.087184 272.750694 
L 344.216234 273.540701 
L 345.20146 273.540701 
L 345.297959 274.330708 
L 346.259269 274.330708 
L 346.448744 275.120715 
L 347.389558 275.120715 
L 347.558087 275.910721 
L 349.659754 275.910721 
L 349.776704 276.700728 
L 350.774587 276.700728 
L 350.891048 277.490735 
L 351.879649 277.490735 
L 351.980846 278.280742 
L 352.982779 278.280742 
L 353.103713 279.070749 
L 354.128076 279.070749 
L 354.27851 279.860756 
L 355.252314 279.860756 
L 355.363841 280.650762 
L 357.496688 280.650762 
L 357.627897 281.440769 
L 358.617 281.440769 
L 358.750357 282.230776 
L 359.73606 282.230776 
L 359.856243 283.020783 
L 360.864763 283.020783 
L 361.025392 283.81079 
L 361.950908 283.81079 
L 362.131243 284.600797 
L 363.151717 284.600797 
L 363.273614 285.390803 
L 365.432375 285.390803 
L 365.536566 286.18081 
L 366.565564 286.18081 
L 366.669326 286.970817 
L 367.71307 286.970817 
L 367.842968 287.760824 
L 368.857741 287.760824 
L 369.003286 288.550831 
L 369.993587 288.550831 
L 370.146084 289.340838 
L 371.14238 289.340838 
L 371.256492 290.130845 
L 373.414149 290.130845 
L 373.576104 290.920851 
L 374.596324 290.920851 
L 374.731142 291.710858 
L 375.767038 291.710858 
L 375.88822 292.500865 
L 376.93033 292.500865 
L 376.999238 293.290872 
L 378.094698 293.290872 
L 378.194194 294.080879 
L 379.248675 294.080879 
L 379.366794 294.870886 
L 398.48424 294.870886 
L 398.48424 294.870886 
" clip-path="url(#pe4122f04f3)" style="fill: none; stroke: #ff7f0e; stroke-width: 1.5; stroke-linecap: square"/>
    <defs>
     <path id="m76c9c5290d" d="M 0 3 
C 0.795609 3 1.55874 2.683901 2.12132 2.12132 
C 2.683901 1.55874 3 0.795609 3 0 
C 3 -0.795609 2.683901 -1.55874 2.12132 -2.12132 
C 1.55874 -2.683901 0.795609 -3 0 -3 
C -0.795609 -3 -1.55874 -2.683901 -2.12132 -2.12132 
C -2.683901 -1.55874 -3 -0.795609 -3 0 
C -3 0.795609 -2.683901 1.55874 -2.12132 2.12132 
C -1.55874 2.683901 -0.795609 3 0 3 
z
" style="stroke: #ff7f0e"/>
    </defs>
    <g clip-path="url(#pe4122f04f3)">
     <use xlink:href="#m76c9c5290d" x="73.83329" y="53.9188" style="fill-opacity: 0; stroke: #ff7f0e"/>
     <use xlink:href="#m76c9c5290d" x="98.438175" y="110.799292" style="fill-opacity: 0; stroke: #ff7f0e"/>
     <use xlink:href="#m76c9c5290d" x="122.202928" y="145.559593" style="fill-opacity: 0; stroke: #ff7f0e"/>
     <use xlink:href="#m76c9c5290d" x="146.73646" y="170.839812" style="fill-opacity: 0; stroke: #ff7f0e"/>
     <use xlink:href="#m76c9c5290d" x="172.384226" y="188.219962" style="fill-opacity: 0; stroke: #ff7f0e"/>
     <use xlink:href="#m76c9c5290d" x="196.975387" y="200.070065" style="fill-opacity: 0; stroke: #ff7f0e"/>
     <use xlink:href="#m76c9c5290d" x="221.048316" y="209.550147" style="fill-opacity: 0; stroke: #ff7f0e"/>
     <use xlink:href="#m76c9c5290d" x="245.649865" y="219.030229" style="fill-opacity: 0; stroke: #ff7f0e"/>
     <use xlink:href="#m76c9c5290d" x="270.558825" y="230.090325" style="fill-opacity: 0; stroke: #ff7f0e"/>
     <use xlink:href="#m76c9c5290d" x="294.226793" y="242.730434" style="fill-opacity: 0; stroke: #ff7f0e"/>
     <use xlink:href="#m76c9c5290d" x="319.065859" y="257.740564" style="fill-opacity: 0; stroke: #ff7f0e"/>
     <use xlink:href="#m76c9c5290d" x="342.069827" y="271.960687" style="fill-opacity: 0; stroke: #ff7f0e"/>
     <use xlink:href="#m76c9c5290d" x="365.822969" y="286.18081" style="fill-opacity: 0; stroke: #ff7f0e"/>
     <use xlink:href="#m76c9c5290d" x="390.810051" y="294.870886" style="fill-opacity: 0; stroke: #ff7f0e"/>
    </g>
   </g>
   <g id="patch_3">
    <path d="M 57.6 307.584 
L 57.6 41.472 
" style="fill: none; stroke: #000000; stroke-width: 0.8; stroke-linejoin: miter; stroke-linecap: square"/>
   </g>
   <g id="patch_4">
    <path d="M 414.72 307.584 
L 414.72 41.472 
" style="fill: none; stroke: #000000; stroke-width: 0.8; stroke-linejoin: miter; stroke-linecap: square"/>
   </g>
   <g id="patch_5">
    <path d="M 57.6 307.584 
L 414.72 307.584 
" style="fill: none; stroke: #000000; stroke-width: 0.8; stroke-linejoin: miter; stroke-linecap: square"/>
   </g>
   <g id="patch_6">
    <path d="M 57.6 41.472 
L 414.72 41.472 
" style="fill: none; stroke: #000000; stroke-width: 0.8; stroke-linejoin: miter; stroke-linecap: square"/>
   </g>
   <g id="legend_1">
    <g id="patch_7">
     <path d="M 272.42625 78.82825 
L 407.72 78.82825 
Q 409.72 78.82825 409.72 76.82825 
L 409.72 48.472 
Q 409.72 46.472 407.72 46.472 
L 272.42625 46.472 
Q 270.42625 46.472 270.42625 48.472 
L 270.42625 76.82825 
Q 270.42625 78.82825 272.42625 78.82825 
z
" style="fill: #ffffff; opacity: 0.8; stroke: #cccccc; stroke-linejoin: miter"/>
    </g>
    <g id="line2d_19">
     <path d="M 274.42625 54.570437 
L 284.42625 54.570437 
L 294.42625 54.570437 
" style="fill: none; stroke: #1f77b4; stroke-width: 1.5; stroke-linecap: square"/>
     <g>
      <use xlink:href="#m85d9b61de8" x="284.42625" y="54.570437" style="fill: #1f77b4; stroke: #1f77b4"/>
     </g>
    </g>
    <g id="text_19">
     <!-- heterogeneous price -->
     <g transform="translate(302.42625 58.070437) scale(0.1 -0.1)">
      <defs>
       <path id="DejaVuSans-68" d="M 3513 2113 
L 3513 0 
L 2938 0 
L 2938 2094 
Q 2938 2591 2744 2837 
Q 2550 3084 2163 3084 
Q 1697 3084 1428 2787 
Q 1159 2491 1159 1978 
L 1159 0 
L 581 0 
L 581 4863 
L 1159 4863 
L 1159 2956 
Q 1366 3272 1645 3428 
Q 1925 3584 2291 3584 
Q 2894 3584 3203 3211 
Q 3513 2838 3513 2113 
z
" transform="scale(0.015625)"/>
       <path id="DejaVuSans-74" d="M 1172 4494 
L 1172 3500 
L 2356 3500 
L 2356 3053 
L 1172 3053 
L 1172 1153 
Q 1172 725 1289 603 
Q 1406 481 1766 481 
L 2356 481 
L 2356 0 
L 1766 0 
Q 1100 0 847 248 
Q 594 497 594 1153 
L 594 3053 
L 172 3053 
L 172 3500 
L 594 3500 
L 594 4494 
L 1172 4494 
z
" transform="scale(0.015625)"/>
       <path id="DejaVuSans-6f" d="M 1959 3097 
Q 1497 3097 1228 2736 
Q 959 2375 959 1747 
Q 959 1119 1226 758 
Q 1494 397 1959 397 
Q 2419 397 2687 759 
Q 2956 1122 2956 1747 
Q 2956 2369 2687 2733 
Q 2419 3097 1959 3097 
z
M 1959 3584 
Q 2709 3584 3137 3096 
Q 3566 2609 3566 1747 
Q 3566 888 3137 398 
Q 2709 -91 1959 -91 
Q 1206 -91 779 398 
Q 353 888 353 1747 
Q 353 2609 779 3096 
Q 1206 3584 1959 3584 
z
" transform="scale(0.015625)"/>
       <path id="DejaVuSans-6e" d="M 3513 2113 
L 3513 0 
L 2938 0 
L 2938 2094 
Q 2938 2591 2744 2837 
Q 2550 3084 2163 3084 
Q 1697 3084 1428 2787 
Q 1159 2491 1159 1978 
L 1159 0 
L 581 0 
L 581 3500 
L 1159 3500 
L 1159 2956 
Q 1366 3272 1645 3428 
Q 1925 3584 2291 3584 
Q 2894 3584 3203 3211 
Q 3513 2838 3513 2113 
z
" transform="scale(0.015625)"/>
       <path id="DejaVuSans-75" d="M 544 1381 
L 544 3500 
L 1119 3500 
L 1119 1403 
Q 1119 906 1312 657 
Q 1506 409 1894 409 
Q 2359 409 2629 706 
Q 2900 1003 2900 1516 
L 2900 3500 
L 3475 3500 
L 3475 0 
L 2900 0 
L 2900 538 
Q 2691 219 2414 64 
Q 2138 -91 1772 -91 
Q 1169 -91 856 284 
Q 544 659 544 1381 
z
M 1991 3584 
L 1991 3584 
z
" transform="scale(0.015625)"/>
       <path id="DejaVuSans-73" d="M 2834 3397 
L 2834 2853 
Q 2591 2978 2328 3040 
Q 2066 3103 1784 3103 
Q 1356 3103 1142 2972 
Q 928 2841 928 2578 
Q 928 2378 1081 2264 
Q 1234 2150 1697 2047 
L 1894 2003 
Q 2506 1872 2764 1633 
Q 3022 1394 3022 966 
Q 3022 478 2636 193 
Q 2250 -91 1575 -91 
Q 1294 -91 989 -36 
Q 684 19 347 128 
L 347 722 
Q 666 556 975 473 
Q 1284 391 1588 391 
Q 1994 391 2212 530 
Q 2431 669 2431 922 
Q 2431 1156 2273 1281 
Q 2116 1406 1581 1522 
L 1381 1569 
Q 847 1681 609 1914 
Q 372 2147 372 2553 
Q 372 3047 722 3315 
Q 1072 3584 1716 3584 
Q 2034 3584 2315 3537 
Q 2597 3491 2834 3397 
z
" transform="scale(0.015625)"/>
       <path id="DejaVuSans-70" d="M 1159 525 
L 1159 -1331 
L 581 -1331 
L 581 3500 
L 1159 3500 
L 1159 2969 
Q 1341 3281 1617 3432 
Q 1894 3584 2278 3584 
Q 2916 3584 3314 3078 
Q 3713 2572 3713 1747 
Q 3713 922 3314 415 
Q 2916 -91 2278 -91 
Q 1894 -91 1617 61 
Q 1341 213 1159 525 
z
M 3116 1747 
Q 3116 2381 2855 2742 
Q 2594 3103 2138 3103 
Q 1681 3103 1420 2742 
Q 1159 2381 1159 1747 
Q 1159 1113 1420 752 
Q 1681 391 2138 391 
Q 2594 391 2855 752 
Q 3116 1113 3116 1747 
z
" transform="scale(0.015625)"/>
      </defs>
      <use xlink:href="#DejaVuSans-68"/>
      <use xlink:href="#DejaVuSans-65" x="63.378906"/>
      <use xlink:href="#DejaVuSans-74" x="124.902344"/>
      <use xlink:href="#DejaVuSans-65" x="164.111328"/>
      <use xlink:href="#DejaVuSans-72" x="225.634766"/>
      <use xlink:href="#DejaVuSans-6f" x="264.498047"/>
      <use xlink:href="#DejaVuSans-67" x="325.679688"/>
      <use xlink:href="#DejaVuSans-65" x="389.15625"/>
      <use xlink:href="#DejaVuSans-6e" x="450.679688"/>
      <use xlink:href="#DejaVuSans-65" x="514.058594"/>
      <use xlink:href="#DejaVuSans-6f" x="575.582031"/>
      <use xlink:href="#DejaVuSans-75" x="636.763672"/>
      <use xlink:href="#DejaVuSans-73" x="700.142578"/>
      <use xlink:href="#DejaVuSans-20" x="752.242188"/>
      <use xlink:href="#DejaVuSans-70" x="784.029297"/>
      <use xlink:href="#DejaVuSans-72" x="847.505859"/>
      <use xlink:href="#DejaVuSans-69" x="888.619141"/>
      <use xlink:href="#DejaVuSans-63" x="916.402344"/>
      <use xlink:href="#DejaVuSans-65" x="971.382812"/>
     </g>
    </g>
    <g id="line2d_20">
     <path d="M 274.42625 69.248562 
L 284.42625 69.248562 
L 294.42625 69.248562 
" style="fill: none; stroke: #ff7f0e; stroke-width: 1.5; stroke-linecap: square"/>
     <g>
      <use xlink:href="#m76c9c5290d" x="284.42625" y="69.248562" style="fill-opacity: 0; stroke: #ff7f0e"/>
     </g>
    </g>
    <g id="text_20">
     <!-- constant price -->
     <g transform="translate(302.42625 72.748562) scale(0.1 -0.1)">
      <defs>
       <path id="DejaVuSans-61" d="M 2194 1759 
Q 1497 1759 1228 1600 
Q 959 1441 959 1056 
Q 959 750 1161 570 
Q 1363 391 1709 391 
Q 2188 391 2477 730 
Q 2766 1069 2766 1631 
L 2766 1759 
L 2194 1759 
z
M 3341 1997 
L 3341 0 
L 2766 0 
L 2766 531 
Q 2569 213 2275 61 
Q 1981 -91 1556 -91 
Q 1019 -91 701 211 
Q 384 513 384 1019 
Q 384 1609 779 1909 
Q 1175 2209 1959 2209 
L 2766 2209 
L 2766 2266 
Q 2766 2663 2505 2880 
Q 2244 3097 1772 3097 
Q 1472 3097 1187 3025 
Q 903 2953 641 2809 
L 641 3341 
Q 956 3463 1253 3523 
Q 1550 3584 1831 3584 
Q 2591 3584 2966 3190 
Q 3341 2797 3341 1997 
z
" transform="scale(0.015625)"/>
      </defs>
      <use xlink:href="#DejaVuSans-63"/>
      <use xlink:href="#DejaVuSans-6f" x="54.980469"/>
      <use xlink:href="#DejaVuSans-6e" x="116.162109"/>
      <use xlink:href="#DejaVuSans-73" x="179.541016"/>
      <use xlink:href="#DejaVuSans-74" x="231.640625"/>
      <use xlink:href="#DejaVuSans-61" x="270.849609"/>
      <use xlink:href="#DejaVuSans-6e" x="332.128906"/>
      <use xlink:href="#DejaVuSans-74" x="395.507812"/>
      <use xlink:href="#DejaVuSans-20" x="434.716797"/>
      <use xlink:href="#DejaVuSans-70" x="466.503906"/>
      <use xlink:href="#DejaVuSans-72" x="529.980469"/>
      <use xlink:href="#DejaVuSans-69" x="571.09375"/>
      <use xlink:href="#DejaVuSans-63" x="598.876953"/>
      <use xlink:href="#DejaVuSans-65" x="653.857422"/>
     </g>
    </g>
   </g>
  </g>
 </g>
 <defs>
  <clipPath id="pe4122f04f3">
   <rect x="57.6" y="41.472" width="357.12" height="266.112"/>
  </clipPath>
 </defs>
</svg>
