<?xml version="1.0" encoding="utf-8" standalone="no"?>
<!DOCTYPE svg PUBLIC "-//W3C//DTD SVG 1.1//EN"
  "http://www.w3.org/Graphics/SVG/1.1/DTD/svg11.dtd">
<svg xmlns:xlink="http://www.w3.org/1999/xlink" width="460.8pt" height="345.6pt" viewBox="0 0 460.8 345.6" xmlns="http://www.w3.org/2000/svg" version="1.1">
 <metadata>
  <rdf:RDF xmlns:dc="http://purl.org/dc/elements/1.1/" xmlns:cc="http://creativecommons.org/ns#" xmlns:rdf="http://www.w3.org/1999/02/22-rdf-syntax-ns#">
   <cc:Work>
    <dc:type rdf:resource="http://purl.org/dc/dcmitype/StillImage"/>
    <dc:date>2023-09-08T03:57:58.299148</dc:date>
    <dc:format>image/svg+xml</dc:format>
    <dc:creator>
     <cc:Agent>
      <dc:title>Matplotlib v3.6.0, https://matplotlib.org/</dc:title>
     </cc:Agent>
    </dc:creator>
   </cc:Work>
  </rdf:RDF>
 </metadata>
 <defs>
  <style type="text/css">*{stroke-linejoin: round; stroke-linecap: butt}</style>
 </defs>
 <g id="figure_1">
  <g id="patch_1">
   <path d="M 0 345.6 
L 460.8 345.6 
L 460.8 0 
L 0 0 
z
" style="fill: #ffffff"/>
  </g>
  <g id="axes_1">
   <g id="patch_2">
    <path d="M 57.6 307.584 
L 414.72 307.584 
L 414.72 41.472 
L 57.6 41.472 
z
" style="fill: #ffffff"/>
   </g>
   <g id="matplotlib.axis_1">
    <g id="xtick_1">
     <g id="line2d_1">
      <defs>
       <path id="mb7f625165a" d="M 0 0 
L 0 3.5 
" style="stroke: #000000; stroke-width: 0.8"/>
      </defs>
      <g>
       <use xlink:href="#mb7f625165a" x="73.828734" y="307.584" style="stroke: #000000; stroke-width: 0.8"/>
      </g>
     </g>
     <g id="text_1">
      <!-- 0.2 -->
      <g transform="translate(65.877171 322.182437) scale(0.1 -0.1)">
       <defs>
        <path id="DejaVuSans-30" d="M 2034 4250 
Q 1547 4250 1301 3770 
Q 1056 3291 1056 2328 
Q 1056 1369 1301 889 
Q 1547 409 2034 409 
Q 2525 409 2770 889 
Q 3016 1369 3016 2328 
Q 3016 3291 2770 3770 
Q 2525 4250 2034 4250 
z
M 2034 4750 
Q 2819 4750 3233 4129 
Q 3647 3509 3647 2328 
Q 3647 1150 3233 529 
Q 2819 -91 2034 -91 
Q 1250 -91 836 529 
Q 422 1150 422 2328 
Q 422 3509 836 4129 
Q 1250 4750 2034 4750 
z
" transform="scale(0.015625)"/>
        <path id="DejaVuSans-2e" d="M 684 794 
L 1344 794 
L 1344 0 
L 684 0 
L 684 794 
z
" transform="scale(0.015625)"/>
        <path id="DejaVuSans-32" d="M 1228 531 
L 3431 531 
L 3431 0 
L 469 0 
L 469 531 
Q 828 903 1448 1529 
Q 2069 2156 2228 2338 
Q 2531 2678 2651 2914 
Q 2772 3150 2772 3378 
Q 2772 3750 2511 3984 
Q 2250 4219 1831 4219 
Q 1534 4219 1204 4116 
Q 875 4013 500 3803 
L 500 4441 
Q 881 4594 1212 4672 
Q 1544 4750 1819 4750 
Q 2544 4750 2975 4387 
Q 3406 4025 3406 3419 
Q 3406 3131 3298 2873 
Q 3191 2616 2906 2266 
Q 2828 2175 2409 1742 
Q 1991 1309 1228 531 
z
" transform="scale(0.015625)"/>
       </defs>
       <use xlink:href="#DejaVuSans-30"/>
       <use xlink:href="#DejaVuSans-2e" x="63.623047"/>
       <use xlink:href="#DejaVuSans-32" x="95.410156"/>
      </g>
     </g>
    </g>
    <g id="xtick_2">
     <g id="line2d_2">
      <g>
       <use xlink:href="#mb7f625165a" x="114.41117" y="307.584" style="stroke: #000000; stroke-width: 0.8"/>
      </g>
     </g>
     <g id="text_2">
      <!-- 0.3 -->
      <g transform="translate(106.459607 322.182437) scale(0.1 -0.1)">
       <defs>
        <path id="DejaVuSans-33" d="M 2597 2516 
Q 3050 2419 3304 2112 
Q 3559 1806 3559 1356 
Q 3559 666 3084 287 
Q 2609 -91 1734 -91 
Q 1441 -91 1130 -33 
Q 819 25 488 141 
L 488 750 
Q 750 597 1062 519 
Q 1375 441 1716 441 
Q 2309 441 2620 675 
Q 2931 909 2931 1356 
Q 2931 1769 2642 2001 
Q 2353 2234 1838 2234 
L 1294 2234 
L 1294 2753 
L 1863 2753 
Q 2328 2753 2575 2939 
Q 2822 3125 2822 3475 
Q 2822 3834 2567 4026 
Q 2313 4219 1838 4219 
Q 1578 4219 1281 4162 
Q 984 4106 628 3988 
L 628 4550 
Q 988 4650 1302 4700 
Q 1616 4750 1894 4750 
Q 2613 4750 3031 4423 
Q 3450 4097 3450 3541 
Q 3450 3153 3228 2886 
Q 3006 2619 2597 2516 
z
" transform="scale(0.015625)"/>
       </defs>
       <use xlink:href="#DejaVuSans-30"/>
       <use xlink:href="#DejaVuSans-2e" x="63.623047"/>
       <use xlink:href="#DejaVuSans-33" x="95.410156"/>
      </g>
     </g>
    </g>
    <g id="xtick_3">
     <g id="line2d_3">
      <g>
       <use xlink:href="#mb7f625165a" x="154.993605" y="307.584" style="stroke: #000000; stroke-width: 0.8"/>
      </g>
     </g>
     <g id="text_3">
      <!-- 0.4 -->
      <g transform="translate(147.042043 322.182437) scale(0.1 -0.1)">
       <defs>
        <path id="DejaVuSans-34" d="M 2419 4116 
L 825 1625 
L 2419 1625 
L 2419 4116 
z
M 2253 4666 
L 3047 4666 
L 3047 1625 
L 3713 1625 
L 3713 1100 
L 3047 1100 
L 3047 0 
L 2419 0 
L 2419 1100 
L 313 1100 
L 313 1709 
L 2253 4666 
z
" transform="scale(0.015625)"/>
       </defs>
       <use xlink:href="#DejaVuSans-30"/>
       <use xlink:href="#DejaVuSans-2e" x="63.623047"/>
       <use xlink:href="#DejaVuSans-34" x="95.410156"/>
      </g>
     </g>
    </g>
    <g id="xtick_4">
     <g id="line2d_4">
      <g>
       <use xlink:href="#mb7f625165a" x="195.576041" y="307.584" style="stroke: #000000; stroke-width: 0.8"/>
      </g>
     </g>
     <g id="text_4">
      <!-- 0.5 -->
      <g transform="translate(187.624478 322.182437) scale(0.1 -0.1)">
       <defs>
        <path id="DejaVuSans-35" d="M 691 4666 
L 3169 4666 
L 3169 4134 
L 1269 4134 
L 1269 2991 
Q 1406 3038 1543 3061 
Q 1681 3084 1819 3084 
Q 2600 3084 3056 2656 
Q 3513 2228 3513 1497 
Q 3513 744 3044 326 
Q 2575 -91 1722 -91 
Q 1428 -91 1123 -41 
Q 819 9 494 109 
L 494 744 
Q 775 591 1075 516 
Q 1375 441 1709 441 
Q 2250 441 2565 725 
Q 2881 1009 2881 1497 
Q 2881 1984 2565 2268 
Q 2250 2553 1709 2553 
Q 1456 2553 1204 2497 
Q 953 2441 691 2322 
L 691 4666 
z
" transform="scale(0.015625)"/>
       </defs>
       <use xlink:href="#DejaVuSans-30"/>
       <use xlink:href="#DejaVuSans-2e" x="63.623047"/>
       <use xlink:href="#DejaVuSans-35" x="95.410156"/>
      </g>
     </g>
    </g>
    <g id="xtick_5">
     <g id="line2d_5">
      <g>
       <use xlink:href="#mb7f625165a" x="236.158477" y="307.584" style="stroke: #000000; stroke-width: 0.8"/>
      </g>
     </g>
     <g id="text_5">
      <!-- 0.6 -->
      <g transform="translate(228.206914 322.182437) scale(0.1 -0.1)">
       <defs>
        <path id="DejaVuSans-36" d="M 2113 2584 
Q 1688 2584 1439 2293 
Q 1191 2003 1191 1497 
Q 1191 994 1439 701 
Q 1688 409 2113 409 
Q 2538 409 2786 701 
Q 3034 994 3034 1497 
Q 3034 2003 2786 2293 
Q 2538 2584 2113 2584 
z
M 3366 4563 
L 3366 3988 
Q 3128 4100 2886 4159 
Q 2644 4219 2406 4219 
Q 1781 4219 1451 3797 
Q 1122 3375 1075 2522 
Q 1259 2794 1537 2939 
Q 1816 3084 2150 3084 
Q 2853 3084 3261 2657 
Q 3669 2231 3669 1497 
Q 3669 778 3244 343 
Q 2819 -91 2113 -91 
Q 1303 -91 875 529 
Q 447 1150 447 2328 
Q 447 3434 972 4092 
Q 1497 4750 2381 4750 
Q 2619 4750 2861 4703 
Q 3103 4656 3366 4563 
z
" transform="scale(0.015625)"/>
       </defs>
       <use xlink:href="#DejaVuSans-30"/>
       <use xlink:href="#DejaVuSans-2e" x="63.623047"/>
       <use xlink:href="#DejaVuSans-36" x="95.410156"/>
      </g>
     </g>
    </g>
    <g id="xtick_6">
     <g id="line2d_6">
      <g>
       <use xlink:href="#mb7f625165a" x="276.740912" y="307.584" style="stroke: #000000; stroke-width: 0.8"/>
      </g>
     </g>
     <g id="text_6">
      <!-- 0.7 -->
      <g transform="translate(268.78935 322.182437) scale(0.1 -0.1)">
       <defs>
        <path id="DejaVuSans-37" d="M 525 4666 
L 3525 4666 
L 3525 4397 
L 1831 0 
L 1172 0 
L 2766 4134 
L 525 4134 
L 525 4666 
z
" transform="scale(0.015625)"/>
       </defs>
       <use xlink:href="#DejaVuSans-30"/>
       <use xlink:href="#DejaVuSans-2e" x="63.623047"/>
       <use xlink:href="#DejaVuSans-37" x="95.410156"/>
      </g>
     </g>
    </g>
    <g id="xtick_7">
     <g id="line2d_7">
      <g>
       <use xlink:href="#mb7f625165a" x="317.323348" y="307.584" style="stroke: #000000; stroke-width: 0.8"/>
      </g>
     </g>
     <g id="text_7">
      <!-- 0.8 -->
      <g transform="translate(309.371785 322.182437) scale(0.1 -0.1)">
       <defs>
        <path id="DejaVuSans-38" d="M 2034 2216 
Q 1584 2216 1326 1975 
Q 1069 1734 1069 1313 
Q 1069 891 1326 650 
Q 1584 409 2034 409 
Q 2484 409 2743 651 
Q 3003 894 3003 1313 
Q 3003 1734 2745 1975 
Q 2488 2216 2034 2216 
z
M 1403 2484 
Q 997 2584 770 2862 
Q 544 3141 544 3541 
Q 544 4100 942 4425 
Q 1341 4750 2034 4750 
Q 2731 4750 3128 4425 
Q 3525 4100 3525 3541 
Q 3525 3141 3298 2862 
Q 3072 2584 2669 2484 
Q 3125 2378 3379 2068 
Q 3634 1759 3634 1313 
Q 3634 634 3220 271 
Q 2806 -91 2034 -91 
Q 1263 -91 848 271 
Q 434 634 434 1313 
Q 434 1759 690 2068 
Q 947 2378 1403 2484 
z
M 1172 3481 
Q 1172 3119 1398 2916 
Q 1625 2713 2034 2713 
Q 2441 2713 2670 2916 
Q 2900 3119 2900 3481 
Q 2900 3844 2670 4047 
Q 2441 4250 2034 4250 
Q 1625 4250 1398 4047 
Q 1172 3844 1172 3481 
z
" transform="scale(0.015625)"/>
       </defs>
       <use xlink:href="#DejaVuSans-30"/>
       <use xlink:href="#DejaVuSans-2e" x="63.623047"/>
       <use xlink:href="#DejaVuSans-38" x="95.410156"/>
      </g>
     </g>
    </g>
    <g id="xtick_8">
     <g id="line2d_8">
      <g>
       <use xlink:href="#mb7f625165a" x="357.905784" y="307.584" style="stroke: #000000; stroke-width: 0.8"/>
      </g>
     </g>
     <g id="text_8">
      <!-- 0.9 -->
      <g transform="translate(349.954221 322.182437) scale(0.1 -0.1)">
       <defs>
        <path id="DejaVuSans-39" d="M 703 97 
L 703 672 
Q 941 559 1184 500 
Q 1428 441 1663 441 
Q 2288 441 2617 861 
Q 2947 1281 2994 2138 
Q 2813 1869 2534 1725 
Q 2256 1581 1919 1581 
Q 1219 1581 811 2004 
Q 403 2428 403 3163 
Q 403 3881 828 4315 
Q 1253 4750 1959 4750 
Q 2769 4750 3195 4129 
Q 3622 3509 3622 2328 
Q 3622 1225 3098 567 
Q 2575 -91 1691 -91 
Q 1453 -91 1209 -44 
Q 966 3 703 97 
z
M 1959 2075 
Q 2384 2075 2632 2365 
Q 2881 2656 2881 3163 
Q 2881 3666 2632 3958 
Q 2384 4250 1959 4250 
Q 1534 4250 1286 3958 
Q 1038 3666 1038 3163 
Q 1038 2656 1286 2365 
Q 1534 2075 1959 2075 
z
" transform="scale(0.015625)"/>
       </defs>
       <use xlink:href="#DejaVuSans-30"/>
       <use xlink:href="#DejaVuSans-2e" x="63.623047"/>
       <use xlink:href="#DejaVuSans-39" x="95.410156"/>
      </g>
     </g>
    </g>
    <g id="xtick_9">
     <g id="line2d_9">
      <g>
       <use xlink:href="#mb7f625165a" x="398.488219" y="307.584" style="stroke: #000000; stroke-width: 0.8"/>
      </g>
     </g>
     <g id="text_9">
      <!-- 1.0 -->
      <g transform="translate(390.536657 322.182437) scale(0.1 -0.1)">
       <defs>
        <path id="DejaVuSans-31" d="M 794 531 
L 1825 531 
L 1825 4091 
L 703 3866 
L 703 4441 
L 1819 4666 
L 2450 4666 
L 2450 531 
L 3481 531 
L 3481 0 
L 794 0 
L 794 531 
z
" transform="scale(0.015625)"/>
       </defs>
       <use xlink:href="#DejaVuSans-31"/>
       <use xlink:href="#DejaVuSans-2e" x="63.623047"/>
       <use xlink:href="#DejaVuSans-30" x="95.410156"/>
      </g>
     </g>
    </g>
    <g id="text_10">
     <!-- Price -->
     <g transform="translate(223.962344 335.860562) scale(0.1 -0.1)">
      <defs>
       <path id="DejaVuSans-50" d="M 1259 4147 
L 1259 2394 
L 2053 2394 
Q 2494 2394 2734 2622 
Q 2975 2850 2975 3272 
Q 2975 3691 2734 3919 
Q 2494 4147 2053 4147 
L 1259 4147 
z
M 628 4666 
L 2053 4666 
Q 2838 4666 3239 4311 
Q 3641 3956 3641 3272 
Q 3641 2581 3239 2228 
Q 2838 1875 2053 1875 
L 1259 1875 
L 1259 0 
L 628 0 
L 628 4666 
z
" transform="scale(0.015625)"/>
       <path id="DejaVuSans-72" d="M 2631 2963 
Q 2534 3019 2420 3045 
Q 2306 3072 2169 3072 
Q 1681 3072 1420 2755 
Q 1159 2438 1159 1844 
L 1159 0 
L 581 0 
L 581 3500 
L 1159 3500 
L 1159 2956 
Q 1341 3275 1631 3429 
Q 1922 3584 2338 3584 
Q 2397 3584 2469 3576 
Q 2541 3569 2628 3553 
L 2631 2963 
z
" transform="scale(0.015625)"/>
       <path id="DejaVuSans-69" d="M 603 3500 
L 1178 3500 
L 1178 0 
L 603 0 
L 603 3500 
z
M 603 4863 
L 1178 4863 
L 1178 4134 
L 603 4134 
L 603 4863 
z
" transform="scale(0.015625)"/>
       <path id="DejaVuSans-63" d="M 3122 3366 
L 3122 2828 
Q 2878 2963 2633 3030 
Q 2388 3097 2138 3097 
Q 1578 3097 1268 2742 
Q 959 2388 959 1747 
Q 959 1106 1268 751 
Q 1578 397 2138 397 
Q 2388 397 2633 464 
Q 2878 531 3122 666 
L 3122 134 
Q 2881 22 2623 -34 
Q 2366 -91 2075 -91 
Q 1284 -91 818 406 
Q 353 903 353 1747 
Q 353 2603 823 3093 
Q 1294 3584 2113 3584 
Q 2378 3584 2631 3529 
Q 2884 3475 3122 3366 
z
" transform="scale(0.015625)"/>
       <path id="DejaVuSans-65" d="M 3597 1894 
L 3597 1613 
L 953 1613 
Q 991 1019 1311 708 
Q 1631 397 2203 397 
Q 2534 397 2845 478 
Q 3156 559 3463 722 
L 3463 178 
Q 3153 47 2828 -22 
Q 2503 -91 2169 -91 
Q 1331 -91 842 396 
Q 353 884 353 1716 
Q 353 2575 817 3079 
Q 1281 3584 2069 3584 
Q 2775 3584 3186 3129 
Q 3597 2675 3597 1894 
z
M 3022 2063 
Q 3016 2534 2758 2815 
Q 2500 3097 2075 3097 
Q 1594 3097 1305 2825 
Q 1016 2553 972 2059 
L 3022 2063 
z
" transform="scale(0.015625)"/>
      </defs>
      <use xlink:href="#DejaVuSans-50"/>
      <use xlink:href="#DejaVuSans-72" x="58.552734"/>
      <use xlink:href="#DejaVuSans-69" x="99.666016"/>
      <use xlink:href="#DejaVuSans-63" x="127.449219"/>
      <use xlink:href="#DejaVuSans-65" x="182.429688"/>
     </g>
    </g>
   </g>
   <g id="matplotlib.axis_2">
    <g id="ytick_1">
     <g id="line2d_10">
      <defs>
       <path id="md8b0c2de79" d="M 0 0 
L -3.5 0 
" style="stroke: #000000; stroke-width: 0.8"/>
      </defs>
      <g>
       <use xlink:href="#md8b0c2de79" x="57.6" y="298.685371" style="stroke: #000000; stroke-width: 0.8"/>
      </g>
     </g>
     <g id="text_11">
      <!-- 0 -->
      <g transform="translate(44.2375 302.48459) scale(0.1 -0.1)">
       <use xlink:href="#DejaVuSans-30"/>
      </g>
     </g>
    </g>
    <g id="ytick_2">
     <g id="line2d_11">
      <g>
       <use xlink:href="#md8b0c2de79" x="57.6" y="265.722624" style="stroke: #000000; stroke-width: 0.8"/>
      </g>
     </g>
     <g id="text_12">
      <!-- 10 -->
      <g transform="translate(37.875 269.521842) scale(0.1 -0.1)">
       <use xlink:href="#DejaVuSans-31"/>
       <use xlink:href="#DejaVuSans-30" x="63.623047"/>
      </g>
     </g>
    </g>
    <g id="ytick_3">
     <g id="line2d_12">
      <g>
       <use xlink:href="#md8b0c2de79" x="57.6" y="232.759876" style="stroke: #000000; stroke-width: 0.8"/>
      </g>
     </g>
     <g id="text_13">
      <!-- 20 -->
      <g transform="translate(37.875 236.559095) scale(0.1 -0.1)">
       <use xlink:href="#DejaVuSans-32"/>
       <use xlink:href="#DejaVuSans-30" x="63.623047"/>
      </g>
     </g>
    </g>
    <g id="ytick_4">
     <g id="line2d_13">
      <g>
       <use xlink:href="#md8b0c2de79" x="57.6" y="199.797128" style="stroke: #000000; stroke-width: 0.8"/>
      </g>
     </g>
     <g id="text_14">
      <!-- 30 -->
      <g transform="translate(37.875 203.596347) scale(0.1 -0.1)">
       <use xlink:href="#DejaVuSans-33"/>
       <use xlink:href="#DejaVuSans-30" x="63.623047"/>
      </g>
     </g>
    </g>
    <g id="ytick_5">
     <g id="line2d_14">
      <g>
       <use xlink:href="#md8b0c2de79" x="57.6" y="166.83438" style="stroke: #000000; stroke-width: 0.8"/>
      </g>
     </g>
     <g id="text_15">
      <!-- 40 -->
      <g transform="translate(37.875 170.633599) scale(0.1 -0.1)">
       <use xlink:href="#DejaVuSans-34"/>
       <use xlink:href="#DejaVuSans-30" x="63.623047"/>
      </g>
     </g>
    </g>
    <g id="ytick_6">
     <g id="line2d_15">
      <g>
       <use xlink:href="#md8b0c2de79" x="57.6" y="133.871633" style="stroke: #000000; stroke-width: 0.8"/>
      </g>
     </g>
     <g id="text_16">
      <!-- 50 -->
      <g transform="translate(37.875 137.670851) scale(0.1 -0.1)">
       <use xlink:href="#DejaVuSans-35"/>
       <use xlink:href="#DejaVuSans-30" x="63.623047"/>
      </g>
     </g>
    </g>
    <g id="ytick_7">
     <g id="line2d_16">
      <g>
       <use xlink:href="#md8b0c2de79" x="57.6" y="100.908885" style="stroke: #000000; stroke-width: 0.8"/>
      </g>
     </g>
     <g id="text_17">
      <!-- 60 -->
      <g transform="translate(37.875 104.708104) scale(0.1 -0.1)">
       <use xlink:href="#DejaVuSans-36"/>
       <use xlink:href="#DejaVuSans-30" x="63.623047"/>
      </g>
     </g>
    </g>
    <g id="ytick_8">
     <g id="line2d_17">
      <g>
       <use xlink:href="#md8b0c2de79" x="57.6" y="67.946137" style="stroke: #000000; stroke-width: 0.8"/>
      </g>
     </g>
     <g id="text_18">
      <!-- 70 -->
      <g transform="translate(37.875 71.745356) scale(0.1 -0.1)">
       <use xlink:href="#DejaVuSans-37"/>
       <use xlink:href="#DejaVuSans-30" x="63.623047"/>
      </g>
     </g>
    </g>
    <g id="text_19">
     <!-- T -->
     <g transform="translate(31.795313 177.581906) rotate(-90) scale(0.1 -0.1)">
      <defs>
       <path id="DejaVuSans-54" d="M -19 4666 
L 3928 4666 
L 3928 4134 
L 2272 4134 
L 2272 0 
L 1638 0 
L 1638 4134 
L -19 4134 
L -19 4666 
z
" transform="scale(0.015625)"/>
      </defs>
      <use xlink:href="#DejaVuSans-54"/>
     </g>
    </g>
   </g>
   <g id="line2d_18">
    <path d="M 73.856725 61.769042 
L 77.800556 61.769042 
L 77.941147 62.434504 
L 82.689948 62.434504 
L 82.780089 63.13915 
L 87.551484 63.13915 
L 87.650472 63.883211 
L 92.449302 63.883211 
L 92.572861 64.666793 
L 97.239297 64.666793 
L 97.416026 65.489886 
L 102.137502 65.489886 
L 102.286485 66.352367 
L 106.954306 66.352367 
L 107.070866 67.254013 
L 111.700465 67.254013 
L 111.815418 68.194511 
L 116.395284 68.194511 
L 116.518028 69.173465 
L 120.984802 69.173465 
L 121.141779 70.190409 
L 125.588584 70.190409 
L 125.738493 71.244817 
L 130.063582 71.244817 
L 130.200643 72.336111 
L 134.409188 72.336111 
L 134.566535 73.463671 
L 138.775868 73.463671 
L 138.860031 74.626844 
L 143.011612 74.626844 
L 143.139175 75.824952 
L 147.154536 75.824952 
L 147.2979 77.057302 
L 151.18633 77.057302 
L 151.325792 78.323186 
L 155.185324 78.323186 
L 155.23506 79.621895 
L 159.063202 79.621895 
L 159.200955 80.952718 
L 162.85794 80.952718 
L 162.959247 82.31495 
L 166.565805 82.31495 
L 166.708431 83.707898 
L 170.192541 83.707898 
L 170.323402 85.130876 
L 173.738415 85.130876 
L 173.850399 86.58322 
L 177.201413 86.58322 
L 177.306625 88.064278 
L 180.571249 88.064278 
L 180.722703 89.573421 
L 183.921581 89.573421 
L 184.048845 91.110039 
L 187.156979 91.110039 
L 187.284028 92.673547 
L 190.345649 92.673547 
L 190.445567 94.26338 
L 193.473727 94.26338 
L 193.572873 95.878996 
L 196.532442 95.878996 
L 196.640128 97.519878 
L 199.508489 97.519878 
L 199.645945 99.185533 
L 202.466428 99.185533 
L 202.593832 100.875489 
L 205.364974 100.875489 
L 205.481845 102.589299 
L 208.210129 102.589299 
L 208.322765 104.326536 
L 210.995932 104.326536 
L 211.13741 106.086797 
L 213.728198 106.086797 
L 213.890938 107.869701 
L 216.450361 107.869701 
L 216.611559 109.674885 
L 219.120899 109.674885 
L 219.250338 111.502009 
L 221.743919 111.502009 
L 221.891569 113.350749 
L 224.323814 113.350749 
L 224.4758 115.220803 
L 226.902298 115.220803 
L 227.00934 117.111885 
L 229.405164 117.111885 
L 229.566874 119.023725 
L 231.92705 119.023725 
L 232.044856 120.956072 
L 234.382684 120.956072 
L 234.519432 122.908688 
L 236.849386 122.908688 
L 236.97562 124.881351 
L 239.213625 124.881351 
L 239.355099 126.873853 
L 241.639245 126.873853 
L 241.771961 128.886001 
L 244.04524 128.886001 
L 244.159408 130.917611 
L 246.362381 130.917611 
L 246.546757 132.968516 
L 248.728029 132.968516 
L 248.875902 135.038556 
L 251.043056 135.038556 
L 251.176313 137.127585 
L 253.348191 137.127585 
L 253.521377 139.235468 
L 255.663437 139.235468 
L 255.769942 141.362077 
L 257.934746 141.362077 
L 258.058603 143.507295 
L 260.171845 143.507295 
L 260.328483 145.671015 
L 262.409468 145.671015 
L 262.557 147.853137 
L 264.687403 147.853137 
L 264.826732 150.05357 
L 266.934841 150.05357 
L 267.047604 152.27223 
L 269.170012 152.27223 
L 269.252384 154.50904 
L 271.382092 154.50904 
L 271.466045 156.763932 
L 273.604127 156.763932 
L 273.703656 159.036841 
L 275.805792 159.036841 
L 275.973109 161.327713 
L 277.969293 161.327713 
L 278.12275 163.636494 
L 280.192493 163.636494 
L 280.302396 165.963142 
L 282.388811 165.963142 
L 282.501134 168.307616 
L 284.555682 168.307616 
L 284.688263 170.669881 
L 286.761466 170.669881 
L 286.895817 173.049907 
L 288.915788 173.049907 
L 289.049918 175.44767 
L 291.116175 175.44767 
L 291.245377 177.863149 
L 293.2909 177.863149 
L 293.413019 180.296327 
L 295.464208 180.296327 
L 295.594844 182.747192 
L 297.641375 182.747192 
L 297.794405 185.215735 
L 299.823003 185.215735 
L 299.933248 187.70195 
L 301.995508 187.70195 
L 302.085306 190.205838 
L 304.137131 190.205838 
L 304.283151 192.727398 
L 306.288955 192.727398 
L 306.446509 195.266637 
L 308.518595 195.266637 
L 308.62413 197.823562 
L 310.69988 197.823562 
L 310.826494 200.398183 
L 312.867398 200.398183 
L 313.009913 202.990516 
L 315.029286 202.990516 
L 315.174104 205.600575 
L 317.223315 205.600575 
L 317.378111 208.228379 
L 319.442083 208.228379 
L 319.561978 210.873951 
L 321.624405 210.873951 
L 321.725713 213.537313 
L 323.819825 213.537313 
L 323.94883 216.218492 
L 326.006688 216.218492 
L 326.14578 218.917515 
L 328.231404 218.917515 
L 328.355399 221.634413 
L 330.439905 221.634413 
L 330.538137 224.369217 
L 332.612548 224.369217 
L 332.754513 227.121961 
L 334.817698 227.121961 
L 335.005895 229.892682 
L 337.053459 229.892682 
L 337.20131 232.681416 
L 339.293441 232.681416 
L 339.421731 235.488203 
L 341.541014 235.488203 
L 341.647475 238.313084 
L 343.770961 238.313084 
L 343.919326 241.1561 
L 346.021204 241.1561 
L 346.127908 244.017297 
L 348.255342 244.017297 
L 348.402353 246.896719 
L 350.508218 246.896719 
L 350.624539 249.794413 
L 352.740642 249.794413 
L 352.896994 252.710427 
L 355.046918 252.710427 
L 355.161428 255.644811 
L 357.309233 255.644811 
L 357.442933 258.597615 
L 359.569748 258.597615 
L 359.753055 261.568891 
L 361.837328 261.568891 
L 362.020274 264.558692 
L 364.175555 264.558692 
L 364.196261 267.567072 
L 366.452252 267.567072 
L 366.614408 270.594087 
L 368.782046 270.594087 
L 368.887383 273.639792 
L 371.085416 273.639792 
L 371.229912 276.704245 
L 373.413496 276.704245 
L 373.465205 279.787505 
L 375.740845 279.787505 
L 375.909499 282.88963 
L 378.047709 282.88963 
L 378.191219 286.01068 
L 380.417471 286.01068 
L 380.520613 289.150718 
L 382.754054 289.150718 
L 382.866717 292.309803 
L 385.105928 292.309803 
L 385.248352 295.488 
L 398.485918 295.488 
L 398.485918 295.488 
" clip-path="url(#pc07d46226c)" style="fill: none; stroke: #1f77b4; stroke-width: 1.5; stroke-linecap: square"/>
    <defs>
     <path id="m0a4d17a91f" d="M 0 3 
C 0.795609 3 1.55874 2.683901 2.12132 2.12132 
C 2.683901 1.55874 3 0.795609 3 0 
C 3 -0.795609 2.683901 -1.55874 2.12132 -2.12132 
C 1.55874 -2.683901 0.795609 -3 0 -3 
C -0.795609 -3 -1.55874 -2.683901 -2.12132 -2.12132 
C -2.683901 -1.55874 -3 -0.795609 -3 0 
C -3 0.795609 -2.683901 1.55874 -2.12132 2.12132 
C -1.55874 2.683901 -0.795609 3 0 3 
z
" style="stroke: #1f77b4"/>
    </defs>
    <g clip-path="url(#pc07d46226c)">
     <use xlink:href="#m0a4d17a91f" x="73.856725" y="61.769042" style="fill-opacity: 0; stroke: #1f77b4"/>
     <use xlink:href="#m0a4d17a91f" x="98.265601" y="65.489886" style="fill-opacity: 0; stroke: #1f77b4"/>
     <use xlink:href="#m0a4d17a91f" x="122.284685" y="70.190409" style="fill-opacity: 0; stroke: #1f77b4"/>
     <use xlink:href="#m0a4d17a91f" x="147.2979" y="77.057302" style="fill-opacity: 0; stroke: #1f77b4"/>
     <use xlink:href="#m0a4d17a91f" x="171.887697" y="85.130876" style="fill-opacity: 0; stroke: #1f77b4"/>
     <use xlink:href="#m0a4d17a91f" x="196.468629" y="95.878996" style="fill-opacity: 0; stroke: #1f77b4"/>
     <use xlink:href="#m0a4d17a91f" x="220.486883" y="111.502009" style="fill-opacity: 0; stroke: #1f77b4"/>
     <use xlink:href="#m0a4d17a91f" x="244.235805" y="130.917611" style="fill-opacity: 0; stroke: #1f77b4"/>
     <use xlink:href="#m0a4d17a91f" x="268.577041" y="152.27223" style="fill-opacity: 0; stroke: #1f77b4"/>
     <use xlink:href="#m0a4d17a91f" x="292.421626" y="177.863149" style="fill-opacity: 0; stroke: #1f77b4"/>
     <use xlink:href="#m0a4d17a91f" x="317.492394" y="208.228379" style="fill-opacity: 0; stroke: #1f77b4"/>
     <use xlink:href="#m0a4d17a91f" x="341.813033" y="238.313084" style="fill-opacity: 0; stroke: #1f77b4"/>
     <use xlink:href="#m0a4d17a91f" x="366.121192" y="267.567072" style="fill-opacity: 0; stroke: #1f77b4"/>
     <use xlink:href="#m0a4d17a91f" x="390.572061" y="295.488" style="fill-opacity: 0; stroke: #1f77b4"/>
    </g>
   </g>
   <g id="line2d_19">
    <path d="M 73.849928 53.846927 
L 82.937368 53.956181 
L 83.169955 53.965979 
L 92.519683 54.074584 
L 93.150415 54.080579 
L 102.01477 54.185264 
L 102.311313 54.192409 
L 102.720161 54.199631 
L 112.024186 54.309816 
L 112.483054 54.318422 
L 121.218316 54.422826 
L 121.355772 54.43363 
L 129.276389 54.539208 
L 129.366251 54.556475 
L 134.978542 54.643342 
L 135.101742 54.671189 
L 139.256558 54.776826 
L 139.393358 54.821445 
L 143.311998 54.929291 
L 143.442588 54.994315 
L 146.838511 55.068087 
L 146.957713 55.151733 
L 150.621535 55.246464 
L 150.743653 55.353583 
L 151.791545 55.353583 
L 151.927667 55.474471 
L 153.033931 55.474471 
L 153.148657 55.610586 
L 155.999551 55.610586 
L 156.14554 55.763451 
L 157.391737 55.763451 
L 157.491498 55.934645 
L 158.829491 55.934645 
L 158.947567 56.125788 
L 162.025669 56.125788 
L 162.161389 56.33853 
L 163.612524 56.33853 
L 163.693567 56.574531 
L 165.265672 56.574531 
L 165.440723 56.835446 
L 168.693998 56.835446 
L 168.810994 57.122911 
L 170.463651 57.122911 
L 170.601073 57.438521 
L 172.28907 57.438521 
L 172.470583 57.783813 
L 175.894088 57.783813 
L 175.996652 58.160252 
L 177.845351 58.160252 
L 177.948727 58.569217 
L 179.842031 58.569217 
L 179.955168 59.011982 
L 183.544681 59.011982 
L 183.657602 59.489709 
L 185.540688 59.489709 
L 185.725712 60.003438 
L 187.700785 60.003438 
L 187.834572 60.554076 
L 191.456148 60.554076 
L 191.561369 61.142399 
L 193.55055 61.142399 
L 193.643675 61.769042 
L 195.72598 61.769042 
L 195.858502 62.434504 
L 199.457346 62.434504 
L 199.588222 63.13915 
L 201.624099 63.13915 
L 201.729417 63.883211 
L 203.768253 63.883211 
L 203.889135 64.666793 
L 207.439513 64.666793 
L 207.555119 65.489886 
L 209.549625 65.489886 
L 209.651035 66.352367 
L 211.631052 66.352367 
L 211.786709 67.254013 
L 215.231132 67.254013 
L 215.322415 68.194511 
L 217.271615 68.194511 
L 217.399736 69.173465 
L 219.305004 69.173465 
L 219.491427 70.190409 
L 222.742803 70.190409 
L 222.864921 71.244817 
L 224.700731 71.244817 
L 224.829569 72.336111 
L 226.643508 72.336111 
L 226.788111 73.463671 
L 229.940682 73.463671 
L 230.053833 74.626844 
L 231.798976 74.626844 
L 231.925745 75.824952 
L 233.639403 75.824952 
L 233.799825 77.057302 
L 236.761739 77.057302 
L 236.921747 78.323186 
L 238.528913 78.323186 
L 238.648199 79.621895 
L 240.246345 79.621895 
L 240.456155 80.952718 
L 243.283563 80.952718 
L 243.406961 82.31495 
L 244.957403 82.31495 
L 245.029204 83.707898 
L 246.579162 83.707898 
L 246.711762 85.130876 
L 249.440752 85.130876 
L 249.585342 86.58322 
L 251.04254 86.58322 
L 251.15799 88.064278 
L 252.589446 88.064278 
L 252.70288 89.573421 
L 255.302285 89.573421 
L 255.448272 91.110039 
L 256.830751 91.110039 
L 256.941488 92.673547 
L 258.290709 92.673547 
L 258.399569 94.26338 
L 260.926777 94.26338 
L 261.086075 95.878996 
L 262.36388 95.878996 
L 262.483545 97.519878 
L 263.770022 97.519878 
L 263.898575 99.185533 
L 266.334214 99.185533 
L 266.446249 100.875489 
L 267.674141 100.875489 
L 267.788784 102.589299 
L 269.014543 102.589299 
L 269.142437 104.326536 
L 271.512883 104.326536 
L 271.629903 106.086797 
L 272.808964 106.086797 
L 272.908448 107.869701 
L 274.088368 107.869701 
L 274.203294 109.674885 
L 276.518734 109.674885 
L 276.628977 111.502009 
L 277.782502 111.502009 
L 277.929248 113.350749 
L 279.019465 113.350749 
L 279.150563 115.220803 
L 281.388652 115.220803 
L 281.499178 117.111885 
L 282.559744 117.111885 
L 282.7298 119.023725 
L 283.803051 119.023725 
L 283.953741 120.956072 
L 286.154385 120.956072 
L 286.195706 122.908688 
L 287.336194 122.908688 
L 287.461045 124.881351 
L 288.522787 124.881351 
L 288.630447 126.873853 
L 290.803808 126.873853 
L 290.941961 128.886001 
L 291.949006 128.886001 
L 292.094699 130.917611 
L 293.121997 130.917611 
L 293.277767 132.968516 
L 295.383455 132.968516 
L 295.517576 135.038556 
L 296.507803 135.038556 
L 296.695676 137.127585 
L 297.678806 137.127585 
L 297.822712 139.235468 
L 299.883109 139.235468 
L 300.020444 141.362077 
L 301.031154 141.362077 
L 301.164007 143.507295 
L 302.17842 143.507295 
L 302.293592 145.671015 
L 304.307827 145.671015 
L 304.527184 147.853137 
L 305.516369 147.853137 
L 305.64274 150.05357 
L 306.619417 150.05357 
L 306.744228 152.27223 
L 308.827282 152.27223 
L 308.96654 154.50904 
L 309.934381 154.50904 
L 310.045253 156.763932 
L 311.034009 156.763932 
L 311.153525 159.036841 
L 313.239584 159.036841 
L 313.38944 161.327713 
L 314.307656 161.327713 
L 314.465668 163.636494 
L 315.437434 163.636494 
L 315.591913 165.963142 
L 317.646835 165.963142 
L 317.81105 168.307616 
L 318.750056 168.307616 
L 318.856127 170.669881 
L 319.840393 170.669881 
L 319.955648 173.049907 
L 322.010174 173.049907 
L 322.149984 175.44767 
L 323.071389 175.44767 
L 323.309169 177.863149 
L 324.219412 177.863149 
L 324.329304 180.296327 
L 326.417804 180.296327 
L 326.562965 182.747192 
L 327.495449 182.747192 
L 327.63431 185.215735 
L 328.603904 185.215735 
L 328.753125 187.70195 
L 330.815718 187.70195 
L 330.917748 190.205838 
L 331.908746 190.205838 
L 332.03573 192.727398 
L 333.007152 192.727398 
L 333.109956 195.266637 
L 335.21795 195.266637 
L 335.369261 197.823562 
L 336.286692 197.823562 
L 336.446009 200.398183 
L 337.416086 200.398183 
L 337.52782 202.990516 
L 339.630844 202.990516 
L 339.709763 205.600575 
L 340.728652 205.600575 
L 340.835975 208.228379 
L 341.803831 208.228379 
L 341.963305 210.873951 
L 344.052466 210.873951 
L 344.184901 213.537313 
L 345.143298 213.537313 
L 345.295633 216.218492 
L 346.254218 216.218492 
L 346.358909 218.917515 
L 348.430019 218.917515 
L 348.599071 221.634413 
L 349.614685 221.634413 
L 349.719897 224.369217 
L 350.728519 224.369217 
L 350.83446 227.121961 
L 352.944242 227.121961 
L 353.099515 229.892682 
L 354.085709 229.892682 
L 354.251588 232.681416 
L 355.17599 232.681416 
L 355.334781 235.488203 
L 357.465927 235.488203 
L 357.575008 238.313084 
L 358.595094 238.313084 
L 358.725742 241.1561 
L 359.705793 241.1561 
L 359.85739 244.017297 
L 361.993461 244.017297 
L 362.077767 246.896719 
L 363.097113 246.896719 
L 363.24569 249.794413 
L 364.269066 249.794413 
L 364.377644 252.710427 
L 366.549023 252.710427 
L 366.65361 255.644811 
L 367.699588 255.644811 
L 367.813845 258.597615 
L 368.833874 258.597615 
L 368.949944 261.568891 
L 371.145247 261.568891 
L 371.277524 264.558692 
L 372.280861 264.558692 
L 372.388486 267.567072 
L 373.444759 267.567072 
L 373.572309 270.594087 
L 375.712502 270.594087 
L 375.95978 273.639792 
L 376.920491 273.639792 
L 377.020172 276.704245 
L 378.075746 276.704245 
L 378.1271 279.787505 
L 380.422259 279.787505 
L 380.54325 282.88963 
L 381.596442 282.88963 
L 381.706229 286.01068 
L 382.769064 286.01068 
L 382.890779 289.150718 
L 398.449043 289.150718 
L 398.449043 289.150718 
" clip-path="url(#pc07d46226c)" style="fill: none; stroke: #ff7f0e; stroke-width: 1.5; stroke-linecap: square"/>
    <defs>
     <path id="m362a178fa0" d="M -0 3 
L 3 -3 
L -3 -3 
z
" style="stroke: #ff7f0e; stroke-linejoin: miter"/>
    </defs>
    <g clip-path="url(#pc07d46226c)">
     <use xlink:href="#m362a178fa0" x="73.849928" y="53.846927" style="fill-opacity: 0; stroke: #ff7f0e; stroke-linejoin: miter"/>
     <use xlink:href="#m362a178fa0" x="98.394299" y="54.143962" style="fill-opacity: 0; stroke: #ff7f0e; stroke-linejoin: miter"/>
     <use xlink:href="#m362a178fa0" x="123.676907" y="54.456355" style="fill-opacity: 0; stroke: #ff7f0e; stroke-linejoin: miter"/>
     <use xlink:href="#m362a178fa0" x="147.755914" y="55.151733" style="fill-opacity: 0; stroke: #ff7f0e; stroke-linejoin: miter"/>
     <use xlink:href="#m362a178fa0" x="172.720793" y="57.783813" style="fill-opacity: 0; stroke: #ff7f0e; stroke-linejoin: miter"/>
     <use xlink:href="#m362a178fa0" x="196.589104" y="62.434504" style="fill-opacity: 0; stroke: #ff7f0e; stroke-linejoin: miter"/>
     <use xlink:href="#m362a178fa0" x="221.221728" y="70.190409" style="fill-opacity: 0; stroke: #ff7f0e; stroke-linejoin: miter"/>
     <use xlink:href="#m362a178fa0" x="245.341078" y="83.707898" style="fill-opacity: 0; stroke: #ff7f0e; stroke-linejoin: miter"/>
     <use xlink:href="#m362a178fa0" x="269.014543" y="102.589299" style="fill-opacity: 0; stroke: #ff7f0e; stroke-linejoin: miter"/>
     <use xlink:href="#m362a178fa0" x="293.289529" y="132.968516" style="fill-opacity: 0; stroke: #ff7f0e; stroke-linejoin: miter"/>
     <use xlink:href="#m362a178fa0" x="318.262316" y="168.307616" style="fill-opacity: 0; stroke: #ff7f0e; stroke-linejoin: miter"/>
     <use xlink:href="#m362a178fa0" x="342.134169" y="210.873951" style="fill-opacity: 0; stroke: #ff7f0e; stroke-linejoin: miter"/>
     <use xlink:href="#m362a178fa0" x="366.637085" y="255.644811" style="fill-opacity: 0; stroke: #ff7f0e; stroke-linejoin: miter"/>
     <use xlink:href="#m362a178fa0" x="390.701454" y="289.150718" style="fill-opacity: 0; stroke: #ff7f0e; stroke-linejoin: miter"/>
    </g>
   </g>
   <g id="line2d_20">
    <path d="M 73.837218 53.683046 
L 84.628869 53.791269 
L 85.053163 53.798323 
L 96.13063 53.905257 
L 96.406454 53.90969 
L 106.969576 54.017732 
L 108.040641 54.028672 
L 118.919262 54.137328 
L 119.857522 54.150665 
L 131.80343 54.260388 
L 132.34853 54.268379 
L 142.318728 54.372742 
L 143.078314 54.392109 
L 153.042892 54.49425 
L 153.731981 54.508274 
L 161.975649 54.618334 
L 162.319112 54.643342 
L 167.485515 54.737356 
L 167.736 54.776826 
L 170.75353 54.871982 
L 170.945657 54.929291 
L 174.734324 54.994315 
L 174.841907 55.068087 
L 177.248642 55.151733 
L 177.391747 55.246464 
L 179.936694 55.353583 
L 180.041188 55.474471 
L 183.009613 55.474471 
L 183.116702 55.610586 
L 184.469971 55.610586 
L 184.587819 55.763451 
L 185.957479 55.763451 
L 186.074722 55.934645 
L 187.497259 55.934645 
L 187.639197 56.125788 
L 189.083339 56.125788 
L 189.255288 56.33853 
L 192.403421 56.33853 
L 192.51235 56.574531 
L 194.064557 56.574531 
L 194.184231 56.835446 
L 195.786682 56.835446 
L 195.897587 57.122911 
L 197.519161 57.122911 
L 197.628837 57.438521 
L 199.294492 57.438521 
L 199.438379 57.783813 
L 202.807533 57.783813 
L 202.930141 58.160252 
L 204.640331 58.160252 
L 204.766755 58.569217 
L 206.488893 58.569217 
L 206.638632 59.011982 
L 208.399726 59.011982 
L 208.487536 59.489709 
L 210.295564 59.489709 
L 210.394083 60.003438 
L 213.866402 60.003438 
L 213.966905 60.554076 
L 215.786875 60.554076 
L 215.911931 61.142399 
L 217.704849 61.142399 
L 217.825593 61.769042 
L 219.644736 61.769042 
L 219.768017 62.434504 
L 221.57217 62.434504 
L 221.696385 63.13915 
L 225.046927 63.13915 
L 225.164395 63.883211 
L 226.956545 63.883211 
L 227.077831 64.666793 
L 228.839097 64.666793 
L 229.030986 65.489886 
L 230.736223 65.489886 
L 230.835387 66.352367 
L 232.599289 66.352367 
L 232.709883 67.254013 
L 235.904302 67.254013 
L 236.050636 68.194511 
L 237.744301 68.194511 
L 237.917882 69.173465 
L 239.48096 69.173465 
L 239.660082 70.190409 
L 241.313801 70.190409 
L 241.450586 71.244817 
L 243.057844 71.244817 
L 243.197179 72.336111 
L 246.197012 72.336111 
L 246.34032 73.463671 
L 247.8756 73.463671 
L 248.054019 74.626844 
L 249.556177 74.626844 
L 249.699367 75.824952 
L 251.214421 75.824952 
L 251.3089 77.057302 
L 252.812455 77.057302 
L 252.964237 78.323186 
L 255.750508 78.323186 
L 255.867999 79.621895 
L 257.272582 79.621895 
L 257.440351 80.952718 
L 258.824608 80.952718 
L 258.968323 82.31495 
L 260.374313 82.31495 
L 260.537888 83.707898 
L 261.871374 83.707898 
L 261.981269 85.130876 
L 264.568693 85.130876 
L 264.708137 86.58322 
L 266.049752 86.58322 
L 266.15061 88.064278 
L 267.481208 88.064278 
L 267.605111 89.573421 
L 268.877584 89.573421 
L 268.986299 91.110039 
L 270.253847 91.110039 
L 270.348279 92.673547 
L 272.814796 92.673547 
L 272.996099 94.26338 
L 274.115081 94.26338 
L 274.326793 95.878996 
L 275.531425 95.878996 
L 275.65748 97.519878 
L 276.829742 97.519878 
L 276.968416 99.185533 
L 278.151669 99.185533 
L 278.301683 100.875489 
L 280.57882 100.875489 
L 280.738095 102.589299 
L 281.854954 102.589299 
L 281.984422 104.326536 
L 283.149834 104.326536 
L 283.255039 106.086797 
L 284.384787 106.086797 
L 284.491776 107.869701 
L 285.638254 107.869701 
L 285.741877 109.674885 
L 288.007611 109.674885 
L 288.171006 111.502009 
L 289.198734 111.502009 
L 289.355323 113.350749 
L 290.400138 113.350749 
L 290.491452 115.220803 
L 291.610307 115.220803 
L 291.744288 117.111885 
L 292.796105 117.111885 
L 292.91408 119.023725 
L 295.096287 119.023725 
L 295.220287 120.956072 
L 296.27083 120.956072 
L 296.393781 122.908688 
L 297.440933 122.908688 
L 297.588625 124.881351 
L 298.573741 124.881351 
L 298.729118 126.873853 
L 299.726779 126.873853 
L 299.852921 128.886001 
L 302.016648 128.886001 
L 302.095754 130.917611 
L 303.107764 130.917611 
L 303.2425 132.968516 
L 304.292567 132.968516 
L 304.404169 135.038556 
L 305.423121 135.038556 
L 305.534364 137.127585 
L 306.539319 137.127585 
L 306.677293 139.235468 
L 308.77558 139.235468 
L 308.862092 141.362077 
L 309.876281 141.362077 
L 310.030709 143.507295 
L 310.982302 143.507295 
L 311.147207 145.671015 
L 312.123107 145.671015 
L 312.263485 147.853137 
L 313.225157 147.853137 
L 313.340193 150.05357 
L 315.443603 150.05357 
L 315.585286 152.27223 
L 316.552359 152.27223 
L 316.663731 154.50904 
L 317.657273 154.50904 
L 317.801268 156.763932 
L 318.764669 156.763932 
L 318.872826 159.036841 
L 319.863543 159.036841 
L 319.978374 161.327713 
L 322.067777 161.327713 
L 322.210402 163.636494 
L 323.154522 163.636494 
L 323.303878 165.963142 
L 324.264335 165.963142 
L 324.369113 168.307616 
L 325.343961 168.307616 
L 325.473136 170.669881 
L 326.422303 170.669881 
L 326.549611 173.049907 
L 328.655413 173.049907 
L 328.805363 175.44767 
L 329.763728 175.44767 
L 329.859978 177.863149 
L 330.836789 177.863149 
L 330.951147 180.296327 
L 331.94748 180.296327 
L 332.057088 182.747192 
L 333.051997 182.747192 
L 333.162699 185.215735 
L 335.256343 185.215735 
L 335.386443 187.70195 
L 336.348331 187.70195 
L 336.474301 190.205838 
L 337.46405 190.205838 
L 337.556865 192.727398 
L 338.56484 192.727398 
L 338.688143 195.266637 
L 339.645736 195.266637 
L 339.772783 197.823562 
L 341.877949 197.823562 
L 341.988878 200.398183 
L 342.986708 200.398183 
L 343.135321 202.990516 
L 344.087059 202.990516 
L 344.214248 205.600575 
L 345.196172 205.600575 
L 345.31455 208.228379 
L 346.281279 208.228379 
L 346.435703 210.873951 
L 348.524189 210.873951 
L 348.64704 213.537313 
L 349.656468 213.537313 
L 349.785094 216.218492 
L 350.719293 216.218492 
L 350.843696 218.917515 
L 351.881201 218.917515 
L 352.00916 221.634413 
L 352.981537 221.634413 
L 353.119363 224.369217 
L 355.248161 224.369217 
L 355.367099 227.121961 
L 356.374819 227.121961 
L 356.486293 229.892682 
L 357.486869 229.892682 
L 357.611688 232.681416 
L 358.62476 232.681416 
L 358.714857 235.488203 
L 359.745642 235.488203 
L 359.879166 238.313084 
L 362.018796 238.313084 
L 362.127371 241.1561 
L 363.107552 241.1561 
L 363.25621 244.017297 
L 364.286718 244.017297 
L 364.410829 246.896719 
L 365.424116 246.896719 
L 365.538743 249.794413 
L 366.557326 249.794413 
L 366.672555 252.710427 
L 368.845342 252.710427 
L 368.940546 255.644811 
L 369.987681 255.644811 
L 370.09982 258.597615 
L 371.136511 258.597615 
L 371.273824 261.568891 
L 372.301618 261.568891 
L 372.420501 264.558692 
L 373.454828 264.558692 
L 373.580229 267.567072 
L 375.760645 267.567072 
L 375.887993 270.594087 
L 376.925158 270.594087 
L 377.057909 273.639792 
L 378.011385 273.639792 
L 378.214606 276.704245 
L 379.246821 276.704245 
L 379.377006 279.787505 
L 380.424636 279.787505 
L 380.510082 282.88963 
L 398.460382 282.88963 
L 398.460382 282.88963 
" clip-path="url(#pc07d46226c)" style="fill: none; stroke: #2ca02c; stroke-width: 1.5; stroke-linecap: square"/>
    <defs>
     <path id="ma6767d788a" d="M 0 -3 
L -3 3 
L 3 3 
z
" style="stroke: #2ca02c; stroke-linejoin: miter"/>
    </defs>
    <g clip-path="url(#pc07d46226c)">
     <use xlink:href="#ma6767d788a" x="73.837218" y="53.683046" style="fill-opacity: 0; stroke: #2ca02c; stroke-linejoin: miter"/>
     <use xlink:href="#ma6767d788a" x="97.673558" y="53.927803" style="fill-opacity: 0; stroke: #2ca02c; stroke-linejoin: miter"/>
     <use xlink:href="#ma6767d788a" x="121.173281" y="54.157439" style="fill-opacity: 0; stroke: #2ca02c; stroke-linejoin: miter"/>
     <use xlink:href="#ma6767d788a" x="144.913993" y="54.392109" style="fill-opacity: 0; stroke: #2ca02c; stroke-linejoin: miter"/>
     <use xlink:href="#ma6767d788a" x="169.362457" y="54.821445" style="fill-opacity: 0; stroke: #2ca02c; stroke-linejoin: miter"/>
     <use xlink:href="#ma6767d788a" x="193.322148" y="56.574531" style="fill-opacity: 0; stroke: #2ca02c; stroke-linejoin: miter"/>
     <use xlink:href="#ma6767d788a" x="219.124097" y="61.769042" style="fill-opacity: 0; stroke: #2ca02c; stroke-linejoin: miter"/>
     <use xlink:href="#ma6767d788a" x="243.723106" y="72.336111" style="fill-opacity: 0; stroke: #2ca02c; stroke-linejoin: miter"/>
     <use xlink:href="#ma6767d788a" x="268.147784" y="89.573421" style="fill-opacity: 0; stroke: #2ca02c; stroke-linejoin: miter"/>
     <use xlink:href="#ma6767d788a" x="293.026411" y="119.023725" style="fill-opacity: 0; stroke: #2ca02c; stroke-linejoin: miter"/>
     <use xlink:href="#ma6767d788a" x="317.117077" y="154.50904" style="fill-opacity: 0; stroke: #2ca02c; stroke-linejoin: miter"/>
     <use xlink:href="#ma6767d788a" x="341.171756" y="197.823562" style="fill-opacity: 0; stroke: #2ca02c; stroke-linejoin: miter"/>
     <use xlink:href="#ma6767d788a" x="366.262662" y="249.794413" style="fill-opacity: 0; stroke: #2ca02c; stroke-linejoin: miter"/>
     <use xlink:href="#ma6767d788a" x="390.793143" y="282.88963" style="fill-opacity: 0; stroke: #2ca02c; stroke-linejoin: miter"/>
    </g>
   </g>
   <g id="line2d_21">
    <path d="M 73.832727 53.601843 
L 85.735083 53.711301 
L 87.288172 53.726172 
L 99.838813 53.835267 
L 100.15723 53.839123 
L 102.452207 53.862915 
L 114.661261 53.970945 
L 115.57946 53.981011 
L 127.256543 54.086633 
L 128.233209 54.098925 
L 140.564937 54.206933 
L 141.360097 54.221779 
L 154.211113 54.327144 
L 154.715302 54.335988 
L 166.375322 54.444788 
L 166.817826 54.456355 
L 176.071152 54.556475 
L 176.216533 54.575234 
L 183.327087 54.671189 
L 183.465841 54.702347 
L 187.05322 54.776826 
L 187.331456 54.821445 
L 191.036889 54.929291 
L 191.177214 54.994315 
L 195.424752 55.068087 
L 195.537585 55.151733 
L 198.252639 55.246464 
L 198.43416 55.353583 
L 199.814968 55.353583 
L 199.929147 55.474471 
L 201.328236 55.474471 
L 201.4478 55.610586 
L 202.881085 55.610586 
L 202.994644 55.763451 
L 204.428523 55.763451 
L 204.579501 55.934645 
L 206.052285 55.934645 
L 206.217433 56.125788 
L 209.363996 56.125788 
L 209.47559 56.33853 
L 211.032331 56.33853 
L 211.153092 56.574531 
L 212.689789 56.574531 
L 212.830132 56.835446 
L 214.416301 56.835446 
L 214.51583 57.122911 
L 216.132419 57.122911 
L 216.296104 57.438521 
L 217.855611 57.438521 
L 218.00328 57.783813 
L 219.632206 57.783813 
L 219.761707 58.160252 
L 221.411034 58.160252 
L 221.505899 58.569217 
L 223.188667 58.569217 
L 223.296644 59.011982 
L 226.621652 59.011982 
L 226.760061 59.489709 
L 228.425504 59.489709 
L 228.543759 60.003438 
L 230.213783 60.003438 
L 230.29834 60.554076 
L 232.003116 60.554076 
L 232.080054 61.142399 
L 233.768056 61.142399 
L 233.905514 61.769042 
L 235.548167 61.769042 
L 235.715357 62.434504 
L 237.351658 62.434504 
L 237.457606 63.13915 
L 239.116362 63.13915 
L 239.223913 63.883211 
L 240.876015 63.883211 
L 240.997493 64.666793 
L 244.14531 64.666793 
L 244.260495 65.489886 
L 245.864589 65.489886 
L 245.964261 66.352367 
L 247.569539 66.352367 
L 247.721309 67.254013 
L 249.249243 67.254013 
L 249.374376 68.194511 
L 250.904121 68.194511 
L 251.019703 69.173465 
L 252.479675 69.173465 
L 252.712654 70.190409 
L 254.166479 70.190409 
L 254.303608 71.244817 
L 255.788273 71.244817 
L 255.91251 72.336111 
L 257.383803 72.336111 
L 257.564878 73.463671 
L 260.317316 73.463671 
L 260.451907 74.626844 
L 261.865503 74.626844 
L 262.023301 75.824952 
L 263.353139 75.824952 
L 263.507955 77.057302 
L 264.835723 77.057302 
L 265.02447 78.323186 
L 266.337523 78.323186 
L 266.46304 79.621895 
L 267.779887 79.621895 
L 267.945488 80.952718 
L 269.187722 80.952718 
L 269.351474 82.31495 
L 270.655918 82.31495 
L 270.774533 83.707898 
L 272.060975 83.707898 
L 272.177278 85.130876 
L 274.710262 85.130876 
L 274.812207 86.58322 
L 276.065892 86.58322 
L 276.215373 88.064278 
L 277.407869 88.064278 
L 277.515681 89.573421 
L 278.735585 89.573421 
L 278.840243 91.110039 
L 280.052909 91.110039 
L 280.224333 92.673547 
L 281.353639 92.673547 
L 281.44771 94.26338 
L 282.644516 94.26338 
L 282.747318 95.878996 
L 283.90313 95.878996 
L 284.033788 97.519878 
L 285.157924 97.519878 
L 285.3046 99.185533 
L 287.611004 99.185533 
L 287.733431 100.875489 
L 288.853663 100.875489 
L 288.946296 102.589299 
L 290.073833 102.589299 
L 290.218023 104.326536 
L 291.284534 104.326536 
L 291.407018 106.086797 
L 292.485243 106.086797 
L 292.605796 107.869701 
L 293.685569 107.869701 
L 293.841407 109.674885 
L 294.892482 109.674885 
L 295.023513 111.502009 
L 296.07386 111.502009 
L 296.199855 113.350749 
L 297.259032 113.350749 
L 297.362617 115.220803 
L 299.542293 115.220803 
L 299.699516 117.111885 
L 300.710007 117.111885 
L 300.837128 119.023725 
L 301.877369 119.023725 
L 301.982136 120.956072 
L 303.009498 120.956072 
L 303.10205 122.908688 
L 304.167946 122.908688 
L 304.293014 124.881351 
L 305.319854 124.881351 
L 305.41932 126.873853 
L 306.444247 126.873853 
L 306.578252 128.886001 
L 307.592873 128.886001 
L 307.710243 130.917611 
L 308.711665 130.917611 
L 308.827885 132.968516 
L 310.941095 132.968516 
L 311.08086 135.038556 
L 312.051859 135.038556 
L 312.173992 137.127585 
L 313.190855 137.127585 
L 313.307237 139.235468 
L 314.305379 139.235468 
L 314.416089 141.362077 
L 315.392905 141.362077 
L 315.499081 143.507295 
L 316.529882 143.507295 
L 316.681323 145.671015 
L 317.644269 145.671015 
L 317.732546 147.853137 
L 318.739103 147.853137 
L 318.892697 150.05357 
L 319.825241 150.05357 
L 319.953406 152.27223 
L 322.062291 152.27223 
L 322.232547 154.50904 
L 323.162255 154.50904 
L 323.242705 156.763932 
L 324.253926 156.763932 
L 324.408027 159.036841 
L 325.329278 159.036841 
L 325.480591 161.327713 
L 326.448808 161.327713 
L 326.559018 163.636494 
L 327.503296 163.636494 
L 327.687494 165.963142 
L 328.670135 165.963142 
L 328.750891 168.307616 
L 329.746177 168.307616 
L 329.859556 170.669881 
L 330.851813 170.669881 
L 330.989405 173.049907 
L 333.067058 173.049907 
L 333.15728 175.44767 
L 334.166957 175.44767 
L 334.291487 177.863149 
L 335.267078 177.863149 
L 335.371109 180.296327 
L 336.37254 180.296327 
L 336.495425 182.747192 
L 337.478055 182.747192 
L 337.593597 185.215735 
L 338.576313 185.215735 
L 338.725162 187.70195 
L 339.680348 187.70195 
L 339.796708 190.205838 
L 340.780236 190.205838 
L 340.948884 192.727398 
L 341.900841 192.727398 
L 342.00683 195.266637 
L 344.101357 195.266637 
L 344.185414 197.823562 
L 345.187508 197.823562 
L 345.323242 200.398183 
L 346.335134 200.398183 
L 346.445948 202.990516 
L 347.446038 202.990516 
L 347.512266 205.600575 
L 348.556463 205.600575 
L 348.684266 208.228379 
L 349.620523 208.228379 
L 349.708302 210.873951 
L 350.7767 210.873951 
L 350.892047 213.537313 
L 351.864 213.537313 
L 351.950646 216.218492 
L 353.013533 216.218492 
L 353.14071 218.917515 
L 355.250526 218.917515 
L 355.400381 221.634413 
L 356.37574 221.634413 
L 356.495473 224.369217 
L 357.506131 224.369217 
L 357.610537 227.121961 
L 358.606352 227.121961 
L 358.736002 229.892682 
L 359.720722 229.892682 
L 359.879623 232.681416 
L 360.878906 232.681416 
L 361.023012 235.488203 
L 362.02473 235.488203 
L 362.139347 238.313084 
L 363.159585 238.313084 
L 363.237867 241.1561 
L 364.294063 241.1561 
L 364.391238 244.017297 
L 366.566918 244.017297 
L 366.678496 246.896719 
L 367.709123 246.896719 
L 367.841413 249.794413 
L 368.847733 249.794413 
L 368.970487 252.710427 
L 370.006082 252.710427 
L 370.107064 255.644811 
L 371.140321 255.644811 
L 371.265546 258.597615 
L 372.279207 258.597615 
L 372.496761 261.568891 
L 373.462581 261.568891 
L 373.618624 264.558692 
L 374.618251 264.558692 
L 374.732996 267.567072 
L 375.77361 267.567072 
L 375.867936 270.594087 
L 398.478224 270.594087 
L 398.478224 270.594087 
" clip-path="url(#pc07d46226c)" style="fill: none; stroke: #d62728; stroke-width: 1.5; stroke-linecap: square"/>
    <defs>
     <path id="mc6e1c93938" d="M -3 -0 
L 3 3 
L 3 -3 
z
" style="stroke: #d62728; stroke-linejoin: miter"/>
    </defs>
    <g clip-path="url(#pc07d46226c)">
     <use xlink:href="#mc6e1c93938" x="73.832727" y="53.601843" style="fill-opacity: 0; stroke: #d62728; stroke-linejoin: miter"/>
     <use xlink:href="#mc6e1c93938" x="97.867055" y="53.820145" style="fill-opacity: 0; stroke: #d62728; stroke-linejoin: miter"/>
     <use xlink:href="#mc6e1c93938" x="122.054437" y="54.045475" style="fill-opacity: 0; stroke: #d62728; stroke-linejoin: miter"/>
     <use xlink:href="#mc6e1c93938" x="146.267944" y="54.260388" style="fill-opacity: 0; stroke: #d62728; stroke-linejoin: miter"/>
     <use xlink:href="#mc6e1c93938" x="169.69478" y="54.480997" style="fill-opacity: 0; stroke: #d62728; stroke-linejoin: miter"/>
     <use xlink:href="#mc6e1c93938" x="195.067006" y="55.068087" style="fill-opacity: 0; stroke: #d62728; stroke-linejoin: miter"/>
     <use xlink:href="#mc6e1c93938" x="219.563935" y="57.783813" style="fill-opacity: 0; stroke: #d62728; stroke-linejoin: miter"/>
     <use xlink:href="#mc6e1c93938" x="244.14531" y="64.666793" style="fill-opacity: 0; stroke: #d62728; stroke-linejoin: miter"/>
     <use xlink:href="#mc6e1c93938" x="268.588964" y="80.952718" style="fill-opacity: 0; stroke: #d62728; stroke-linejoin: miter"/>
     <use xlink:href="#mc6e1c93938" x="293.403578" y="107.869701" style="fill-opacity: 0; stroke: #d62728; stroke-linejoin: miter"/>
     <use xlink:href="#mc6e1c93938" x="316.904387" y="145.671015" style="fill-opacity: 0; stroke: #d62728; stroke-linejoin: miter"/>
     <use xlink:href="#mc6e1c93938" x="341.82915" y="192.727398" style="fill-opacity: 0; stroke: #d62728; stroke-linejoin: miter"/>
     <use xlink:href="#mc6e1c93938" x="365.930108" y="244.017297" style="fill-opacity: 0; stroke: #d62728; stroke-linejoin: miter"/>
     <use xlink:href="#mc6e1c93938" x="390.052372" y="270.594087" style="fill-opacity: 0; stroke: #d62728; stroke-linejoin: miter"/>
    </g>
   </g>
   <g id="line2d_22">
    <path d="M 73.845315 53.586645 
L 86.428779 53.696934 
L 88.498624 53.717187 
L 100.976752 53.827647 
L 101.307714 53.831442 
L 114.184059 53.941805 
L 114.480764 53.946555 
L 127.242258 54.056949 
L 127.90167 54.068648 
L 141.297356 54.178196 
L 141.604873 54.185264 
L 154.029998 54.292934 
L 154.186738 54.301322 
L 167.132846 54.412328 
L 167.841422 54.422826 
L 177.956167 54.523205 
L 178.287645 54.539208 
L 186.546641 54.643342 
L 186.669065 54.671189 
L 191.702378 54.776826 
L 191.861942 54.821445 
L 195.798872 54.929291 
L 195.916825 54.994315 
L 198.659149 55.068087 
L 198.788003 55.151733 
L 203.242401 55.246464 
L 203.386686 55.353583 
L 204.759935 55.353583 
L 204.909581 55.474471 
L 206.300177 55.474471 
L 206.455085 55.610586 
L 207.885777 55.610586 
L 208.001337 55.763451 
L 209.487483 55.763451 
L 209.610131 55.934645 
L 211.051618 55.934645 
L 211.208376 56.125788 
L 212.76056 56.125788 
L 212.855991 56.33853 
L 214.420702 56.33853 
L 214.548734 56.574531 
L 216.049498 56.574531 
L 216.20534 56.835446 
L 217.796392 56.835446 
L 217.917614 57.122911 
L 219.45156 57.122911 
L 219.62202 57.438521 
L 222.942642 57.438521 
L 223.04973 57.783813 
L 224.682963 57.783813 
L 224.823376 58.160252 
L 226.435934 58.160252 
L 226.545641 58.569217 
L 228.154523 58.569217 
L 228.271898 59.011982 
L 229.932038 59.011982 
L 230.066712 59.489709 
L 231.721231 59.489709 
L 231.844427 60.003438 
L 233.463288 60.003438 
L 233.596205 60.554076 
L 235.203755 60.554076 
L 235.392937 61.142399 
L 237.007567 61.142399 
L 237.095353 61.769042 
L 238.74726 61.769042 
L 238.877199 62.434504 
L 240.50474 62.434504 
L 240.607766 63.13915 
L 243.80873 63.13915 
L 243.951213 63.883211 
L 245.518289 63.883211 
L 245.67295 64.666793 
L 247.214794 64.666793 
L 247.309843 65.489886 
L 248.889764 65.489886 
L 249.017923 66.352367 
L 250.538831 66.352367 
L 250.66776 67.254013 
L 252.202694 67.254013 
L 252.344724 68.194511 
L 253.831003 68.194511 
L 253.946061 69.173465 
L 255.402608 69.173465 
L 255.567487 70.190409 
L 257.040593 70.190409 
L 257.155732 71.244817 
L 258.559197 71.244817 
L 258.73175 72.336111 
L 260.176678 72.336111 
L 260.332378 73.463671 
L 263.06052 73.463671 
L 263.189508 74.626844 
L 264.585423 74.626844 
L 264.704961 75.824952 
L 266.064702 75.824952 
L 266.183795 77.057302 
L 267.546374 77.057302 
L 267.627115 78.323186 
L 268.986808 78.323186 
L 269.13718 79.621895 
L 270.407442 79.621895 
L 270.532868 80.952718 
L 271.817525 80.952718 
L 271.961614 82.31495 
L 273.216886 82.31495 
L 273.336789 83.707898 
L 274.609491 83.707898 
L 274.721295 85.130876 
L 275.96676 85.130876 
L 276.100827 86.58322 
L 277.289901 86.58322 
L 277.459773 88.064278 
L 279.869235 88.064278 
L 280.037577 89.573421 
L 281.201915 89.573421 
L 281.289125 91.110039 
L 282.499939 91.110039 
L 282.635904 92.673547 
L 283.779318 92.673547 
L 283.896001 94.26338 
L 285.056647 94.26338 
L 285.174955 95.878996 
L 286.307952 95.878996 
L 286.427874 97.519878 
L 287.551627 97.519878 
L 287.661875 99.185533 
L 288.775304 99.185533 
L 288.912305 100.875489 
L 290.004084 100.875489 
L 290.142223 102.589299 
L 291.213236 102.589299 
L 291.366433 104.326536 
L 292.460128 104.326536 
L 292.564251 106.086797 
L 294.803089 106.086797 
L 294.942444 107.869701 
L 296.006779 107.869701 
L 296.031452 109.674885 
L 297.194827 109.674885 
L 297.283782 111.502009 
L 298.359348 111.502009 
L 298.483009 113.350749 
L 299.538695 113.350749 
L 299.668766 115.220803 
L 300.664684 115.220803 
L 300.817425 117.111885 
L 301.854264 117.111885 
L 301.97637 119.023725 
L 302.946252 119.023725 
L 303.111786 120.956072 
L 304.155754 120.956072 
L 304.267306 122.908688 
L 305.302983 122.908688 
L 305.408041 124.881351 
L 306.438125 124.881351 
L 306.577409 126.873853 
L 308.688416 126.873853 
L 308.787902 128.886001 
L 309.801549 128.886001 
L 309.943319 130.917611 
L 310.936651 130.917611 
L 311.050743 132.968516 
L 312.056538 132.968516 
L 312.173055 135.038556 
L 313.15982 135.038556 
L 313.311078 137.127585 
L 314.263964 137.127585 
L 314.415261 139.235468 
L 315.416347 139.235468 
L 315.565886 141.362077 
L 316.507163 141.362077 
L 316.66205 143.507295 
L 317.642172 143.507295 
L 317.747594 145.671015 
L 318.747822 145.671015 
L 318.878329 147.853137 
L 319.813572 147.853137 
L 319.971287 150.05357 
L 322.064 150.05357 
L 322.176763 152.27223 
L 323.166243 152.27223 
L 323.26992 154.50904 
L 324.265535 154.50904 
L 324.394194 156.763932 
L 325.370923 156.763932 
L 325.459658 159.036841 
L 326.467434 159.036841 
L 326.603147 161.327713 
L 327.576326 161.327713 
L 327.677596 163.636494 
L 328.662574 163.636494 
L 328.836223 165.963142 
L 329.754971 165.963142 
L 329.900166 168.307616 
L 330.876353 168.307616 
L 331.018929 170.669881 
L 331.978471 170.669881 
L 332.104002 173.049907 
L 333.040112 173.049907 
L 333.212308 175.44767 
L 335.275323 175.44767 
L 335.42341 177.863149 
L 336.385715 177.863149 
L 336.505098 180.296327 
L 337.482006 180.296327 
L 337.586132 182.747192 
L 338.582246 182.747192 
L 338.706601 185.215735 
L 339.689682 185.215735 
L 339.750521 187.70195 
L 340.791157 187.70195 
L 340.961147 190.205838 
L 341.891339 190.205838 
L 341.988306 192.727398 
L 343.001819 192.727398 
L 343.073693 195.266637 
L 344.101209 195.266637 
L 344.219939 197.823562 
L 345.202422 197.823562 
L 345.335532 200.398183 
L 346.332263 200.398183 
L 346.447944 202.990516 
L 348.555399 202.990516 
L 348.658558 205.600575 
L 349.67277 205.600575 
L 349.777076 208.228379 
L 350.775506 208.228379 
L 350.930496 210.873951 
L 351.89401 210.873951 
L 352.026698 213.537313 
L 353.008386 213.537313 
L 353.189087 216.218492 
L 354.135393 216.218492 
L 354.267091 218.917515 
L 355.264266 218.917515 
L 355.307432 221.634413 
L 356.346524 221.634413 
L 356.520741 224.369217 
L 357.508292 224.369217 
L 357.609875 227.121961 
L 358.631068 227.121961 
L 358.697713 229.892682 
L 359.757417 229.892682 
L 359.887611 232.681416 
L 362.024051 232.681416 
L 362.168736 235.488203 
L 363.141356 235.488203 
L 363.264512 238.313084 
L 364.277871 238.313084 
L 364.441952 241.1561 
L 365.426032 241.1561 
L 365.556108 244.017297 
L 366.55262 244.017297 
L 366.639151 246.896719 
L 367.690335 246.896719 
L 367.824836 249.794413 
L 368.824401 249.794413 
L 368.985004 252.710427 
L 369.960602 252.710427 
L 370.164428 255.644811 
L 371.158886 255.644811 
L 371.229144 258.597615 
L 372.302049 258.597615 
L 372.391034 261.568891 
L 373.464231 261.568891 
L 373.588262 264.558692 
L 398.487273 264.558692 
L 398.487273 264.558692 
" clip-path="url(#pc07d46226c)" style="fill: none; stroke: #9467bd; stroke-width: 1.5; stroke-linecap: square"/>
    <defs>
     <path id="mcf34e5519b" d="M 3 0 
L -3 -3 
L -3 3 
z
" style="stroke: #9467bd; stroke-linejoin: miter"/>
    </defs>
    <g clip-path="url(#pc07d46226c)">
     <use xlink:href="#mcf34e5519b" x="73.845315" y="53.586645" style="fill-opacity: 0; stroke: #9467bd; stroke-linejoin: miter"/>
     <use xlink:href="#mcf34e5519b" x="98.395038" y="53.805485" style="fill-opacity: 0; stroke: #9467bd; stroke-linejoin: miter"/>
     <use xlink:href="#mcf34e5519b" x="123.023807" y="54.023176" style="fill-opacity: 0; stroke: #9467bd; stroke-linejoin: miter"/>
     <use xlink:href="#mcf34e5519b" x="147.181083" y="54.23696" style="fill-opacity: 0; stroke: #9467bd; stroke-linejoin: miter"/>
     <use xlink:href="#mcf34e5519b" x="171.155907" y="54.456355" style="fill-opacity: 0; stroke: #9467bd; stroke-linejoin: miter"/>
     <use xlink:href="#mcf34e5519b" x="195.662621" y="54.929291" style="fill-opacity: 0; stroke: #9467bd; stroke-linejoin: miter"/>
     <use xlink:href="#mcf34e5519b" x="220.201775" y="57.438521" style="fill-opacity: 0; stroke: #9467bd; stroke-linejoin: miter"/>
     <use xlink:href="#mcf34e5519b" x="244.449267" y="63.883211" style="fill-opacity: 0; stroke: #9467bd; stroke-linejoin: miter"/>
     <use xlink:href="#mcf34e5519b" x="267.700561" y="78.323186" style="fill-opacity: 0; stroke: #9467bd; stroke-linejoin: miter"/>
     <use xlink:href="#mcf34e5519b" x="292.518865" y="106.086797" style="fill-opacity: 0; stroke: #9467bd; stroke-linejoin: miter"/>
     <use xlink:href="#mcf34e5519b" x="317.029856" y="143.507295" style="fill-opacity: 0; stroke: #9467bd; stroke-linejoin: miter"/>
     <use xlink:href="#mcf34e5519b" x="341.329157" y="190.205838" style="fill-opacity: 0; stroke: #9467bd; stroke-linejoin: miter"/>
     <use xlink:href="#mcf34e5519b" x="365.893732" y="244.017297" style="fill-opacity: 0; stroke: #9467bd; stroke-linejoin: miter"/>
     <use xlink:href="#mcf34e5519b" x="390.480473" y="264.558692" style="fill-opacity: 0; stroke: #9467bd; stroke-linejoin: miter"/>
    </g>
   </g>
   <g id="line2d_23">
    <path d="M 73.866714 53.576166 
L 86.683949 53.685786 
L 88.085217 53.699768 
L 100.891817 53.809108 
L 101.73336 53.820145 
L 114.452437 53.927803 
L 115.673039 53.941805 
L 128.81101 54.051184 
L 129.273472 54.056949 
L 141.589884 54.164285 
L 141.769629 54.171203 
L 154.371237 54.276466 
L 154.619995 54.28465 
L 167.506051 54.392109 
L 168.090746 54.4021 
L 179.562253 54.508274 
L 179.949769 54.523205 
L 186.760439 54.618334 
L 186.846648 54.643342 
L 193.43234 54.737356 
L 193.751938 54.776826 
L 197.557443 54.871982 
L 197.722297 54.929291 
L 200.421653 54.994315 
L 200.564687 55.068087 
L 203.347612 55.151733 
L 203.544737 55.246464 
L 206.429993 55.353583 
L 206.574007 55.474471 
L 209.63965 55.474471 
L 209.848833 55.610586 
L 211.244915 55.610586 
L 211.363672 55.763451 
L 212.86072 55.763451 
L 212.966622 55.934645 
L 214.482789 55.934645 
L 214.574833 56.125788 
L 216.107478 56.125788 
L 216.207338 56.33853 
L 217.809723 56.33853 
L 217.902593 56.574531 
L 219.471282 56.574531 
L 219.595686 56.835446 
L 221.172475 56.835446 
L 221.292118 57.122911 
L 222.878231 57.122911 
L 223.026907 57.438521 
L 224.58002 57.438521 
L 224.760612 57.783813 
L 226.366394 57.783813 
L 226.476872 58.160252 
L 228.10609 58.160252 
L 228.213487 58.569217 
L 229.859075 58.569217 
L 229.982107 59.011982 
L 233.268247 59.011982 
L 233.397811 59.489709 
L 234.976154 59.489709 
L 235.131501 60.003438 
L 236.752683 60.003438 
L 236.910497 60.554076 
L 238.492868 60.554076 
L 238.593202 61.142399 
L 240.226019 61.142399 
L 240.323473 61.769042 
L 241.932135 61.769042 
L 242.039406 62.434504 
L 243.647905 62.434504 
L 243.776115 63.13915 
L 245.365404 63.13915 
L 245.480145 63.883211 
L 247.045234 63.883211 
L 247.199561 64.666793 
L 248.741737 64.666793 
L 248.857841 65.489886 
L 250.406718 65.489886 
L 250.577849 66.352367 
L 252.02832 66.352367 
L 252.160287 67.254013 
L 253.682849 67.254013 
L 253.71757 68.194511 
L 256.758284 68.194511 
L 256.868877 69.173465 
L 258.337458 69.173465 
L 258.442322 70.190409 
L 259.868203 70.190409 
L 260.020961 71.244817 
L 261.446531 71.244817 
L 261.607431 72.336111 
L 262.95169 72.336111 
L 263.08378 73.463671 
L 264.475974 73.463671 
L 264.601271 74.626844 
L 265.958515 74.626844 
L 266.163092 75.824952 
L 267.427729 75.824952 
L 267.497752 77.057302 
L 268.883727 77.057302 
L 269.081509 78.323186 
L 270.236401 78.323186 
L 270.430825 79.621895 
L 271.714853 79.621895 
L 271.822849 80.952718 
L 273.133083 80.952718 
L 273.205803 82.31495 
L 274.513089 82.31495 
L 274.628525 83.707898 
L 277.150021 83.707898 
L 277.270309 85.130876 
L 278.470438 85.130876 
L 278.599747 86.58322 
L 279.818845 86.58322 
L 279.926901 88.064278 
L 281.136256 88.064278 
L 281.263083 89.573421 
L 282.435022 89.573421 
L 282.503622 91.110039 
L 283.702763 91.110039 
L 283.837109 92.673547 
L 284.997831 92.673547 
L 285.162485 94.26338 
L 286.230783 94.26338 
L 286.3451 95.878996 
L 287.498811 95.878996 
L 287.628925 97.519878 
L 288.74451 97.519878 
L 288.892614 99.185533 
L 289.981849 99.185533 
L 290.114831 100.875489 
L 291.194531 100.875489 
L 291.333392 102.589299 
L 292.390954 102.589299 
L 292.565648 104.326536 
L 294.778712 104.326536 
L 294.905491 106.086797 
L 295.980108 106.086797 
L 296.084658 107.869701 
L 297.16501 107.869701 
L 297.287847 109.674885 
L 298.312308 109.674885 
L 298.428243 111.502009 
L 299.515175 111.502009 
L 299.622808 113.350749 
L 300.678998 113.350749 
L 300.779818 115.220803 
L 301.83462 115.220803 
L 301.958051 117.111885 
L 302.994039 117.111885 
L 303.140745 119.023725 
L 304.137844 119.023725 
L 304.244234 120.956072 
L 305.286633 120.956072 
L 305.372543 122.908688 
L 306.404627 122.908688 
L 306.546675 124.881351 
L 307.55037 124.881351 
L 307.685839 126.873853 
L 308.663709 126.873853 
L 308.788093 128.886001 
L 310.930632 128.886001 
L 311.016433 130.917611 
L 312.025914 130.917611 
L 312.155077 132.968516 
L 313.157071 132.968516 
L 313.304273 135.038556 
L 314.289459 135.038556 
L 314.415829 137.127585 
L 315.372855 137.127585 
L 315.517338 139.235468 
L 316.520972 139.235468 
L 316.639334 141.362077 
L 317.608514 141.362077 
L 317.742946 143.507295 
L 318.743108 143.507295 
L 318.817528 145.671015 
L 319.846117 145.671015 
L 319.960507 147.853137 
L 320.947243 147.853137 
L 321.069746 150.05357 
L 322.048315 150.05357 
L 322.188887 152.27223 
L 323.160517 152.27223 
L 323.283945 154.50904 
L 324.269428 154.50904 
L 324.374168 156.763932 
L 326.476396 156.763932 
L 326.602074 159.036841 
L 327.541015 159.036841 
L 327.673308 161.327713 
L 328.662355 161.327713 
L 328.787671 163.636494 
L 329.702382 163.636494 
L 329.899609 165.963142 
L 330.875689 165.963142 
L 330.968148 168.307616 
L 331.953056 168.307616 
L 332.066325 170.669881 
L 333.067829 170.669881 
L 333.189514 173.049907 
L 334.164073 173.049907 
L 334.303836 175.44767 
L 335.278839 175.44767 
L 335.39263 177.863149 
L 336.383252 177.863149 
L 336.533234 180.296327 
L 337.4414 180.296327 
L 337.623645 182.747192 
L 338.584165 182.747192 
L 338.721831 185.215735 
L 339.688793 185.215735 
L 339.813422 187.70195 
L 341.904347 187.70195 
L 342.00958 190.205838 
L 342.979654 190.205838 
L 343.1381 192.727398 
L 344.111064 192.727398 
L 344.243014 195.266637 
L 345.21503 195.266637 
L 345.339457 197.823562 
L 346.339298 197.823562 
L 346.413837 200.398183 
L 347.41956 200.398183 
L 347.561408 202.990516 
L 348.554075 202.990516 
L 348.667321 205.600575 
L 349.665513 205.600575 
L 349.801739 208.228379 
L 350.777867 208.228379 
L 350.894063 210.873951 
L 351.901281 210.873951 
L 352.022159 213.537313 
L 352.976859 213.537313 
L 353.090333 216.218492 
L 354.078781 216.218492 
L 354.223954 218.917515 
L 355.239179 218.917515 
L 355.395859 221.634413 
L 357.485605 221.634413 
L 357.615198 224.369217 
L 358.594034 224.369217 
L 358.787416 227.121961 
L 359.767524 227.121961 
L 359.858004 229.892682 
L 360.867276 229.892682 
L 361.014822 232.681416 
L 361.988241 232.681416 
L 362.119287 235.488203 
L 363.159495 235.488203 
L 363.24665 238.313084 
L 364.281558 238.313084 
L 364.330954 241.1561 
L 365.431401 241.1561 
L 365.550784 244.017297 
L 366.557732 244.017297 
L 366.682242 246.896719 
L 367.718166 246.896719 
L 367.795301 249.794413 
L 368.847926 249.794413 
L 368.968531 252.710427 
L 369.989283 252.710427 
L 370.143991 255.644811 
L 371.156405 255.644811 
L 371.267797 258.597615 
L 398.485378 258.597615 
L 398.485378 258.597615 
" clip-path="url(#pc07d46226c)" style="fill: none; stroke: #8c564b; stroke-width: 1.5; stroke-linecap: square"/>
    <defs>
     <path id="m68a269fd7f" d="M -3 3 
L 3 3 
L 3 -3 
L -3 -3 
z
" style="stroke: #8c564b; stroke-linejoin: miter"/>
    </defs>
    <g clip-path="url(#pc07d46226c)">
     <use xlink:href="#m68a269fd7f" x="73.866714" y="53.576166" style="fill-opacity: 0; stroke: #8c564b; stroke-linejoin: miter"/>
     <use xlink:href="#m68a269fd7f" x="97.816216" y="53.78432" style="fill-opacity: 0; stroke: #8c564b; stroke-linejoin: miter"/>
     <use xlink:href="#m68a269fd7f" x="121.855348" y="53.996459" style="fill-opacity: 0; stroke: #8c564b; stroke-linejoin: miter"/>
     <use xlink:href="#m68a269fd7f" x="145.728694" y="54.206933" style="fill-opacity: 0; stroke: #8c564b; stroke-linejoin: miter"/>
     <use xlink:href="#m68a269fd7f" x="169.476629" y="54.412328" style="fill-opacity: 0; stroke: #8c564b; stroke-linejoin: miter"/>
     <use xlink:href="#m68a269fd7f" x="194.468905" y="54.776826" style="fill-opacity: 0; stroke: #8c564b; stroke-linejoin: miter"/>
     <use xlink:href="#m68a269fd7f" x="219.438639" y="56.574531" style="fill-opacity: 0; stroke: #8c564b; stroke-linejoin: miter"/>
     <use xlink:href="#m68a269fd7f" x="243.672148" y="63.13915" style="fill-opacity: 0; stroke: #8c564b; stroke-linejoin: miter"/>
     <use xlink:href="#m68a269fd7f" x="268.148144" y="77.057302" style="fill-opacity: 0; stroke: #8c564b; stroke-linejoin: miter"/>
     <use xlink:href="#m68a269fd7f" x="291.832066" y="102.589299" style="fill-opacity: 0; stroke: #8c564b; stroke-linejoin: miter"/>
     <use xlink:href="#m68a269fd7f" x="316.714092" y="141.362077" style="fill-opacity: 0; stroke: #8c564b; stroke-linejoin: miter"/>
     <use xlink:href="#m68a269fd7f" x="341.606381" y="187.70195" style="fill-opacity: 0; stroke: #8c564b; stroke-linejoin: miter"/>
     <use xlink:href="#m68a269fd7f" x="366.586556" y="246.896719" style="fill-opacity: 0; stroke: #8c564b; stroke-linejoin: miter"/>
     <use xlink:href="#m68a269fd7f" x="390.452891" y="258.597615" style="fill-opacity: 0; stroke: #8c564b; stroke-linejoin: miter"/>
    </g>
   </g>
   <g id="line2d_24">
    <path d="M 73.858767 53.568 
L 77.246241 53.597436 
L 90.16304 53.708388 
L 90.285783 53.711301 
L 102.996048 53.820145 
L 103.466624 53.823881 
L 116.076202 53.93243 
L 117.74089 53.951347 
L 130.887454 54.056949 
L 131.272509 54.06277 
L 144.058706 54.171203 
L 144.516285 54.178196 
L 157.2967 54.28465 
L 157.757601 54.292934 
L 170.962796 54.4021 
L 171.097373 54.412328 
L 183.442943 54.523205 
L 183.597812 54.539208 
L 190.96016 54.643342 
L 191.087111 54.671189 
L 196.3301 54.776826 
L 196.482595 54.821445 
L 200.584965 54.929291 
L 200.683536 54.994315 
L 205.138802 55.068087 
L 205.242803 55.151733 
L 208.163037 55.246464 
L 208.278631 55.353583 
L 209.723447 55.353583 
L 209.884808 55.474471 
L 211.319341 55.474471 
L 211.456168 55.610586 
L 212.914234 55.610586 
L 213.016029 55.763451 
L 214.539611 55.763451 
L 214.668761 55.934645 
L 216.164996 55.934645 
L 216.290767 56.125788 
L 217.82296 56.125788 
L 217.973437 56.33853 
L 219.482065 56.33853 
L 219.606287 56.574531 
L 221.188244 56.574531 
L 221.335844 56.835446 
L 222.883961 56.835446 
L 222.972857 57.122911 
L 224.588179 57.122911 
L 224.687775 57.438521 
L 226.318164 57.438521 
L 226.434412 57.783813 
L 229.663232 57.783813 
L 229.884415 58.160252 
L 231.460054 58.160252 
L 231.570265 58.569217 
L 233.188209 58.569217 
L 233.332442 59.011982 
L 234.914273 59.011982 
L 235.037392 59.489709 
L 236.644467 59.489709 
L 236.8151 60.003438 
L 238.39063 60.003438 
L 238.493344 60.554076 
L 240.098029 60.554076 
L 240.246565 61.142399 
L 241.836402 61.142399 
L 241.958815 61.769042 
L 243.546399 61.769042 
L 243.645688 62.434504 
L 245.218194 62.434504 
L 245.333258 63.13915 
L 246.871125 63.13915 
L 247.086266 63.883211 
L 248.579622 63.883211 
L 248.710537 64.666793 
L 250.271744 64.666793 
L 250.420007 65.489886 
L 251.918588 65.489886 
L 252.028235 66.352367 
L 253.552146 66.352367 
L 253.658862 67.254013 
L 256.644555 67.254013 
L 256.773546 68.194511 
L 258.200016 68.194511 
L 258.337786 69.173465 
L 259.766259 69.173465 
L 259.90931 70.190409 
L 261.323412 70.190409 
L 261.43538 71.244817 
L 262.852921 71.244817 
L 262.928073 72.336111 
L 264.367689 72.336111 
L 264.495651 73.463671 
L 265.850814 73.463671 
L 265.983222 74.626844 
L 267.310197 74.626844 
L 267.463428 75.824952 
L 268.778257 75.824952 
L 268.929304 77.057302 
L 270.214232 77.057302 
L 270.368482 78.323186 
L 271.630886 78.323186 
L 271.747011 79.621895 
L 273.02203 79.621895 
L 273.138055 80.952718 
L 274.424916 80.952718 
L 274.555786 82.31495 
L 275.769849 82.31495 
L 275.875794 83.707898 
L 277.132574 83.707898 
L 277.262091 85.130876 
L 279.750294 85.130876 
L 279.885318 86.58322 
L 281.05212 86.58322 
L 281.190545 88.064278 
L 282.337342 88.064278 
L 282.495902 89.573421 
L 283.664137 89.573421 
L 283.752288 91.110039 
L 284.926078 91.110039 
L 285.07119 92.673547 
L 286.193248 92.673547 
L 286.340897 94.26338 
L 287.456513 94.26338 
L 287.550974 95.878996 
L 288.689427 95.878996 
L 288.82312 97.519878 
L 289.944578 97.519878 
L 290.077599 99.185533 
L 291.16286 99.185533 
L 291.274646 100.875489 
L 292.373209 100.875489 
L 292.500709 102.589299 
L 293.576972 102.589299 
L 293.694868 104.326536 
L 294.779063 104.326536 
L 294.921131 106.086797 
L 295.939338 106.086797 
L 296.119723 107.869701 
L 297.164802 107.869701 
L 297.28209 109.674885 
L 299.478412 109.674885 
L 299.596512 111.502009 
L 300.559595 111.502009 
L 300.753492 113.350749 
L 301.818543 113.350749 
L 301.91978 115.220803 
L 302.96366 115.220803 
L 303.095094 117.111885 
L 304.11398 117.111885 
L 304.247063 119.023725 
L 305.189018 119.023725 
L 305.364719 120.956072 
L 306.408075 120.956072 
L 306.544496 122.908688 
L 307.539643 122.908688 
L 307.651998 124.881351 
L 308.678052 124.881351 
L 308.762913 126.873853 
L 309.801588 126.873853 
L 309.89722 128.886001 
L 310.930082 128.886001 
L 311.0496 130.917611 
L 312.049777 130.917611 
L 312.178857 132.968516 
L 313.180112 132.968516 
L 313.308768 135.038556 
L 314.296164 135.038556 
L 314.391631 137.127585 
L 315.396249 137.127585 
L 315.464902 139.235468 
L 317.632471 139.235468 
L 317.745578 141.362077 
L 318.724255 141.362077 
L 318.86295 143.507295 
L 319.835141 143.507295 
L 319.967137 145.671015 
L 320.949319 145.671015 
L 321.045086 147.853137 
L 322.059922 147.853137 
L 322.177652 150.05357 
L 323.152842 150.05357 
L 323.268661 152.27223 
L 324.271141 152.27223 
L 324.362867 154.50904 
L 325.368415 154.50904 
L 325.420253 156.763932 
L 326.466716 156.763932 
L 326.60674 159.036841 
L 327.577248 159.036841 
L 327.678521 161.327713 
L 328.673267 161.327713 
L 328.780072 163.636494 
L 329.750954 163.636494 
L 329.880135 165.963142 
L 330.850621 165.963142 
L 331.000874 168.307616 
L 331.974004 168.307616 
L 332.091061 170.669881 
L 333.070283 170.669881 
L 333.200779 173.049907 
L 335.27939 173.049907 
L 335.399336 175.44767 
L 336.386574 175.44767 
L 336.497035 177.863149 
L 337.471738 177.863149 
L 337.589482 180.296327 
L 338.588572 180.296327 
L 338.728191 182.747192 
L 339.687047 182.747192 
L 339.834128 185.215735 
L 340.788358 185.215735 
L 340.938593 187.70195 
L 341.902404 187.70195 
L 342.027816 190.205838 
L 343.003735 190.205838 
L 343.126769 192.727398 
L 344.114349 192.727398 
L 344.226621 195.266637 
L 345.228984 195.266637 
L 345.332282 197.823562 
L 346.337964 197.823562 
L 346.445257 200.398183 
L 347.423199 200.398183 
L 347.562351 202.990516 
L 348.55846 202.990516 
L 348.677268 205.600575 
L 349.67632 205.600575 
L 349.833035 208.228379 
L 350.788845 208.228379 
L 350.910076 210.873951 
L 353.01918 210.873951 
L 353.118691 213.537313 
L 354.125356 213.537313 
L 354.282047 216.218492 
L 355.253138 216.218492 
L 355.274837 218.917515 
L 356.372226 218.917515 
L 356.505717 221.634413 
L 357.512746 221.634413 
L 357.621047 224.369217 
L 358.638445 224.369217 
L 358.740531 227.121961 
L 359.76316 227.121961 
L 359.874636 229.892682 
L 360.892201 229.892682 
L 360.981641 232.681416 
L 361.988444 232.681416 
L 362.130515 235.488203 
L 363.127395 235.488203 
L 363.324113 238.313084 
L 364.297694 238.313084 
L 364.418324 241.1561 
L 365.431114 241.1561 
L 365.524584 244.017297 
L 366.573953 244.017297 
L 366.670848 246.896719 
L 367.712882 246.896719 
L 367.832267 249.794413 
L 368.86428 249.794413 
L 368.975905 252.710427 
L 398.484732 252.710427 
L 398.484732 252.710427 
" clip-path="url(#pc07d46226c)" style="fill: none; stroke: #e377c2; stroke-width: 1.5; stroke-linecap: square"/>
    <defs>
     <path id="m26f6c9b2ac" d="M 0 -3 
L -2.85317 -0.927051 
L -1.763356 2.427051 
L 1.763356 2.427051 
L 2.85317 -0.927051 
z
" style="stroke: #e377c2; stroke-linejoin: miter"/>
    </defs>
    <g clip-path="url(#pc07d46226c)">
     <use xlink:href="#m26f6c9b2ac" x="73.858767" y="53.568" style="fill-opacity: 0; stroke: #e377c2; stroke-linejoin: miter"/>
     <use xlink:href="#m26f6c9b2ac" x="97.812707" y="53.774091" style="fill-opacity: 0; stroke: #e377c2; stroke-linejoin: miter"/>
     <use xlink:href="#m26f6c9b2ac" x="123.436357" y="53.996459" style="fill-opacity: 0; stroke: #e377c2; stroke-linejoin: miter"/>
     <use xlink:href="#m26f6c9b2ac" x="147.705944" y="54.206933" style="fill-opacity: 0; stroke: #e377c2; stroke-linejoin: miter"/>
     <use xlink:href="#m26f6c9b2ac" x="171.704778" y="54.412328" style="fill-opacity: 0; stroke: #e377c2; stroke-linejoin: miter"/>
     <use xlink:href="#m26f6c9b2ac" x="195.006475" y="54.776826" style="fill-opacity: 0; stroke: #e377c2; stroke-linejoin: miter"/>
     <use xlink:href="#m26f6c9b2ac" x="219.606287" y="56.574531" style="fill-opacity: 0; stroke: #e377c2; stroke-linejoin: miter"/>
     <use xlink:href="#m26f6c9b2ac" x="243.965308" y="62.434504" style="fill-opacity: 0; stroke: #e377c2; stroke-linejoin: miter"/>
     <use xlink:href="#m26f6c9b2ac" x="269.071863" y="77.057302" style="fill-opacity: 0; stroke: #e377c2; stroke-linejoin: miter"/>
     <use xlink:href="#m26f6c9b2ac" x="293.68496" y="104.326536" style="fill-opacity: 0; stroke: #e377c2; stroke-linejoin: miter"/>
     <use xlink:href="#m26f6c9b2ac" x="317.404046" y="139.235468" style="fill-opacity: 0; stroke: #e377c2; stroke-linejoin: miter"/>
     <use xlink:href="#m26f6c9b2ac" x="341.571784" y="187.70195" style="fill-opacity: 0; stroke: #e377c2; stroke-linejoin: miter"/>
     <use xlink:href="#m26f6c9b2ac" x="365.690611" y="244.017297" style="fill-opacity: 0; stroke: #e377c2; stroke-linejoin: miter"/>
     <use xlink:href="#m26f6c9b2ac" x="390.500598" y="252.710427" style="fill-opacity: 0; stroke: #e377c2; stroke-linejoin: miter"/>
    </g>
   </g>
   <g id="patch_3">
    <path d="M 57.6 307.584 
L 57.6 41.472 
" style="fill: none; stroke: #000000; stroke-width: 0.8; stroke-linejoin: miter; stroke-linecap: square"/>
   </g>
   <g id="patch_4">
    <path d="M 414.72 307.584 
L 414.72 41.472 
" style="fill: none; stroke: #000000; stroke-width: 0.8; stroke-linejoin: miter; stroke-linecap: square"/>
   </g>
   <g id="patch_5">
    <path d="M 57.6 307.584 
L 414.72 307.584 
" style="fill: none; stroke: #000000; stroke-width: 0.8; stroke-linejoin: miter; stroke-linecap: square"/>
   </g>
   <g id="patch_6">
    <path d="M 57.6 41.472 
L 414.72 41.472 
" style="fill: none; stroke: #000000; stroke-width: 0.8; stroke-linejoin: miter; stroke-linecap: square"/>
   </g>
   <g id="legend_1">
    <g id="patch_7">
     <path d="M 64.6 302.584 
L 172.045312 302.584 
Q 174.045312 302.584 174.045312 300.584 
L 174.045312 196.89025 
Q 174.045312 194.89025 172.045312 194.89025 
L 64.6 194.89025 
Q 62.6 194.89025 62.6 196.89025 
L 62.6 300.584 
Q 62.6 302.584 64.6 302.584 
z
" style="fill: #ffffff; opacity: 0.8; stroke: #cccccc; stroke-linejoin: miter"/>
    </g>
    <g id="line2d_25">
     <path d="M 66.6 202.988687 
L 76.6 202.988687 
L 86.6 202.988687 
" style="fill: none; stroke: #1f77b4; stroke-width: 1.5; stroke-linecap: square"/>
     <g>
      <use xlink:href="#m0a4d17a91f" x="76.6" y="202.988687" style="fill-opacity: 0; stroke: #1f77b4"/>
     </g>
    </g>
    <g id="text_20">
     <!-- n_players = 1 -->
     <g transform="translate(94.6 206.488687) scale(0.1 -0.1)">
      <defs>
       <path id="DejaVuSans-6e" d="M 3513 2113 
L 3513 0 
L 2938 0 
L 2938 2094 
Q 2938 2591 2744 2837 
Q 2550 3084 2163 3084 
Q 1697 3084 1428 2787 
Q 1159 2491 1159 1978 
L 1159 0 
L 581 0 
L 581 3500 
L 1159 3500 
L 1159 2956 
Q 1366 3272 1645 3428 
Q 1925 3584 2291 3584 
Q 2894 3584 3203 3211 
Q 3513 2838 3513 2113 
z
" transform="scale(0.015625)"/>
       <path id="DejaVuSans-5f" d="M 3263 -1063 
L 3263 -1509 
L -63 -1509 
L -63 -1063 
L 3263 -1063 
z
" transform="scale(0.015625)"/>
       <path id="DejaVuSans-70" d="M 1159 525 
L 1159 -1331 
L 581 -1331 
L 581 3500 
L 1159 3500 
L 1159 2969 
Q 1341 3281 1617 3432 
Q 1894 3584 2278 3584 
Q 2916 3584 3314 3078 
Q 3713 2572 3713 1747 
Q 3713 922 3314 415 
Q 2916 -91 2278 -91 
Q 1894 -91 1617 61 
Q 1341 213 1159 525 
z
M 3116 1747 
Q 3116 2381 2855 2742 
Q 2594 3103 2138 3103 
Q 1681 3103 1420 2742 
Q 1159 2381 1159 1747 
Q 1159 1113 1420 752 
Q 1681 391 2138 391 
Q 2594 391 2855 752 
Q 3116 1113 3116 1747 
z
" transform="scale(0.015625)"/>
       <path id="DejaVuSans-6c" d="M 603 4863 
L 1178 4863 
L 1178 0 
L 603 0 
L 603 4863 
z
" transform="scale(0.015625)"/>
       <path id="DejaVuSans-61" d="M 2194 1759 
Q 1497 1759 1228 1600 
Q 959 1441 959 1056 
Q 959 750 1161 570 
Q 1363 391 1709 391 
Q 2188 391 2477 730 
Q 2766 1069 2766 1631 
L 2766 1759 
L 2194 1759 
z
M 3341 1997 
L 3341 0 
L 2766 0 
L 2766 531 
Q 2569 213 2275 61 
Q 1981 -91 1556 -91 
Q 1019 -91 701 211 
Q 384 513 384 1019 
Q 384 1609 779 1909 
Q 1175 2209 1959 2209 
L 2766 2209 
L 2766 2266 
Q 2766 2663 2505 2880 
Q 2244 3097 1772 3097 
Q 1472 3097 1187 3025 
Q 903 2953 641 2809 
L 641 3341 
Q 956 3463 1253 3523 
Q 1550 3584 1831 3584 
Q 2591 3584 2966 3190 
Q 3341 2797 3341 1997 
z
" transform="scale(0.015625)"/>
       <path id="DejaVuSans-79" d="M 2059 -325 
Q 1816 -950 1584 -1140 
Q 1353 -1331 966 -1331 
L 506 -1331 
L 506 -850 
L 844 -850 
Q 1081 -850 1212 -737 
Q 1344 -625 1503 -206 
L 1606 56 
L 191 3500 
L 800 3500 
L 1894 763 
L 2988 3500 
L 3597 3500 
L 2059 -325 
z
" transform="scale(0.015625)"/>
       <path id="DejaVuSans-73" d="M 2834 3397 
L 2834 2853 
Q 2591 2978 2328 3040 
Q 2066 3103 1784 3103 
Q 1356 3103 1142 2972 
Q 928 2841 928 2578 
Q 928 2378 1081 2264 
Q 1234 2150 1697 2047 
L 1894 2003 
Q 2506 1872 2764 1633 
Q 3022 1394 3022 966 
Q 3022 478 2636 193 
Q 2250 -91 1575 -91 
Q 1294 -91 989 -36 
Q 684 19 347 128 
L 347 722 
Q 666 556 975 473 
Q 1284 391 1588 391 
Q 1994 391 2212 530 
Q 2431 669 2431 922 
Q 2431 1156 2273 1281 
Q 2116 1406 1581 1522 
L 1381 1569 
Q 847 1681 609 1914 
Q 372 2147 372 2553 
Q 372 3047 722 3315 
Q 1072 3584 1716 3584 
Q 2034 3584 2315 3537 
Q 2597 3491 2834 3397 
z
" transform="scale(0.015625)"/>
       <path id="DejaVuSans-20" transform="scale(0.015625)"/>
       <path id="DejaVuSans-3d" d="M 678 2906 
L 4684 2906 
L 4684 2381 
L 678 2381 
L 678 2906 
z
M 678 1631 
L 4684 1631 
L 4684 1100 
L 678 1100 
L 678 1631 
z
" transform="scale(0.015625)"/>
      </defs>
      <use xlink:href="#DejaVuSans-6e"/>
      <use xlink:href="#DejaVuSans-5f" x="63.378906"/>
      <use xlink:href="#DejaVuSans-70" x="113.378906"/>
      <use xlink:href="#DejaVuSans-6c" x="176.855469"/>
      <use xlink:href="#DejaVuSans-61" x="204.638672"/>
      <use xlink:href="#DejaVuSans-79" x="265.917969"/>
      <use xlink:href="#DejaVuSans-65" x="325.097656"/>
      <use xlink:href="#DejaVuSans-72" x="386.621094"/>
      <use xlink:href="#DejaVuSans-73" x="427.734375"/>
      <use xlink:href="#DejaVuSans-20" x="479.833984"/>
      <use xlink:href="#DejaVuSans-3d" x="511.621094"/>
      <use xlink:href="#DejaVuSans-20" x="595.410156"/>
      <use xlink:href="#DejaVuSans-31" x="627.197266"/>
     </g>
    </g>
    <g id="line2d_26">
     <path d="M 66.6 217.944937 
L 76.6 217.944937 
L 86.6 217.944937 
" style="fill: none; stroke: #ff7f0e; stroke-width: 1.5; stroke-linecap: square"/>
     <g>
      <use xlink:href="#m362a178fa0" x="76.6" y="217.944937" style="fill-opacity: 0; stroke: #ff7f0e; stroke-linejoin: miter"/>
     </g>
    </g>
    <g id="text_21">
     <!-- n_players = 3 -->
     <g transform="translate(94.6 221.444937) scale(0.1 -0.1)">
      <use xlink:href="#DejaVuSans-6e"/>
      <use xlink:href="#DejaVuSans-5f" x="63.378906"/>
      <use xlink:href="#DejaVuSans-70" x="113.378906"/>
      <use xlink:href="#DejaVuSans-6c" x="176.855469"/>
      <use xlink:href="#DejaVuSans-61" x="204.638672"/>
      <use xlink:href="#DejaVuSans-79" x="265.917969"/>
      <use xlink:href="#DejaVuSans-65" x="325.097656"/>
      <use xlink:href="#DejaVuSans-72" x="386.621094"/>
      <use xlink:href="#DejaVuSans-73" x="427.734375"/>
      <use xlink:href="#DejaVuSans-20" x="479.833984"/>
      <use xlink:href="#DejaVuSans-3d" x="511.621094"/>
      <use xlink:href="#DejaVuSans-20" x="595.410156"/>
      <use xlink:href="#DejaVuSans-33" x="627.197266"/>
     </g>
    </g>
    <g id="line2d_27">
     <path d="M 66.6 232.901187 
L 76.6 232.901187 
L 86.6 232.901187 
" style="fill: none; stroke: #2ca02c; stroke-width: 1.5; stroke-linecap: square"/>
     <g>
      <use xlink:href="#ma6767d788a" x="76.6" y="232.901187" style="fill-opacity: 0; stroke: #2ca02c; stroke-linejoin: miter"/>
     </g>
    </g>
    <g id="text_22">
     <!-- n_players = 5 -->
     <g transform="translate(94.6 236.401187) scale(0.1 -0.1)">
      <use xlink:href="#DejaVuSans-6e"/>
      <use xlink:href="#DejaVuSans-5f" x="63.378906"/>
      <use xlink:href="#DejaVuSans-70" x="113.378906"/>
      <use xlink:href="#DejaVuSans-6c" x="176.855469"/>
      <use xlink:href="#DejaVuSans-61" x="204.638672"/>
      <use xlink:href="#DejaVuSans-79" x="265.917969"/>
      <use xlink:href="#DejaVuSans-65" x="325.097656"/>
      <use xlink:href="#DejaVuSans-72" x="386.621094"/>
      <use xlink:href="#DejaVuSans-73" x="427.734375"/>
      <use xlink:href="#DejaVuSans-20" x="479.833984"/>
      <use xlink:href="#DejaVuSans-3d" x="511.621094"/>
      <use xlink:href="#DejaVuSans-20" x="595.410156"/>
      <use xlink:href="#DejaVuSans-35" x="627.197266"/>
     </g>
    </g>
    <g id="line2d_28">
     <path d="M 66.6 247.857437 
L 76.6 247.857437 
L 86.6 247.857437 
" style="fill: none; stroke: #d62728; stroke-width: 1.5; stroke-linecap: square"/>
     <g>
      <use xlink:href="#mc6e1c93938" x="76.6" y="247.857437" style="fill-opacity: 0; stroke: #d62728; stroke-linejoin: miter"/>
     </g>
    </g>
    <g id="text_23">
     <!-- n_players = 9 -->
     <g transform="translate(94.6 251.357437) scale(0.1 -0.1)">
      <use xlink:href="#DejaVuSans-6e"/>
      <use xlink:href="#DejaVuSans-5f" x="63.378906"/>
      <use xlink:href="#DejaVuSans-70" x="113.378906"/>
      <use xlink:href="#DejaVuSans-6c" x="176.855469"/>
      <use xlink:href="#DejaVuSans-61" x="204.638672"/>
      <use xlink:href="#DejaVuSans-79" x="265.917969"/>
      <use xlink:href="#DejaVuSans-65" x="325.097656"/>
      <use xlink:href="#DejaVuSans-72" x="386.621094"/>
      <use xlink:href="#DejaVuSans-73" x="427.734375"/>
      <use xlink:href="#DejaVuSans-20" x="479.833984"/>
      <use xlink:href="#DejaVuSans-3d" x="511.621094"/>
      <use xlink:href="#DejaVuSans-20" x="595.410156"/>
      <use xlink:href="#DejaVuSans-39" x="627.197266"/>
     </g>
    </g>
    <g id="line2d_29">
     <path d="M 66.6 262.813687 
L 76.6 262.813687 
L 86.6 262.813687 
" style="fill: none; stroke: #9467bd; stroke-width: 1.5; stroke-linecap: square"/>
     <g>
      <use xlink:href="#mcf34e5519b" x="76.6" y="262.813687" style="fill-opacity: 0; stroke: #9467bd; stroke-linejoin: miter"/>
     </g>
    </g>
    <g id="text_24">
     <!-- n_players = 11 -->
     <g transform="translate(94.6 266.313687) scale(0.1 -0.1)">
      <use xlink:href="#DejaVuSans-6e"/>
      <use xlink:href="#DejaVuSans-5f" x="63.378906"/>
      <use xlink:href="#DejaVuSans-70" x="113.378906"/>
      <use xlink:href="#DejaVuSans-6c" x="176.855469"/>
      <use xlink:href="#DejaVuSans-61" x="204.638672"/>
      <use xlink:href="#DejaVuSans-79" x="265.917969"/>
      <use xlink:href="#DejaVuSans-65" x="325.097656"/>
      <use xlink:href="#DejaVuSans-72" x="386.621094"/>
      <use xlink:href="#DejaVuSans-73" x="427.734375"/>
      <use xlink:href="#DejaVuSans-20" x="479.833984"/>
      <use xlink:href="#DejaVuSans-3d" x="511.621094"/>
      <use xlink:href="#DejaVuSans-20" x="595.410156"/>
      <use xlink:href="#DejaVuSans-31" x="627.197266"/>
      <use xlink:href="#DejaVuSans-31" x="690.820312"/>
     </g>
    </g>
    <g id="line2d_30">
     <path d="M 66.6 277.769937 
L 76.6 277.769937 
L 86.6 277.769937 
" style="fill: none; stroke: #8c564b; stroke-width: 1.5; stroke-linecap: square"/>
     <g>
      <use xlink:href="#m68a269fd7f" x="76.6" y="277.769937" style="fill-opacity: 0; stroke: #8c564b; stroke-linejoin: miter"/>
     </g>
    </g>
    <g id="text_25">
     <!-- n_players = 13 -->
     <g transform="translate(94.6 281.269937) scale(0.1 -0.1)">
      <use xlink:href="#DejaVuSans-6e"/>
      <use xlink:href="#DejaVuSans-5f" x="63.378906"/>
      <use xlink:href="#DejaVuSans-70" x="113.378906"/>
      <use xlink:href="#DejaVuSans-6c" x="176.855469"/>
      <use xlink:href="#DejaVuSans-61" x="204.638672"/>
      <use xlink:href="#DejaVuSans-79" x="265.917969"/>
      <use xlink:href="#DejaVuSans-65" x="325.097656"/>
      <use xlink:href="#DejaVuSans-72" x="386.621094"/>
      <use xlink:href="#DejaVuSans-73" x="427.734375"/>
      <use xlink:href="#DejaVuSans-20" x="479.833984"/>
      <use xlink:href="#DejaVuSans-3d" x="511.621094"/>
      <use xlink:href="#DejaVuSans-20" x="595.410156"/>
      <use xlink:href="#DejaVuSans-31" x="627.197266"/>
      <use xlink:href="#DejaVuSans-33" x="690.820312"/>
     </g>
    </g>
    <g id="line2d_31">
     <path d="M 66.6 292.726187 
L 76.6 292.726187 
L 86.6 292.726187 
" style="fill: none; stroke: #e377c2; stroke-width: 1.5; stroke-linecap: square"/>
     <g>
      <use xlink:href="#m26f6c9b2ac" x="76.6" y="292.726187" style="fill-opacity: 0; stroke: #e377c2; stroke-linejoin: miter"/>
     </g>
    </g>
    <g id="text_26">
     <!-- n_players = 15 -->
     <g transform="translate(94.6 296.226187) scale(0.1 -0.1)">
      <use xlink:href="#DejaVuSans-6e"/>
      <use xlink:href="#DejaVuSans-5f" x="63.378906"/>
      <use xlink:href="#DejaVuSans-70" x="113.378906"/>
      <use xlink:href="#DejaVuSans-6c" x="176.855469"/>
      <use xlink:href="#DejaVuSans-61" x="204.638672"/>
      <use xlink:href="#DejaVuSans-79" x="265.917969"/>
      <use xlink:href="#DejaVuSans-65" x="325.097656"/>
      <use xlink:href="#DejaVuSans-72" x="386.621094"/>
      <use xlink:href="#DejaVuSans-73" x="427.734375"/>
      <use xlink:href="#DejaVuSans-20" x="479.833984"/>
      <use xlink:href="#DejaVuSans-3d" x="511.621094"/>
      <use xlink:href="#DejaVuSans-20" x="595.410156"/>
      <use xlink:href="#DejaVuSans-31" x="627.197266"/>
      <use xlink:href="#DejaVuSans-35" x="690.820312"/>
     </g>
    </g>
   </g>
  </g>
 </g>
 <defs>
  <clipPath id="pc07d46226c">
   <rect x="57.6" y="41.472" width="357.12" height="266.112"/>
  </clipPath>
 </defs>
</svg>
