<?xml version="1.0" encoding="utf-8" standalone="no"?>
<!DOCTYPE svg PUBLIC "-//W3C//DTD SVG 1.1//EN"
  "http://www.w3.org/Graphics/SVG/1.1/DTD/svg11.dtd">
<svg xmlns:xlink="http://www.w3.org/1999/xlink" width="460.8pt" height="345.6pt" viewBox="0 0 460.8 345.6" xmlns="http://www.w3.org/2000/svg" version="1.1">
 <metadata>
  <rdf:RDF xmlns:dc="http://purl.org/dc/elements/1.1/" xmlns:cc="http://creativecommons.org/ns#" xmlns:rdf="http://www.w3.org/1999/02/22-rdf-syntax-ns#">
   <cc:Work>
    <dc:type rdf:resource="http://purl.org/dc/dcmitype/StillImage"/>
    <dc:date>2023-09-08T03:58:22.691293</dc:date>
    <dc:format>image/svg+xml</dc:format>
    <dc:creator>
     <cc:Agent>
      <dc:title>Matplotlib v3.6.0, https://matplotlib.org/</dc:title>
     </cc:Agent>
    </dc:creator>
   </cc:Work>
  </rdf:RDF>
 </metadata>
 <defs>
  <style type="text/css">*{stroke-linejoin: round; stroke-linecap: butt}</style>
 </defs>
 <g id="figure_1">
  <g id="patch_1">
   <path d="M 0 345.6 
L 460.8 345.6 
L 460.8 0 
L 0 0 
z
" style="fill: #ffffff"/>
  </g>
  <g id="axes_1">
   <g id="patch_2">
    <path d="M 57.6 307.584 
L 414.72 307.584 
L 414.72 41.472 
L 57.6 41.472 
z
" style="fill: #ffffff"/>
   </g>
   <g id="PolyCollection_1">
    <path d="M 73.832727 53.568 
L 73.832727 53.585175 
L 77.890909 53.621207 
L 81.949091 53.659133 
L 86.007273 53.690958 
L 90.065455 53.723392 
L 94.123636 53.756124 
L 98.181818 53.798992 
L 102.24 53.837162 
L 106.298182 53.883714 
L 110.356364 53.925106 
L 114.414545 53.967765 
L 118.472727 54.007162 
L 122.530909 54.055842 
L 126.589091 54.100709 
L 130.647273 54.13932 
L 134.705455 54.185781 
L 138.763636 54.225785 
L 142.821818 54.269845 
L 146.88 54.315351 
L 150.938182 54.355603 
L 154.996364 54.407606 
L 159.054545 54.451042 
L 163.112727 54.507212 
L 167.170909 54.571229 
L 171.229091 54.667713 
L 175.287273 54.779719 
L 179.345455 54.923945 
L 183.403636 55.140019 
L 187.461818 55.376562 
L 191.52 55.707643 
L 195.578182 56.112991 
L 199.636364 56.609467 
L 203.694545 57.145319 
L 207.752727 57.9261 
L 211.810909 58.689914 
L 215.869091 59.572507 
L 219.927273 60.505054 
L 223.985455 61.541412 
L 228.043636 62.779984 
L 232.101818 64.321063 
L 236.16 65.696485 
L 240.218182 67.349978 
L 244.276364 69.209744 
L 248.334545 71.175689 
L 252.392727 73.153433 
L 256.450909 76.258918 
L 260.509091 78.574852 
L 264.567273 81.326046 
L 268.625455 83.98876 
L 272.683636 87.873077 
L 276.741818 91.759974 
L 280.8 96.029074 
L 284.858182 98.928472 
L 288.916364 103.218222 
L 292.974545 107.814479 
L 297.032727 112.276161 
L 301.090909 117.309566 
L 305.149091 122.687218 
L 309.207273 128.952571 
L 313.265455 134.467088 
L 317.323636 140.699394 
L 321.381818 145.487752 
L 325.44 152.878383 
L 329.498182 160.205532 
L 333.556364 165.118694 
L 337.614545 172.403439 
L 341.672727 178.657601 
L 345.730909 188.488714 
L 349.789091 191.621415 
L 353.847273 199.345267 
L 357.905455 206.742989 
L 361.963636 214.915859 
L 366.021818 224.037689 
L 370.08 234.203508 
L 374.138182 240.527501 
L 378.196364 252.235282 
L 382.254545 260.773229 
L 386.312727 273.72226 
L 390.370909 283.38514 
L 394.429091 295.488 
L 398.487273 293.000394 
L 398.487273 293.000394 
L 398.487273 293.000394 
L 394.429091 281.436007 
L 390.370909 257.601412 
L 386.312727 238.380697 
L 382.254545 226.170336 
L 378.196364 211.107153 
L 374.138182 200.500661 
L 370.08 192.403899 
L 366.021818 181.720942 
L 361.963636 177.874293 
L 357.905455 166.097829 
L 353.847273 159.99423 
L 349.789091 154.179199 
L 345.730909 153.311914 
L 341.672727 142.90803 
L 337.614545 136.549935 
L 333.556364 132.283452 
L 329.498182 127.792434 
L 325.44 123.774545 
L 321.381818 116.885914 
L 317.323636 114.316284 
L 313.265455 106.872942 
L 309.207273 104.870233 
L 305.149091 100.595825 
L 301.090909 96.784155 
L 297.032727 92.242135 
L 292.974545 90.462239 
L 288.916364 87.472689 
L 284.858182 83.781226 
L 280.8 81.610737 
L 276.741818 79.031509 
L 272.683636 76.467676 
L 268.625455 74.653493 
L 264.567273 72.541587 
L 260.509091 70.375456 
L 256.450909 69.111109 
L 252.392727 67.083621 
L 248.334545 65.507996 
L 244.276364 63.780943 
L 240.218182 63.095266 
L 236.16 61.734335 
L 232.101818 60.773583 
L 228.043636 59.837983 
L 223.985455 58.674256 
L 219.927273 58.215532 
L 215.869091 57.741497 
L 211.810909 56.918077 
L 207.752727 56.503832 
L 203.694545 55.953485 
L 199.636364 55.577636 
L 195.578182 55.335769 
L 191.52 55.04331 
L 187.461818 54.895527 
L 183.403636 54.732986 
L 179.345455 54.593426 
L 175.287273 54.537982 
L 171.229091 54.4751 
L 167.170909 54.428992 
L 163.112727 54.368673 
L 159.054545 54.317753 
L 154.996364 54.272176 
L 150.938182 54.218419 
L 146.88 54.177117 
L 142.821818 54.131041 
L 138.763636 54.089562 
L 134.705455 54.039944 
L 130.647273 54.005708 
L 126.589091 53.966846 
L 122.530909 53.920194 
L 118.472727 53.86864 
L 114.414545 53.838557 
L 110.356364 53.808663 
L 106.298182 53.767186 
L 102.24 53.738027 
L 98.181818 53.705236 
L 94.123636 53.68119 
L 90.065455 53.656996 
L 86.007273 53.637892 
L 81.949091 53.616233 
L 77.890909 53.598474 
L 73.832727 53.568 
z
" clip-path="url(#pbd92a68215)" style="fill: #1f77b4; fill-opacity: 0.2"/>
   </g>
   <g id="matplotlib.axis_1">
    <g id="xtick_1">
     <g id="line2d_1">
      <defs>
       <path id="m10e8928016" d="M 0 0 
L 0 3.5 
" style="stroke: #000000; stroke-width: 0.8"/>
      </defs>
      <g>
       <use xlink:href="#m10e8928016" x="73.832727" y="307.584" style="stroke: #000000; stroke-width: 0.8"/>
      </g>
     </g>
     <g id="text_1">
      <!-- 0.2 -->
      <g transform="translate(65.881165 322.182437) scale(0.1 -0.1)">
       <defs>
        <path id="DejaVuSans-30" d="M 2034 4250 
Q 1547 4250 1301 3770 
Q 1056 3291 1056 2328 
Q 1056 1369 1301 889 
Q 1547 409 2034 409 
Q 2525 409 2770 889 
Q 3016 1369 3016 2328 
Q 3016 3291 2770 3770 
Q 2525 4250 2034 4250 
z
M 2034 4750 
Q 2819 4750 3233 4129 
Q 3647 3509 3647 2328 
Q 3647 1150 3233 529 
Q 2819 -91 2034 -91 
Q 1250 -91 836 529 
Q 422 1150 422 2328 
Q 422 3509 836 4129 
Q 1250 4750 2034 4750 
z
" transform="scale(0.015625)"/>
        <path id="DejaVuSans-2e" d="M 684 794 
L 1344 794 
L 1344 0 
L 684 0 
L 684 794 
z
" transform="scale(0.015625)"/>
        <path id="DejaVuSans-32" d="M 1228 531 
L 3431 531 
L 3431 0 
L 469 0 
L 469 531 
Q 828 903 1448 1529 
Q 2069 2156 2228 2338 
Q 2531 2678 2651 2914 
Q 2772 3150 2772 3378 
Q 2772 3750 2511 3984 
Q 2250 4219 1831 4219 
Q 1534 4219 1204 4116 
Q 875 4013 500 3803 
L 500 4441 
Q 881 4594 1212 4672 
Q 1544 4750 1819 4750 
Q 2544 4750 2975 4387 
Q 3406 4025 3406 3419 
Q 3406 3131 3298 2873 
Q 3191 2616 2906 2266 
Q 2828 2175 2409 1742 
Q 1991 1309 1228 531 
z
" transform="scale(0.015625)"/>
       </defs>
       <use xlink:href="#DejaVuSans-30"/>
       <use xlink:href="#DejaVuSans-2e" x="63.623047"/>
       <use xlink:href="#DejaVuSans-32" x="95.410156"/>
      </g>
     </g>
    </g>
    <g id="xtick_2">
     <g id="line2d_2">
      <g>
       <use xlink:href="#m10e8928016" x="114.414545" y="307.584" style="stroke: #000000; stroke-width: 0.8"/>
      </g>
     </g>
     <g id="text_2">
      <!-- 0.3 -->
      <g transform="translate(106.462983 322.182437) scale(0.1 -0.1)">
       <defs>
        <path id="DejaVuSans-33" d="M 2597 2516 
Q 3050 2419 3304 2112 
Q 3559 1806 3559 1356 
Q 3559 666 3084 287 
Q 2609 -91 1734 -91 
Q 1441 -91 1130 -33 
Q 819 25 488 141 
L 488 750 
Q 750 597 1062 519 
Q 1375 441 1716 441 
Q 2309 441 2620 675 
Q 2931 909 2931 1356 
Q 2931 1769 2642 2001 
Q 2353 2234 1838 2234 
L 1294 2234 
L 1294 2753 
L 1863 2753 
Q 2328 2753 2575 2939 
Q 2822 3125 2822 3475 
Q 2822 3834 2567 4026 
Q 2313 4219 1838 4219 
Q 1578 4219 1281 4162 
Q 984 4106 628 3988 
L 628 4550 
Q 988 4650 1302 4700 
Q 1616 4750 1894 4750 
Q 2613 4750 3031 4423 
Q 3450 4097 3450 3541 
Q 3450 3153 3228 2886 
Q 3006 2619 2597 2516 
z
" transform="scale(0.015625)"/>
       </defs>
       <use xlink:href="#DejaVuSans-30"/>
       <use xlink:href="#DejaVuSans-2e" x="63.623047"/>
       <use xlink:href="#DejaVuSans-33" x="95.410156"/>
      </g>
     </g>
    </g>
    <g id="xtick_3">
     <g id="line2d_3">
      <g>
       <use xlink:href="#m10e8928016" x="154.996364" y="307.584" style="stroke: #000000; stroke-width: 0.8"/>
      </g>
     </g>
     <g id="text_3">
      <!-- 0.4 -->
      <g transform="translate(147.044801 322.182437) scale(0.1 -0.1)">
       <defs>
        <path id="DejaVuSans-34" d="M 2419 4116 
L 825 1625 
L 2419 1625 
L 2419 4116 
z
M 2253 4666 
L 3047 4666 
L 3047 1625 
L 3713 1625 
L 3713 1100 
L 3047 1100 
L 3047 0 
L 2419 0 
L 2419 1100 
L 313 1100 
L 313 1709 
L 2253 4666 
z
" transform="scale(0.015625)"/>
       </defs>
       <use xlink:href="#DejaVuSans-30"/>
       <use xlink:href="#DejaVuSans-2e" x="63.623047"/>
       <use xlink:href="#DejaVuSans-34" x="95.410156"/>
      </g>
     </g>
    </g>
    <g id="xtick_4">
     <g id="line2d_4">
      <g>
       <use xlink:href="#m10e8928016" x="195.578182" y="307.584" style="stroke: #000000; stroke-width: 0.8"/>
      </g>
     </g>
     <g id="text_4">
      <!-- 0.5 -->
      <g transform="translate(187.626619 322.182437) scale(0.1 -0.1)">
       <defs>
        <path id="DejaVuSans-35" d="M 691 4666 
L 3169 4666 
L 3169 4134 
L 1269 4134 
L 1269 2991 
Q 1406 3038 1543 3061 
Q 1681 3084 1819 3084 
Q 2600 3084 3056 2656 
Q 3513 2228 3513 1497 
Q 3513 744 3044 326 
Q 2575 -91 1722 -91 
Q 1428 -91 1123 -41 
Q 819 9 494 109 
L 494 744 
Q 775 591 1075 516 
Q 1375 441 1709 441 
Q 2250 441 2565 725 
Q 2881 1009 2881 1497 
Q 2881 1984 2565 2268 
Q 2250 2553 1709 2553 
Q 1456 2553 1204 2497 
Q 953 2441 691 2322 
L 691 4666 
z
" transform="scale(0.015625)"/>
       </defs>
       <use xlink:href="#DejaVuSans-30"/>
       <use xlink:href="#DejaVuSans-2e" x="63.623047"/>
       <use xlink:href="#DejaVuSans-35" x="95.410156"/>
      </g>
     </g>
    </g>
    <g id="xtick_5">
     <g id="line2d_5">
      <g>
       <use xlink:href="#m10e8928016" x="236.16" y="307.584" style="stroke: #000000; stroke-width: 0.8"/>
      </g>
     </g>
     <g id="text_5">
      <!-- 0.6 -->
      <g transform="translate(228.208438 322.182437) scale(0.1 -0.1)">
       <defs>
        <path id="DejaVuSans-36" d="M 2113 2584 
Q 1688 2584 1439 2293 
Q 1191 2003 1191 1497 
Q 1191 994 1439 701 
Q 1688 409 2113 409 
Q 2538 409 2786 701 
Q 3034 994 3034 1497 
Q 3034 2003 2786 2293 
Q 2538 2584 2113 2584 
z
M 3366 4563 
L 3366 3988 
Q 3128 4100 2886 4159 
Q 2644 4219 2406 4219 
Q 1781 4219 1451 3797 
Q 1122 3375 1075 2522 
Q 1259 2794 1537 2939 
Q 1816 3084 2150 3084 
Q 2853 3084 3261 2657 
Q 3669 2231 3669 1497 
Q 3669 778 3244 343 
Q 2819 -91 2113 -91 
Q 1303 -91 875 529 
Q 447 1150 447 2328 
Q 447 3434 972 4092 
Q 1497 4750 2381 4750 
Q 2619 4750 2861 4703 
Q 3103 4656 3366 4563 
z
" transform="scale(0.015625)"/>
       </defs>
       <use xlink:href="#DejaVuSans-30"/>
       <use xlink:href="#DejaVuSans-2e" x="63.623047"/>
       <use xlink:href="#DejaVuSans-36" x="95.410156"/>
      </g>
     </g>
    </g>
    <g id="xtick_6">
     <g id="line2d_6">
      <g>
       <use xlink:href="#m10e8928016" x="276.741818" y="307.584" style="stroke: #000000; stroke-width: 0.8"/>
      </g>
     </g>
     <g id="text_6">
      <!-- 0.7 -->
      <g transform="translate(268.790256 322.182437) scale(0.1 -0.1)">
       <defs>
        <path id="DejaVuSans-37" d="M 525 4666 
L 3525 4666 
L 3525 4397 
L 1831 0 
L 1172 0 
L 2766 4134 
L 525 4134 
L 525 4666 
z
" transform="scale(0.015625)"/>
       </defs>
       <use xlink:href="#DejaVuSans-30"/>
       <use xlink:href="#DejaVuSans-2e" x="63.623047"/>
       <use xlink:href="#DejaVuSans-37" x="95.410156"/>
      </g>
     </g>
    </g>
    <g id="xtick_7">
     <g id="line2d_7">
      <g>
       <use xlink:href="#m10e8928016" x="317.323636" y="307.584" style="stroke: #000000; stroke-width: 0.8"/>
      </g>
     </g>
     <g id="text_7">
      <!-- 0.8 -->
      <g transform="translate(309.372074 322.182437) scale(0.1 -0.1)">
       <defs>
        <path id="DejaVuSans-38" d="M 2034 2216 
Q 1584 2216 1326 1975 
Q 1069 1734 1069 1313 
Q 1069 891 1326 650 
Q 1584 409 2034 409 
Q 2484 409 2743 651 
Q 3003 894 3003 1313 
Q 3003 1734 2745 1975 
Q 2488 2216 2034 2216 
z
M 1403 2484 
Q 997 2584 770 2862 
Q 544 3141 544 3541 
Q 544 4100 942 4425 
Q 1341 4750 2034 4750 
Q 2731 4750 3128 4425 
Q 3525 4100 3525 3541 
Q 3525 3141 3298 2862 
Q 3072 2584 2669 2484 
Q 3125 2378 3379 2068 
Q 3634 1759 3634 1313 
Q 3634 634 3220 271 
Q 2806 -91 2034 -91 
Q 1263 -91 848 271 
Q 434 634 434 1313 
Q 434 1759 690 2068 
Q 947 2378 1403 2484 
z
M 1172 3481 
Q 1172 3119 1398 2916 
Q 1625 2713 2034 2713 
Q 2441 2713 2670 2916 
Q 2900 3119 2900 3481 
Q 2900 3844 2670 4047 
Q 2441 4250 2034 4250 
Q 1625 4250 1398 4047 
Q 1172 3844 1172 3481 
z
" transform="scale(0.015625)"/>
       </defs>
       <use xlink:href="#DejaVuSans-30"/>
       <use xlink:href="#DejaVuSans-2e" x="63.623047"/>
       <use xlink:href="#DejaVuSans-38" x="95.410156"/>
      </g>
     </g>
    </g>
    <g id="xtick_8">
     <g id="line2d_8">
      <g>
       <use xlink:href="#m10e8928016" x="357.905455" y="307.584" style="stroke: #000000; stroke-width: 0.8"/>
      </g>
     </g>
     <g id="text_8">
      <!-- 0.9 -->
      <g transform="translate(349.953892 322.182437) scale(0.1 -0.1)">
       <defs>
        <path id="DejaVuSans-39" d="M 703 97 
L 703 672 
Q 941 559 1184 500 
Q 1428 441 1663 441 
Q 2288 441 2617 861 
Q 2947 1281 2994 2138 
Q 2813 1869 2534 1725 
Q 2256 1581 1919 1581 
Q 1219 1581 811 2004 
Q 403 2428 403 3163 
Q 403 3881 828 4315 
Q 1253 4750 1959 4750 
Q 2769 4750 3195 4129 
Q 3622 3509 3622 2328 
Q 3622 1225 3098 567 
Q 2575 -91 1691 -91 
Q 1453 -91 1209 -44 
Q 966 3 703 97 
z
M 1959 2075 
Q 2384 2075 2632 2365 
Q 2881 2656 2881 3163 
Q 2881 3666 2632 3958 
Q 2384 4250 1959 4250 
Q 1534 4250 1286 3958 
Q 1038 3666 1038 3163 
Q 1038 2656 1286 2365 
Q 1534 2075 1959 2075 
z
" transform="scale(0.015625)"/>
       </defs>
       <use xlink:href="#DejaVuSans-30"/>
       <use xlink:href="#DejaVuSans-2e" x="63.623047"/>
       <use xlink:href="#DejaVuSans-39" x="95.410156"/>
      </g>
     </g>
    </g>
    <g id="xtick_9">
     <g id="line2d_9">
      <g>
       <use xlink:href="#m10e8928016" x="398.487273" y="307.584" style="stroke: #000000; stroke-width: 0.8"/>
      </g>
     </g>
     <g id="text_9">
      <!-- 1.0 -->
      <g transform="translate(390.53571 322.182437) scale(0.1 -0.1)">
       <defs>
        <path id="DejaVuSans-31" d="M 794 531 
L 1825 531 
L 1825 4091 
L 703 3866 
L 703 4441 
L 1819 4666 
L 2450 4666 
L 2450 531 
L 3481 531 
L 3481 0 
L 794 0 
L 794 531 
z
" transform="scale(0.015625)"/>
       </defs>
       <use xlink:href="#DejaVuSans-31"/>
       <use xlink:href="#DejaVuSans-2e" x="63.623047"/>
       <use xlink:href="#DejaVuSans-30" x="95.410156"/>
      </g>
     </g>
    </g>
    <g id="text_10">
     <!-- Avg Price -->
     <g transform="translate(213.113125 335.860562) scale(0.1 -0.1)">
      <defs>
       <path id="DejaVuSans-41" d="M 2188 4044 
L 1331 1722 
L 3047 1722 
L 2188 4044 
z
M 1831 4666 
L 2547 4666 
L 4325 0 
L 3669 0 
L 3244 1197 
L 1141 1197 
L 716 0 
L 50 0 
L 1831 4666 
z
" transform="scale(0.015625)"/>
       <path id="DejaVuSans-76" d="M 191 3500 
L 800 3500 
L 1894 563 
L 2988 3500 
L 3597 3500 
L 2284 0 
L 1503 0 
L 191 3500 
z
" transform="scale(0.015625)"/>
       <path id="DejaVuSans-67" d="M 2906 1791 
Q 2906 2416 2648 2759 
Q 2391 3103 1925 3103 
Q 1463 3103 1205 2759 
Q 947 2416 947 1791 
Q 947 1169 1205 825 
Q 1463 481 1925 481 
Q 2391 481 2648 825 
Q 2906 1169 2906 1791 
z
M 3481 434 
Q 3481 -459 3084 -895 
Q 2688 -1331 1869 -1331 
Q 1566 -1331 1297 -1286 
Q 1028 -1241 775 -1147 
L 775 -588 
Q 1028 -725 1275 -790 
Q 1522 -856 1778 -856 
Q 2344 -856 2625 -561 
Q 2906 -266 2906 331 
L 2906 616 
Q 2728 306 2450 153 
Q 2172 0 1784 0 
Q 1141 0 747 490 
Q 353 981 353 1791 
Q 353 2603 747 3093 
Q 1141 3584 1784 3584 
Q 2172 3584 2450 3431 
Q 2728 3278 2906 2969 
L 2906 3500 
L 3481 3500 
L 3481 434 
z
" transform="scale(0.015625)"/>
       <path id="DejaVuSans-20" transform="scale(0.015625)"/>
       <path id="DejaVuSans-50" d="M 1259 4147 
L 1259 2394 
L 2053 2394 
Q 2494 2394 2734 2622 
Q 2975 2850 2975 3272 
Q 2975 3691 2734 3919 
Q 2494 4147 2053 4147 
L 1259 4147 
z
M 628 4666 
L 2053 4666 
Q 2838 4666 3239 4311 
Q 3641 3956 3641 3272 
Q 3641 2581 3239 2228 
Q 2838 1875 2053 1875 
L 1259 1875 
L 1259 0 
L 628 0 
L 628 4666 
z
" transform="scale(0.015625)"/>
       <path id="DejaVuSans-72" d="M 2631 2963 
Q 2534 3019 2420 3045 
Q 2306 3072 2169 3072 
Q 1681 3072 1420 2755 
Q 1159 2438 1159 1844 
L 1159 0 
L 581 0 
L 581 3500 
L 1159 3500 
L 1159 2956 
Q 1341 3275 1631 3429 
Q 1922 3584 2338 3584 
Q 2397 3584 2469 3576 
Q 2541 3569 2628 3553 
L 2631 2963 
z
" transform="scale(0.015625)"/>
       <path id="DejaVuSans-69" d="M 603 3500 
L 1178 3500 
L 1178 0 
L 603 0 
L 603 3500 
z
M 603 4863 
L 1178 4863 
L 1178 4134 
L 603 4134 
L 603 4863 
z
" transform="scale(0.015625)"/>
       <path id="DejaVuSans-63" d="M 3122 3366 
L 3122 2828 
Q 2878 2963 2633 3030 
Q 2388 3097 2138 3097 
Q 1578 3097 1268 2742 
Q 959 2388 959 1747 
Q 959 1106 1268 751 
Q 1578 397 2138 397 
Q 2388 397 2633 464 
Q 2878 531 3122 666 
L 3122 134 
Q 2881 22 2623 -34 
Q 2366 -91 2075 -91 
Q 1284 -91 818 406 
Q 353 903 353 1747 
Q 353 2603 823 3093 
Q 1294 3584 2113 3584 
Q 2378 3584 2631 3529 
Q 2884 3475 3122 3366 
z
" transform="scale(0.015625)"/>
       <path id="DejaVuSans-65" d="M 3597 1894 
L 3597 1613 
L 953 1613 
Q 991 1019 1311 708 
Q 1631 397 2203 397 
Q 2534 397 2845 478 
Q 3156 559 3463 722 
L 3463 178 
Q 3153 47 2828 -22 
Q 2503 -91 2169 -91 
Q 1331 -91 842 396 
Q 353 884 353 1716 
Q 353 2575 817 3079 
Q 1281 3584 2069 3584 
Q 2775 3584 3186 3129 
Q 3597 2675 3597 1894 
z
M 3022 2063 
Q 3016 2534 2758 2815 
Q 2500 3097 2075 3097 
Q 1594 3097 1305 2825 
Q 1016 2553 972 2059 
L 3022 2063 
z
" transform="scale(0.015625)"/>
      </defs>
      <use xlink:href="#DejaVuSans-41"/>
      <use xlink:href="#DejaVuSans-76" x="62.533203"/>
      <use xlink:href="#DejaVuSans-67" x="121.712891"/>
      <use xlink:href="#DejaVuSans-20" x="185.189453"/>
      <use xlink:href="#DejaVuSans-50" x="216.976562"/>
      <use xlink:href="#DejaVuSans-72" x="275.529297"/>
      <use xlink:href="#DejaVuSans-69" x="316.642578"/>
      <use xlink:href="#DejaVuSans-63" x="344.425781"/>
      <use xlink:href="#DejaVuSans-65" x="399.40625"/>
     </g>
    </g>
   </g>
   <g id="matplotlib.axis_2">
    <g id="ytick_1">
     <g id="line2d_10">
      <defs>
       <path id="m44ee9d2a99" d="M 0 0 
L -3.5 0 
" style="stroke: #000000; stroke-width: 0.8"/>
      </defs>
      <g>
       <use xlink:href="#m44ee9d2a99" x="57.6" y="278.108598" style="stroke: #000000; stroke-width: 0.8"/>
      </g>
     </g>
     <g id="text_11">
      <!-- 10 -->
      <g transform="translate(37.875 281.907817) scale(0.1 -0.1)">
       <use xlink:href="#DejaVuSans-31"/>
       <use xlink:href="#DejaVuSans-30" x="63.623047"/>
      </g>
     </g>
    </g>
    <g id="ytick_2">
     <g id="line2d_11">
      <g>
       <use xlink:href="#m44ee9d2a99" x="57.6" y="243.207875" style="stroke: #000000; stroke-width: 0.8"/>
      </g>
     </g>
     <g id="text_12">
      <!-- 20 -->
      <g transform="translate(37.875 247.007094) scale(0.1 -0.1)">
       <use xlink:href="#DejaVuSans-32"/>
       <use xlink:href="#DejaVuSans-30" x="63.623047"/>
      </g>
     </g>
    </g>
    <g id="ytick_3">
     <g id="line2d_12">
      <g>
       <use xlink:href="#m44ee9d2a99" x="57.6" y="208.307153" style="stroke: #000000; stroke-width: 0.8"/>
      </g>
     </g>
     <g id="text_13">
      <!-- 30 -->
      <g transform="translate(37.875 212.106372) scale(0.1 -0.1)">
       <use xlink:href="#DejaVuSans-33"/>
       <use xlink:href="#DejaVuSans-30" x="63.623047"/>
      </g>
     </g>
    </g>
    <g id="ytick_4">
     <g id="line2d_13">
      <g>
       <use xlink:href="#m44ee9d2a99" x="57.6" y="173.40643" style="stroke: #000000; stroke-width: 0.8"/>
      </g>
     </g>
     <g id="text_14">
      <!-- 40 -->
      <g transform="translate(37.875 177.205649) scale(0.1 -0.1)">
       <use xlink:href="#DejaVuSans-34"/>
       <use xlink:href="#DejaVuSans-30" x="63.623047"/>
      </g>
     </g>
    </g>
    <g id="ytick_5">
     <g id="line2d_14">
      <g>
       <use xlink:href="#m44ee9d2a99" x="57.6" y="138.505707" style="stroke: #000000; stroke-width: 0.8"/>
      </g>
     </g>
     <g id="text_15">
      <!-- 50 -->
      <g transform="translate(37.875 142.304926) scale(0.1 -0.1)">
       <use xlink:href="#DejaVuSans-35"/>
       <use xlink:href="#DejaVuSans-30" x="63.623047"/>
      </g>
     </g>
    </g>
    <g id="ytick_6">
     <g id="line2d_15">
      <g>
       <use xlink:href="#m44ee9d2a99" x="57.6" y="103.604985" style="stroke: #000000; stroke-width: 0.8"/>
      </g>
     </g>
     <g id="text_16">
      <!-- 60 -->
      <g transform="translate(37.875 107.404204) scale(0.1 -0.1)">
       <use xlink:href="#DejaVuSans-36"/>
       <use xlink:href="#DejaVuSans-30" x="63.623047"/>
      </g>
     </g>
    </g>
    <g id="ytick_7">
     <g id="line2d_16">
      <g>
       <use xlink:href="#m44ee9d2a99" x="57.6" y="68.704262" style="stroke: #000000; stroke-width: 0.8"/>
      </g>
     </g>
     <g id="text_17">
      <!-- 70 -->
      <g transform="translate(37.875 72.503481) scale(0.1 -0.1)">
       <use xlink:href="#DejaVuSans-37"/>
       <use xlink:href="#DejaVuSans-30" x="63.623047"/>
      </g>
     </g>
    </g>
    <g id="text_18">
     <!-- eq_tput -->
     <g transform="translate(31.517187 193.542062) rotate(-90) scale(0.1 -0.1)">
      <defs>
       <path id="DejaVuSans-71" d="M 947 1747 
Q 947 1113 1208 752 
Q 1469 391 1925 391 
Q 2381 391 2643 752 
Q 2906 1113 2906 1747 
Q 2906 2381 2643 2742 
Q 2381 3103 1925 3103 
Q 1469 3103 1208 2742 
Q 947 2381 947 1747 
z
M 2906 525 
Q 2725 213 2448 61 
Q 2172 -91 1784 -91 
Q 1150 -91 751 415 
Q 353 922 353 1747 
Q 353 2572 751 3078 
Q 1150 3584 1784 3584 
Q 2172 3584 2448 3432 
Q 2725 3281 2906 2969 
L 2906 3500 
L 3481 3500 
L 3481 -1331 
L 2906 -1331 
L 2906 525 
z
" transform="scale(0.015625)"/>
       <path id="DejaVuSans-5f" d="M 3263 -1063 
L 3263 -1509 
L -63 -1509 
L -63 -1063 
L 3263 -1063 
z
" transform="scale(0.015625)"/>
       <path id="DejaVuSans-74" d="M 1172 4494 
L 1172 3500 
L 2356 3500 
L 2356 3053 
L 1172 3053 
L 1172 1153 
Q 1172 725 1289 603 
Q 1406 481 1766 481 
L 2356 481 
L 2356 0 
L 1766 0 
Q 1100 0 847 248 
Q 594 497 594 1153 
L 594 3053 
L 172 3053 
L 172 3500 
L 594 3500 
L 594 4494 
L 1172 4494 
z
" transform="scale(0.015625)"/>
       <path id="DejaVuSans-70" d="M 1159 525 
L 1159 -1331 
L 581 -1331 
L 581 3500 
L 1159 3500 
L 1159 2969 
Q 1341 3281 1617 3432 
Q 1894 3584 2278 3584 
Q 2916 3584 3314 3078 
Q 3713 2572 3713 1747 
Q 3713 922 3314 415 
Q 2916 -91 2278 -91 
Q 1894 -91 1617 61 
Q 1341 213 1159 525 
z
M 3116 1747 
Q 3116 2381 2855 2742 
Q 2594 3103 2138 3103 
Q 1681 3103 1420 2742 
Q 1159 2381 1159 1747 
Q 1159 1113 1420 752 
Q 1681 391 2138 391 
Q 2594 391 2855 752 
Q 3116 1113 3116 1747 
z
" transform="scale(0.015625)"/>
       <path id="DejaVuSans-75" d="M 544 1381 
L 544 3500 
L 1119 3500 
L 1119 1403 
Q 1119 906 1312 657 
Q 1506 409 1894 409 
Q 2359 409 2629 706 
Q 2900 1003 2900 1516 
L 2900 3500 
L 3475 3500 
L 3475 0 
L 2900 0 
L 2900 538 
Q 2691 219 2414 64 
Q 2138 -91 1772 -91 
Q 1169 -91 856 284 
Q 544 659 544 1381 
z
M 1991 3584 
L 1991 3584 
z
" transform="scale(0.015625)"/>
      </defs>
      <use xlink:href="#DejaVuSans-65"/>
      <use xlink:href="#DejaVuSans-71" x="61.523438"/>
      <use xlink:href="#DejaVuSans-5f" x="125"/>
      <use xlink:href="#DejaVuSans-74" x="175"/>
      <use xlink:href="#DejaVuSans-70" x="214.208984"/>
      <use xlink:href="#DejaVuSans-75" x="277.685547"/>
      <use xlink:href="#DejaVuSans-74" x="341.064453"/>
     </g>
    </g>
   </g>
   <g id="line2d_17">
    <path d="M 73.832727 53.576588 
L 77.890909 53.60984 
L 81.949091 53.637683 
L 86.007273 53.664425 
L 90.065455 53.690194 
L 94.123636 53.718657 
L 98.181818 53.752114 
L 102.24 53.787595 
L 106.298182 53.82545 
L 110.356364 53.866884 
L 114.414545 53.903161 
L 118.472727 53.937901 
L 122.530909 53.988018 
L 126.589091 54.033778 
L 130.647273 54.072514 
L 134.705455 54.112862 
L 138.763636 54.157674 
L 142.821818 54.200443 
L 146.88 54.246234 
L 150.938182 54.287011 
L 154.996364 54.339891 
L 159.054545 54.384397 
L 163.112727 54.437942 
L 167.170909 54.500111 
L 171.229091 54.571406 
L 175.287273 54.65885 
L 179.345455 54.758685 
L 183.403636 54.936503 
L 187.461818 55.136044 
L 191.52 55.375476 
L 195.578182 55.72438 
L 199.636364 56.093551 
L 203.694545 56.549402 
L 207.752727 57.214966 
L 211.810909 57.803995 
L 215.869091 58.657002 
L 219.927273 59.360293 
L 223.985455 60.107834 
L 228.043636 61.308983 
L 232.101818 62.547323 
L 236.16 63.71541 
L 240.218182 65.222622 
L 244.276364 66.495344 
L 248.334545 68.341842 
L 252.392727 70.118527 
L 256.450909 72.685013 
L 260.509091 74.475154 
L 264.567273 76.933817 
L 268.625455 79.321126 
L 272.683636 82.170377 
L 276.741818 85.395742 
L 280.8 88.819905 
L 284.858182 91.354849 
L 288.916364 95.345456 
L 292.974545 99.138359 
L 297.032727 102.259148 
L 301.090909 107.04686 
L 305.149091 111.641521 
L 309.207273 116.911402 
L 313.265455 120.670015 
L 317.323636 127.507839 
L 321.381818 131.186833 
L 325.44 138.326464 
L 329.498182 143.998983 
L 333.556364 148.701073 
L 337.614545 154.476687 
L 341.672727 160.782815 
L 345.730909 170.900314 
L 349.789091 172.900307 
L 353.847273 179.669748 
L 357.905455 186.420409 
L 361.963636 196.395076 
L 366.021818 202.879316 
L 370.08 213.303704 
L 374.138182 220.514081 
L 378.196364 231.671217 
L 382.254545 243.471782 
L 386.312727 256.051479 
L 390.370909 270.493276 
L 394.429091 288.462003 
L 398.487273 293.000394 
" clip-path="url(#pbd92a68215)" style="fill: none; stroke: #1f77b4; stroke-width: 1.5; stroke-linecap: square"/>
    <defs>
     <path id="m74e7453b14" d="M -3 3 
L 3 -3 
M -3 -3 
L 3 3 
" style="stroke: #1f77b4"/>
    </defs>
    <g clip-path="url(#pbd92a68215)">
     <use xlink:href="#m74e7453b14" x="73.832727" y="53.576588" style="fill: #1f77b4; stroke: #1f77b4"/>
     <use xlink:href="#m74e7453b14" x="106.298182" y="53.82545" style="fill: #1f77b4; stroke: #1f77b4"/>
     <use xlink:href="#m74e7453b14" x="138.763636" y="54.157674" style="fill: #1f77b4; stroke: #1f77b4"/>
     <use xlink:href="#m74e7453b14" x="171.229091" y="54.571406" style="fill: #1f77b4; stroke: #1f77b4"/>
     <use xlink:href="#m74e7453b14" x="203.694545" y="56.549402" style="fill: #1f77b4; stroke: #1f77b4"/>
     <use xlink:href="#m74e7453b14" x="236.16" y="63.71541" style="fill: #1f77b4; stroke: #1f77b4"/>
     <use xlink:href="#m74e7453b14" x="268.625455" y="79.321126" style="fill: #1f77b4; stroke: #1f77b4"/>
     <use xlink:href="#m74e7453b14" x="301.090909" y="107.04686" style="fill: #1f77b4; stroke: #1f77b4"/>
     <use xlink:href="#m74e7453b14" x="333.556364" y="148.701073" style="fill: #1f77b4; stroke: #1f77b4"/>
     <use xlink:href="#m74e7453b14" x="366.021818" y="202.879316" style="fill: #1f77b4; stroke: #1f77b4"/>
     <use xlink:href="#m74e7453b14" x="398.487273" y="293.000394" style="fill: #1f77b4; stroke: #1f77b4"/>
    </g>
   </g>
   <g id="line2d_18">
    <path d="M 73.83329 53.569234 
L 84.63909 53.678044 
L 86.521295 53.699 
L 96.968537 53.806109 
L 97.506309 53.814998 
L 108.463613 53.923489 
L 108.667035 53.92894 
L 119.403243 54.036393 
L 119.565047 54.042933 
L 130.765397 54.14956 
L 131.465107 54.165107 
L 143.679127 54.275335 
L 144.073312 54.284569 
L 153.324749 54.385877 
L 153.444712 54.397316 
L 162.940141 54.492157 
L 163.096272 54.509101 
L 170.336953 54.619358 
L 170.457076 54.648841 
L 173.577489 54.718898 
L 173.75706 54.760689 
L 178.667691 54.86144 
L 178.785088 54.922118 
L 181.17281 54.990965 
L 181.278586 55.069075 
L 183.800665 55.157638 
L 183.861735 55.257939 
L 186.799833 55.257939 
L 186.909021 55.371355 
L 188.220557 55.371355 
L 188.389529 55.499351 
L 189.678634 55.499351 
L 189.817443 55.643468 
L 191.15909 55.643468 
L 191.303967 55.805321 
L 192.67681 55.805321 
L 192.846816 55.98658 
L 194.224648 55.98658 
L 194.36748 56.188961 
L 197.509845 56.188961 
L 197.667875 56.414211 
L 199.166149 56.414211 
L 199.290524 56.664086 
L 200.834094 56.664086 
L 200.984961 56.940342 
L 202.538974 56.940342 
L 202.685819 57.244708 
L 204.303623 57.244708 
L 204.375467 57.578873 
L 206.061573 57.578873 
L 206.216399 57.944465 
L 209.54361 57.944465 
L 209.674946 58.343037 
L 211.357337 58.343037 
L 211.47581 58.776046 
L 213.174339 58.776046 
L 213.319084 59.244842 
L 215.039925 59.244842 
L 215.167459 59.750656 
L 216.901186 59.750656 
L 217.010612 60.294588 
L 218.767771 60.294588 
L 218.891418 60.877601 
L 222.227746 60.877601 
L 222.395497 61.500512 
L 224.149612 61.500512 
L 224.262443 62.163998 
L 226.013083 62.163998 
L 226.158676 62.868585 
L 227.868956 62.868585 
L 227.976571 63.614658 
L 229.732359 63.614658 
L 229.762132 64.402465 
L 231.60001 64.402465 
L 231.71935 65.232116 
L 234.937204 65.232116 
L 235.10326 66.103601 
L 236.794534 66.103601 
L 236.849641 67.01679 
L 238.581237 67.01679 
L 238.706679 67.971447 
L 240.34448 67.971447 
L 240.536556 68.967239 
L 242.145222 68.967239 
L 242.228492 70.003748 
L 243.886954 70.003748 
L 244.03554 71.080482 
L 246.994618 71.080482 
L 247.172361 72.196881 
L 248.733969 72.196881 
L 248.846073 73.352335 
L 250.387165 73.352335 
L 250.511228 74.546187 
L 252.03932 74.546187 
L 252.130313 75.777747 
L 253.660275 75.777747 
L 253.681427 77.046296 
L 255.253767 77.046296 
L 255.37943 78.351099 
L 258.178899 78.351099 
L 258.28236 79.691408 
L 259.731521 79.691408 
L 259.900031 81.066471 
L 261.221332 81.066471 
L 261.329584 82.475537 
L 262.749125 82.475537 
L 262.84959 83.917859 
L 264.194266 83.917859 
L 264.348172 85.392702 
L 265.684583 85.392702 
L 265.816543 86.899342 
L 268.401474 86.899342 
L 268.519396 88.437073 
L 269.808558 88.437073 
L 269.915107 90.005206 
L 271.205062 90.005206 
L 271.324691 91.603076 
L 272.566979 91.603076 
L 272.688031 93.230037 
L 273.919333 93.230037 
L 274.055291 94.885468 
L 275.283727 94.885468 
L 275.499397 96.568771 
L 277.826182 96.568771 
L 277.943049 98.279374 
L 279.114289 98.279374 
L 279.224193 100.016729 
L 280.422239 100.016729 
L 280.483108 101.780312 
L 281.703643 101.780312 
L 281.820339 103.569626 
L 282.965196 103.569626 
L 283.075011 105.384195 
L 284.226613 105.384195 
L 284.318856 107.223569 
L 286.622687 107.223569 
L 286.766268 109.087322 
L 287.846609 109.087322 
L 287.978142 110.975047 
L 289.013107 110.975047 
L 289.205734 112.886363 
L 290.296653 112.886363 
L 290.417787 114.820909 
L 291.476527 114.820909 
L 291.599457 116.778342 
L 292.697815 116.778342 
L 292.811454 118.758342 
L 295.019836 118.758342 
L 295.149965 120.760606 
L 296.181515 120.760606 
L 296.338589 122.784849 
L 297.369332 122.784849 
L 297.489193 124.830804 
L 298.532593 124.830804 
L 298.649524 126.89822 
L 299.679631 126.89822 
L 299.809647 128.986861 
L 300.829283 128.986861 
L 300.949981 131.096509 
L 303.04358 131.096509 
L 303.222344 133.226956 
L 304.200486 133.226956 
L 304.34649 135.378011 
L 305.371428 135.378011 
L 305.499416 137.549494 
L 306.489566 137.549494 
L 306.699981 139.741238 
L 307.596019 139.741238 
L 307.763883 141.953087 
L 308.766158 141.953087 
L 308.87704 144.184898 
L 310.979488 144.184898 
L 311.109496 146.436536 
L 312.045083 146.436536 
L 312.212004 148.707878 
L 313.213878 148.707878 
L 313.323519 150.99881 
L 314.331746 150.99881 
L 314.495634 153.309225 
L 315.439901 153.309225 
L 315.559812 155.639028 
L 316.551527 155.639028 
L 316.738488 157.988129 
L 318.753338 157.988129 
L 318.917565 160.356448 
L 319.858765 160.356448 
L 319.951076 162.743911 
L 320.969377 162.743911 
L 321.078601 165.150451 
L 322.047731 165.150451 
L 322.179629 167.576009 
L 323.105649 167.576009 
L 323.283418 170.020531 
L 324.247514 170.020531 
L 324.402933 172.483969 
L 326.452144 172.483969 
L 326.563053 174.966281 
L 327.518646 174.966281 
L 327.660788 177.467431 
L 328.655023 177.467431 
L 328.780985 179.987386 
L 329.743709 179.987386 
L 329.883746 182.52612 
L 330.868045 182.52612 
L 331.066006 185.083612 
L 331.966663 185.083612 
L 332.069248 187.659843 
L 334.137423 187.659843 
L 334.275955 190.254802 
L 335.205932 190.254802 
L 335.369859 192.868477 
L 336.372361 192.868477 
L 336.435557 195.500865 
L 337.409405 195.500865 
L 337.583066 198.151963 
L 338.527756 198.151963 
L 338.694163 200.821773 
L 339.639693 200.821773 
L 339.804141 203.510301 
L 341.892004 203.510301 
L 342.069827 206.217555 
L 342.984935 206.217555 
L 343.11661 208.943546 
L 344.087184 208.943546 
L 344.216234 211.688289 
L 345.20146 211.688289 
L 345.297959 214.451801 
L 346.259269 214.451801 
L 346.448744 217.234102 
L 347.389558 217.234102 
L 347.558087 220.035214 
L 349.659754 220.035214 
L 349.776704 222.855163 
L 350.774587 222.855163 
L 350.891048 225.693976 
L 351.879649 225.693976 
L 351.980846 228.551683 
L 352.982779 228.551683 
L 353.103713 231.428314 
L 354.128076 231.428314 
L 354.27851 234.323905 
L 355.252314 234.323905 
L 355.363841 237.238492 
L 357.496688 237.238492 
L 357.627897 240.172111 
L 358.617 240.172111 
L 358.750357 243.124803 
L 359.73606 243.124803 
L 359.856243 246.096609 
L 360.864763 246.096609 
L 361.025392 249.087572 
L 361.950908 249.087572 
L 362.131243 252.097738 
L 363.151717 252.097738 
L 363.273614 255.127153 
L 365.432375 255.127153 
L 365.536566 258.175864 
L 366.565564 258.175864 
L 366.669326 261.243922 
L 367.71307 261.243922 
L 367.842968 264.331377 
L 368.857741 264.331377 
L 369.003286 267.438282 
L 369.993587 267.438282 
L 370.146084 270.56469 
L 371.14238 270.56469 
L 371.256492 273.710656 
L 373.414149 273.710656 
L 373.576104 276.876236 
L 374.596324 276.876236 
L 374.731142 280.061487 
L 375.767038 280.061487 
L 375.88822 283.266469 
L 376.93033 283.266469 
L 376.999238 286.49124 
L 378.094698 286.49124 
L 378.194194 289.735861 
L 379.248675 289.735861 
L 379.366794 293.000394 
L 398.48424 293.000394 
L 398.48424 293.000394 
" clip-path="url(#pbd92a68215)" style="fill: none; stroke: #ff7f0e; stroke-width: 1.5; stroke-linecap: square"/>
    <defs>
     <path id="m269a85a658" d="M 0 3 
C 0.795609 3 1.55874 2.683901 2.12132 2.12132 
C 2.683901 1.55874 3 0.795609 3 0 
C 3 -0.795609 2.683901 -1.55874 2.12132 -2.12132 
C 1.55874 -2.683901 0.795609 -3 0 -3 
C -0.795609 -3 -1.55874 -2.683901 -2.12132 -2.12132 
C -2.683901 -1.55874 -3 -0.795609 -3 0 
C -3 0.795609 -2.683901 1.55874 -2.12132 2.12132 
C -1.55874 2.683901 -0.795609 3 0 3 
z
" style="stroke: #ff7f0e"/>
    </defs>
    <g clip-path="url(#pbd92a68215)">
     <use xlink:href="#m269a85a658" x="73.83329" y="53.569234" style="fill-opacity: 0; stroke: #ff7f0e"/>
     <use xlink:href="#m269a85a658" x="98.438175" y="53.819498" style="fill-opacity: 0; stroke: #ff7f0e"/>
     <use xlink:href="#m269a85a658" x="122.202928" y="54.062952" style="fill-opacity: 0; stroke: #ff7f0e"/>
     <use xlink:href="#m269a85a658" x="146.73646" y="54.322879" style="fill-opacity: 0; stroke: #ff7f0e"/>
     <use xlink:href="#m269a85a658" x="172.384226" y="54.681831" style="fill-opacity: 0; stroke: #ff7f0e"/>
     <use xlink:href="#m269a85a658" x="196.975387" y="56.188961" style="fill-opacity: 0; stroke: #ff7f0e"/>
     <use xlink:href="#m269a85a658" x="221.048316" y="60.877601" style="fill-opacity: 0; stroke: #ff7f0e"/>
     <use xlink:href="#m269a85a658" x="245.649865" y="71.080482" style="fill-opacity: 0; stroke: #ff7f0e"/>
     <use xlink:href="#m269a85a658" x="270.558825" y="90.005206" style="fill-opacity: 0; stroke: #ff7f0e"/>
     <use xlink:href="#m269a85a658" x="294.226793" y="118.758342" style="fill-opacity: 0; stroke: #ff7f0e"/>
     <use xlink:href="#m269a85a658" x="319.065859" y="160.356448" style="fill-opacity: 0; stroke: #ff7f0e"/>
     <use xlink:href="#m269a85a658" x="342.069827" y="206.217555" style="fill-opacity: 0; stroke: #ff7f0e"/>
     <use xlink:href="#m269a85a658" x="365.822969" y="258.175864" style="fill-opacity: 0; stroke: #ff7f0e"/>
     <use xlink:href="#m269a85a658" x="390.810051" y="293.000394" style="fill-opacity: 0; stroke: #ff7f0e"/>
    </g>
   </g>
   <g id="patch_3">
    <path d="M 57.6 307.584 
L 57.6 41.472 
" style="fill: none; stroke: #000000; stroke-width: 0.8; stroke-linejoin: miter; stroke-linecap: square"/>
   </g>
   <g id="patch_4">
    <path d="M 414.72 307.584 
L 414.72 41.472 
" style="fill: none; stroke: #000000; stroke-width: 0.8; stroke-linejoin: miter; stroke-linecap: square"/>
   </g>
   <g id="patch_5">
    <path d="M 57.6 307.584 
L 414.72 307.584 
" style="fill: none; stroke: #000000; stroke-width: 0.8; stroke-linejoin: miter; stroke-linecap: square"/>
   </g>
   <g id="patch_6">
    <path d="M 57.6 41.472 
L 414.72 41.472 
" style="fill: none; stroke: #000000; stroke-width: 0.8; stroke-linejoin: miter; stroke-linecap: square"/>
   </g>
   <g id="legend_1">
    <g id="patch_7">
     <path d="M 272.42625 78.82825 
L 407.72 78.82825 
Q 409.72 78.82825 409.72 76.82825 
L 409.72 48.472 
Q 409.72 46.472 407.72 46.472 
L 272.42625 46.472 
Q 270.42625 46.472 270.42625 48.472 
L 270.42625 76.82825 
Q 270.42625 78.82825 272.42625 78.82825 
z
" style="fill: #ffffff; opacity: 0.8; stroke: #cccccc; stroke-linejoin: miter"/>
    </g>
    <g id="line2d_19">
     <path d="M 274.42625 54.570437 
L 284.42625 54.570437 
L 294.42625 54.570437 
" style="fill: none; stroke: #1f77b4; stroke-width: 1.5; stroke-linecap: square"/>
     <g>
      <use xlink:href="#m74e7453b14" x="284.42625" y="54.570437" style="fill: #1f77b4; stroke: #1f77b4"/>
     </g>
    </g>
    <g id="text_19">
     <!-- heterogeneous price -->
     <g transform="translate(302.42625 58.070437) scale(0.1 -0.1)">
      <defs>
       <path id="DejaVuSans-68" d="M 3513 2113 
L 3513 0 
L 2938 0 
L 2938 2094 
Q 2938 2591 2744 2837 
Q 2550 3084 2163 3084 
Q 1697 3084 1428 2787 
Q 1159 2491 1159 1978 
L 1159 0 
L 581 0 
L 581 4863 
L 1159 4863 
L 1159 2956 
Q 1366 3272 1645 3428 
Q 1925 3584 2291 3584 
Q 2894 3584 3203 3211 
Q 3513 2838 3513 2113 
z
" transform="scale(0.015625)"/>
       <path id="DejaVuSans-6f" d="M 1959 3097 
Q 1497 3097 1228 2736 
Q 959 2375 959 1747 
Q 959 1119 1226 758 
Q 1494 397 1959 397 
Q 2419 397 2687 759 
Q 2956 1122 2956 1747 
Q 2956 2369 2687 2733 
Q 2419 3097 1959 3097 
z
M 1959 3584 
Q 2709 3584 3137 3096 
Q 3566 2609 3566 1747 
Q 3566 888 3137 398 
Q 2709 -91 1959 -91 
Q 1206 -91 779 398 
Q 353 888 353 1747 
Q 353 2609 779 3096 
Q 1206 3584 1959 3584 
z
" transform="scale(0.015625)"/>
       <path id="DejaVuSans-6e" d="M 3513 2113 
L 3513 0 
L 2938 0 
L 2938 2094 
Q 2938 2591 2744 2837 
Q 2550 3084 2163 3084 
Q 1697 3084 1428 2787 
Q 1159 2491 1159 1978 
L 1159 0 
L 581 0 
L 581 3500 
L 1159 3500 
L 1159 2956 
Q 1366 3272 1645 3428 
Q 1925 3584 2291 3584 
Q 2894 3584 3203 3211 
Q 3513 2838 3513 2113 
z
" transform="scale(0.015625)"/>
       <path id="DejaVuSans-73" d="M 2834 3397 
L 2834 2853 
Q 2591 2978 2328 3040 
Q 2066 3103 1784 3103 
Q 1356 3103 1142 2972 
Q 928 2841 928 2578 
Q 928 2378 1081 2264 
Q 1234 2150 1697 2047 
L 1894 2003 
Q 2506 1872 2764 1633 
Q 3022 1394 3022 966 
Q 3022 478 2636 193 
Q 2250 -91 1575 -91 
Q 1294 -91 989 -36 
Q 684 19 347 128 
L 347 722 
Q 666 556 975 473 
Q 1284 391 1588 391 
Q 1994 391 2212 530 
Q 2431 669 2431 922 
Q 2431 1156 2273 1281 
Q 2116 1406 1581 1522 
L 1381 1569 
Q 847 1681 609 1914 
Q 372 2147 372 2553 
Q 372 3047 722 3315 
Q 1072 3584 1716 3584 
Q 2034 3584 2315 3537 
Q 2597 3491 2834 3397 
z
" transform="scale(0.015625)"/>
      </defs>
      <use xlink:href="#DejaVuSans-68"/>
      <use xlink:href="#DejaVuSans-65" x="63.378906"/>
      <use xlink:href="#DejaVuSans-74" x="124.902344"/>
      <use xlink:href="#DejaVuSans-65" x="164.111328"/>
      <use xlink:href="#DejaVuSans-72" x="225.634766"/>
      <use xlink:href="#DejaVuSans-6f" x="264.498047"/>
      <use xlink:href="#DejaVuSans-67" x="325.679688"/>
      <use xlink:href="#DejaVuSans-65" x="389.15625"/>
      <use xlink:href="#DejaVuSans-6e" x="450.679688"/>
      <use xlink:href="#DejaVuSans-65" x="514.058594"/>
      <use xlink:href="#DejaVuSans-6f" x="575.582031"/>
      <use xlink:href="#DejaVuSans-75" x="636.763672"/>
      <use xlink:href="#DejaVuSans-73" x="700.142578"/>
      <use xlink:href="#DejaVuSans-20" x="752.242188"/>
      <use xlink:href="#DejaVuSans-70" x="784.029297"/>
      <use xlink:href="#DejaVuSans-72" x="847.505859"/>
      <use xlink:href="#DejaVuSans-69" x="888.619141"/>
      <use xlink:href="#DejaVuSans-63" x="916.402344"/>
      <use xlink:href="#DejaVuSans-65" x="971.382812"/>
     </g>
    </g>
    <g id="line2d_20">
     <path d="M 274.42625 69.248562 
L 284.42625 69.248562 
L 294.42625 69.248562 
" style="fill: none; stroke: #ff7f0e; stroke-width: 1.5; stroke-linecap: square"/>
     <g>
      <use xlink:href="#m269a85a658" x="284.42625" y="69.248562" style="fill-opacity: 0; stroke: #ff7f0e"/>
     </g>
    </g>
    <g id="text_20">
     <!-- constant price -->
     <g transform="translate(302.42625 72.748562) scale(0.1 -0.1)">
      <defs>
       <path id="DejaVuSans-61" d="M 2194 1759 
Q 1497 1759 1228 1600 
Q 959 1441 959 1056 
Q 959 750 1161 570 
Q 1363 391 1709 391 
Q 2188 391 2477 730 
Q 2766 1069 2766 1631 
L 2766 1759 
L 2194 1759 
z
M 3341 1997 
L 3341 0 
L 2766 0 
L 2766 531 
Q 2569 213 2275 61 
Q 1981 -91 1556 -91 
Q 1019 -91 701 211 
Q 384 513 384 1019 
Q 384 1609 779 1909 
Q 1175 2209 1959 2209 
L 2766 2209 
L 2766 2266 
Q 2766 2663 2505 2880 
Q 2244 3097 1772 3097 
Q 1472 3097 1187 3025 
Q 903 2953 641 2809 
L 641 3341 
Q 956 3463 1253 3523 
Q 1550 3584 1831 3584 
Q 2591 3584 2966 3190 
Q 3341 2797 3341 1997 
z
" transform="scale(0.015625)"/>
      </defs>
      <use xlink:href="#DejaVuSans-63"/>
      <use xlink:href="#DejaVuSans-6f" x="54.980469"/>
      <use xlink:href="#DejaVuSans-6e" x="116.162109"/>
      <use xlink:href="#DejaVuSans-73" x="179.541016"/>
      <use xlink:href="#DejaVuSans-74" x="231.640625"/>
      <use xlink:href="#DejaVuSans-61" x="270.849609"/>
      <use xlink:href="#DejaVuSans-6e" x="332.128906"/>
      <use xlink:href="#DejaVuSans-74" x="395.507812"/>
      <use xlink:href="#DejaVuSans-20" x="434.716797"/>
      <use xlink:href="#DejaVuSans-70" x="466.503906"/>
      <use xlink:href="#DejaVuSans-72" x="529.980469"/>
      <use xlink:href="#DejaVuSans-69" x="571.09375"/>
      <use xlink:href="#DejaVuSans-63" x="598.876953"/>
      <use xlink:href="#DejaVuSans-65" x="653.857422"/>
     </g>
    </g>
   </g>
  </g>
 </g>
 <defs>
  <clipPath id="pbd92a68215">
   <rect x="57.6" y="41.472" width="357.12" height="266.112"/>
  </clipPath>
 </defs>
</svg>
